<svg width="63" height="63" viewBox="0 0 63 63" fill="none" xmlns="http://www.w3.org/2000/svg">
<g id="logo 1" clip-path="url(#clip0_3669_448)">
<path id="Vector" fill-rule="evenodd" clip-rule="evenodd" d="M31.5 63C48.8965 63 63 48.8965 63 31.5C63 14.1035 48.8965 0 31.5 0C14.1035 0 0 14.1035 0 31.5C0 48.8965 14.1035 63 31.5 63ZM31.6285 60.0439C47.3926 60.0439 60.1709 47.2641 60.1709 31.5015C60.1709 15.7388 47.3926 2.95772 31.6285 2.95772C15.8645 2.95772 3.08635 15.7359 3.08635 31.5C3.08635 47.2641 15.8645 60.0439 31.6285 60.0439ZM31.5 57.8571C46.0569 57.8571 57.8571 46.0569 57.8571 31.5C57.8571 16.9431 46.0569 5.14287 31.5 5.14287C16.9431 5.14287 5.14287 16.9431 5.14287 31.5C5.14287 46.0569 16.9431 57.8571 31.5 57.8571ZM31.565 54.6436C44.3815 54.6436 54.7721 44.2531 54.7721 31.4365C54.7721 18.6199 44.3815 8.22923 31.565 8.22923C18.7484 8.22923 8.35769 18.6185 8.35769 31.4365C8.35769 44.2545 18.7469 54.6436 31.565 54.6436ZM31.3701 35.7801C30.0802 35.7801 28.8274 35.8879 27.6143 36.0932L29.4819 32.8504C30.1127 32.8091 30.7435 32.7884 31.3701 32.7884C32.8371 32.7884 34.3292 32.9095 35.7712 33.1414L28.52 20.5464L16.4481 41.5124L14.7225 38.5163L28.4919 14.6012L28.52 14.6501L28.5467 14.6027L45.1646 43.4641H41.7149L37.8307 36.7182C35.8066 36.1065 33.6438 35.7801 31.3701 35.7801ZM46.2387 41.5626L30.1496 13.6203H33.5993L47.9628 38.5665L46.2387 41.5626ZM30.2709 27.4061L23.6652 38.8797C26.0292 38.1646 28.8112 37.8454 31.4365 37.8454C31.6493 37.8454 31.8619 37.8484 32.0747 37.8528C33.5654 37.8883 35.0724 38.0464 36.5159 38.3168L38.72 42.1449C36.4641 41.3219 34.022 40.8373 31.4365 40.8373C27.6129 40.8373 24.1011 41.7857 21.0428 43.4346L21.0916 43.3474L21.0251 43.4626H17.5754L28.5467 24.4084L30.2709 27.4061Z" fill="url(#paint0_linear_3669_448)"/>
</g>
<defs>
<linearGradient id="paint0_linear_3669_448" x1="49.6356" y1="59.2884" x2="12.7997" y2="2.84567" gradientUnits="userSpaceOnUse">
<stop offset="0.0076157" stop-color="#645AFF"/>
<stop offset="0.5038" stop-color="#E40C5B"/>
<stop offset="1" stop-color="#FF4C3B"/>
</linearGradient>
<clipPath id="clip0_3669_448">
<rect width="63" height="63" fill="white"/>
</clipPath>
</defs>
</svg>
