<svg width="20" height="20" viewBox="0 0 20 20" fill="none" xmlns="http://www.w3.org/2000/svg">
<path d="M17.5 16.25V8.125C17.5 7.79348 17.3683 7.47554 17.1339 7.24112C16.8995 7.0067 16.5815 6.875 16.25 6.875H7.75859L8.56719 6.06719C8.62526 6.00912 8.67132 5.94018 8.70275 5.86431C8.73417 5.78844 8.75035 5.70712 8.75035 5.625C8.75035 5.54288 8.73417 5.46156 8.70275 5.38569C8.67132 5.30982 8.62526 5.24088 8.56719 5.18281C8.50912 5.12474 8.44018 5.07868 8.36431 5.04725C8.28844 5.01583 8.20712 4.99965 8.125 4.99965C8.04288 4.99965 7.96156 5.01583 7.88569 5.04725C7.80982 5.07868 7.74088 5.12474 7.68281 5.18281L5.80781 7.05781C5.7497 7.11586 5.7036 7.18479 5.67215 7.26066C5.6407 7.33654 5.62451 7.41787 5.62451 7.5C5.62451 7.58213 5.6407 7.66346 5.67215 7.73934C5.7036 7.81521 5.7497 7.88414 5.80781 7.94219L7.68281 9.81719C7.80009 9.93446 7.95915 10.0003 8.125 10.0003C8.29085 10.0003 8.44991 9.93446 8.56719 9.81719C8.68446 9.69991 8.75035 9.54085 8.75035 9.375C8.75035 9.20915 8.68446 9.05009 8.56719 8.93281L7.75859 8.125H16.25V16.25H7.5V15.625C7.5 15.4592 7.43415 15.3003 7.31694 15.1831C7.19973 15.0658 7.04076 15 6.875 15C6.70924 15 6.55027 15.0658 6.43306 15.1831C6.31585 15.3003 6.25 15.4592 6.25 15.625V16.25C6.25 16.5815 6.3817 16.8995 6.61612 17.1339C6.85054 17.3683 7.16848 17.5 7.5 17.5H16.25C16.5815 17.5 16.8995 17.3683 17.1339 17.1339C17.3683 16.8995 17.5 16.5815 17.5 16.25ZM13.125 5C12.9592 5 12.8003 4.93415 12.6831 4.81694C12.5658 4.69973 12.5 4.54076 12.5 4.375V3.75H3.75V11.875H12.2414L11.4328 11.0672C11.3155 10.9499 11.2497 10.7909 11.2497 10.625C11.2497 10.4591 11.3155 10.3001 11.4328 10.1828C11.5501 10.0655 11.7091 9.99965 11.875 9.99965C12.0409 9.99965 12.1999 10.0655 12.3172 10.1828L14.1922 12.0578C14.2503 12.1159 14.2964 12.1848 14.3279 12.2607C14.3593 12.3365 14.3755 12.4179 14.3755 12.5C14.3755 12.5821 14.3593 12.6635 14.3279 12.7393C14.2964 12.8152 14.2503 12.8841 14.1922 12.9422L12.3172 14.8172C12.1999 14.9345 12.0409 15.0003 11.875 15.0003C11.7091 15.0003 11.5501 14.9345 11.4328 14.8172C11.3155 14.6999 11.2497 14.5409 11.2497 14.375C11.2497 14.2091 11.3155 14.0501 11.4328 13.9328L12.2414 13.125H3.75C3.41848 13.125 3.10054 12.9933 2.86612 12.7589C2.6317 12.5245 2.5 12.2065 2.5 11.875V3.75C2.5 3.41848 2.6317 3.10054 2.86612 2.86612C3.10054 2.6317 3.41848 2.5 3.75 2.5H12.5C12.8315 2.5 13.1495 2.6317 13.3839 2.86612C13.6183 3.10054 13.75 3.41848 13.75 3.75V4.375C13.75 4.54076 13.6842 4.69973 13.5669 4.81694C13.4497 4.93415 13.2908 5 13.125 5Z" fill="currentColor"/>
</svg>
