<svg xmlns="http://www.w3.org/2000/svg" width="17" height="16" viewBox="0 0 17 16" fill="none">
  <path fill-rule="evenodd" clip-rule="evenodd"
    d="M9.18021 2.09203C9.05973 2.07077 8.93573 2.08275 8.82154 2.12666C8.70734 2.17058 8.60728 2.24478 8.53208 2.34129C8.45689 2.4378 8.40941 2.55297 8.39475 2.67444C8.38009 2.7959 8.39881 2.91906 8.44888 3.03069C8.78104 3.77062 8.88043 4.59405 8.73385 5.39176C8.58727 6.18947 8.20165 6.92378 7.62814 7.49729C7.05463 8.0708 6.32032 8.45642 5.52261 8.603C4.7249 8.74957 3.90147 8.65019 3.16154 8.31803C3.04989 8.26778 2.92664 8.24894 2.80507 8.26352C2.6835 8.2781 2.56821 8.32555 2.4716 8.40077C2.37499 8.47598 2.30072 8.57612 2.25677 8.69041C2.21283 8.80469 2.20088 8.92879 2.22221 9.04936C2.48315 10.5277 3.28882 11.8546 4.48019 12.768C5.67157 13.6815 7.16208 14.1151 8.65753 13.9833C10.153 13.8515 11.5447 13.1639 12.558 12.0563C13.5713 10.9486 14.1325 9.50127 14.1309 8.00003C14.131 6.59063 13.6349 5.22617 12.7297 4.14591C11.8245 3.06564 10.5679 2.33851 9.18021 2.09203Z"
    fill="#45A996" />
</svg>