<svg xmlns="http://www.w3.org/2000/svg" width="100%" height="100%" viewBox="0 0 100% 100%" fill="none">
    <path
        d="M18.1036 13.6487C17.9479 13.2095 17.7907 12.7667 17.7879 12.7609C17.7129 12.5906 17.5393 12.4833 17.3564 12.5021C17.2407 12.5116 14.5029 12.7507 12.7486 14.1821C11.8314 15.0416 10 20.067 10 24.4119C10 24.4887 10.0193 24.5633 10.0571 24.63C11.3221 26.884 14.7707 27.4739 15.5564 27.4993C15.5614 27.5 15.5657 27.5 15.57 27.5C15.7086 27.5 15.8386 27.4326 15.9214 27.3188L16.7714 26.1505C15.3671 25.9338 15.1136 25.6512 15.0543 25.607C14.7371 25.37 14.5029 25.038 14.7871 24.6191C15.0057 24.2937 15.4643 24.1865 15.8157 24.3698C16.1757 24.5401 17.1393 25.0881 20 25.0736C22.8407 25.0649 24.0879 24.4611 24.1057 24.4481C24.5829 24.23 24.955 24.3198 25.1871 24.6431C25.4636 25.083 25.2664 25.3808 24.9507 25.6171C24.8914 25.6613 24.7479 25.7853 23.2393 26.1476L24.0786 27.3181C24.1607 27.4326 24.2914 27.4993 24.43 27.4993C24.435 27.4993 24.4393 27.4993 24.4436 27.4986C25.23 27.4732 28.6786 26.8832 29.9429 24.6293C29.9807 24.5626 30 24.488 30 24.4111C30 20.067 28.1686 15.0416 27.2286 14.1633C25.4971 12.7515 22.7593 12.5123 22.6436 12.5021C22.4607 12.4862 22.2871 12.5913 22.2121 12.7609C22.2093 12.7667 22.0564 13.2167 21.9086 13.6509C21.9086 13.6509 20.7436 13.4776 20 13.4776C19.2564 13.4776 18.1036 13.6487 18.1036 13.6487ZM17.1429 22.8993C16.3536 22.8993 15.7143 21.9332 15.7143 20.7403C15.7143 19.5474 16.3536 18.5813 17.1429 18.5813C17.935 18.4617 18.5543 19.5474 18.5714 20.7403C18.5714 21.9332 17.9321 22.8993 17.1429 22.8993ZM22.8571 22.8993C22.0679 22.8993 21.4286 21.9267 21.4286 20.7273C21.4286 19.5278 22.0679 18.5552 22.8571 18.5552C23.6464 18.5552 24.2857 19.5278 24.2857 20.7273C24.2857 21.9267 23.6464 22.8993 22.8571 22.8993Z"
        fill="currentColor" />
</svg>