<svg width="40" height="40" viewBox="0 0 40 40" fill="none" xmlns="http://www.w3.org/2000/svg">
    <path
        d="M18.4829 14.9189C18.3583 14.5676 18.2326 14.2133 18.2303 14.2087C18.1703 14.0724 18.0314 13.9866 17.8851 14.0017C17.7926 14.0092 15.6023 14.2006 14.1989 15.3457C13.4651 16.0333 12 20.0536 12 23.5295C12 23.591 12.0154 23.6507 12.0457 23.704C13.0577 25.5072 15.8166 25.9791 16.4451 25.9994C16.4491 26 16.4526 26 16.456 26C16.5669 26 16.6709 25.9461 16.7371 25.8551L17.4171 24.9204C16.2937 24.7471 16.0909 24.5209 16.0434 24.4856C15.7897 24.296 15.6023 24.0304 15.8297 23.6953C16.0046 23.435 16.3714 23.3492 16.6526 23.4959C16.9406 23.6321 17.7114 24.0704 20 24.0588C22.2726 24.0519 23.2703 23.5689 23.2846 23.5585C23.6663 23.384 23.964 23.4559 24.1497 23.7144C24.3709 24.0664 24.2131 24.3047 23.9606 24.4937C23.9131 24.5291 23.7983 24.6282 22.5914 24.9181L23.2629 25.8545C23.3286 25.9461 23.4331 25.9994 23.544 25.9994C23.548 25.9994 23.5514 25.9994 23.5549 25.9988C24.184 25.9785 26.9429 25.5066 27.9543 23.7034C27.9846 23.6501 28 23.5904 28 23.5289C28 20.0536 26.5349 16.0333 25.7829 15.3306C24.3977 14.2012 22.2074 14.0098 22.1149 14.0017C21.9686 13.989 21.8297 14.073 21.7697 14.2087C21.7674 14.2133 21.6451 14.5734 21.5269 14.9207C21.5269 14.9207 20.5949 14.7821 20 14.7821C19.4051 14.7821 18.4829 14.9189 18.4829 14.9189ZM17.7143 22.3195C17.0829 22.3195 16.5714 21.5466 16.5714 20.5922C16.5714 19.6379 17.0829 18.865 17.7143 18.865C18.348 18.7694 18.8434 19.6379 18.8571 20.5922C18.8571 21.5466 18.3457 22.3195 17.7143 22.3195ZM22.2857 22.3195C21.6543 22.3195 21.1429 21.5414 21.1429 20.5818C21.1429 19.6222 21.6543 18.8442 22.2857 18.8442C22.9171 18.8442 23.4286 19.6222 23.4286 20.5818C23.4286 21.5414 22.9171 22.3195 22.2857 22.3195Z"
        fill="currentColor" />
</svg>