<svg width="100%" height="100%" viewBox="0 0 100% 100%" fill="none" xmlns="http://www.w3.org/2000/svg">
    <path
        d="M8.10357 1.64868C7.94786 1.20949 7.79071 0.766671 7.78786 0.760873C7.71286 0.590558 7.53929 0.483295 7.35643 0.502139C7.24071 0.51156 4.50286 0.750726 2.74857 2.1821C1.83143 3.04164 0 8.06702 0 12.4119C0 12.4887 0.0192857 12.5633 0.0571429 12.63C1.32214 14.884 4.77071 15.4739 5.55643 15.4993C5.56143 15.5 5.56571 15.5 5.57 15.5C5.70857 15.5 5.83857 15.4326 5.92143 15.3188L6.77143 14.1505C5.36714 13.9338 5.11357 13.6512 5.05429 13.607C4.73714 13.37 4.50286 13.038 4.78714 12.6191C5.00571 12.2937 5.46429 12.1865 5.81571 12.3698C6.17571 12.5401 7.13929 13.0881 10 13.0736C12.8407 13.0649 14.0879 12.4611 14.1057 12.4481C14.5829 12.23 14.955 12.3198 15.1871 12.6431C15.4636 13.083 15.2664 13.3808 14.9507 13.6171C14.8914 13.6613 14.7479 13.7853 13.2393 14.1476L14.0786 15.3181C14.1607 15.4326 14.2914 15.4993 14.43 15.4993C14.435 15.4993 14.4393 15.4993 14.4436 15.4986C15.23 15.4732 18.6786 14.8832 19.9429 12.6293C19.9807 12.5626 20 12.488 20 12.4111C20 8.06702 18.1686 3.04164 17.2286 2.16325C15.4971 0.751451 12.7593 0.512285 12.6436 0.502139C12.4607 0.486194 12.2871 0.591283 12.2121 0.760873C12.2093 0.766671 12.0564 1.21674 11.9086 1.65086C11.9086 1.65086 10.7436 1.47764 10 1.47764C9.25643 1.47764 8.10357 1.64868 8.10357 1.64868ZM7.14286 10.8993C6.35357 10.8993 5.71429 9.93324 5.71429 8.74031C5.71429 7.54738 6.35357 6.5813 7.14286 6.5813C7.935 6.46171 8.55429 7.54738 8.57143 8.74031C8.57143 9.93324 7.93214 10.8993 7.14286 10.8993ZM12.8571 10.8993C12.0679 10.8993 11.4286 9.92672 11.4286 8.72726C11.4286 7.52781 12.0679 6.5552 12.8571 6.5552C13.6464 6.5552 14.2857 7.52781 14.2857 8.72726C14.2857 9.92672 13.6464 10.8993 12.8571 10.8993Z"
        fill="currentColor" />
</svg>