<svg width="23" height="17" viewBox="0 0 23 17" fill="none" xmlns="http://www.w3.org/2000/svg">
<path d="M9.31914 1.30189C9.14008 0.804131 8.95931 0.302292 8.95609 0.295719C8.86984 0.102712 8.67019 -0.0188937 8.45986 0.00241291C8.3268 0.0131796 5.17833 0.284159 3.16089 1.90641C2.10611 2.88051 0 8.57595 0 13.5002C0 13.5872 0.0221953 13.6717 0.0656653 13.7473C1.52042 16.3019 5.48631 16.9704 6.38986 16.9992C6.39561 17 6.40055 17 6.4055 17C6.56489 17 6.71439 16.9236 6.80961 16.7946L7.78711 15.4706C6.17217 15.225 5.88064 14.9047 5.81245 14.8546C5.44767 14.586 5.17833 14.2097 5.50516 13.735C5.75655 13.3662 6.28394 13.2447 6.68805 13.4524C7.10205 13.6455 8.21019 14.2665 11.5 14.2501C14.7668 14.2402 16.2011 13.5559 16.2216 13.5412C16.7703 13.294 17.1982 13.3958 17.4652 13.7622C17.7831 14.2607 17.5564 14.5982 17.1933 14.8661C17.1251 14.9161 16.9601 15.0567 15.2252 15.4673L16.1904 16.7938C16.2848 16.9236 16.4351 16.9992 16.5945 16.9992C16.6003 16.9992 16.6052 16.9992 16.6101 16.9984C17.5145 16.9696 21.4804 16.301 22.9343 13.7465C22.9778 13.671 23 13.5864 23 13.4993C23 8.57595 20.8939 2.88051 19.8129 1.8851C17.8217 0.285065 14.6732 0.0139729 14.5401 0.00241291C14.3298 -0.0156071 14.1302 0.103506 14.0439 0.295719C14.0407 0.302292 13.8649 0.812291 13.6949 1.30438C13.6949 1.30438 12.3551 1.10798 11.5 1.10798C10.6449 1.10798 9.31914 1.30189 9.31914 1.30189ZM8.21434 11.7859C7.30664 11.7859 6.57145 10.691 6.57145 9.33902C6.57145 7.98707 7.30664 6.89216 8.21434 6.89216C9.12525 6.75661 9.83744 7.98707 9.85711 9.33902C9.85711 10.691 9.12192 11.7859 8.21434 11.7859ZM14.7857 11.7859C13.8781 11.7859 13.1429 10.6836 13.1429 9.32429C13.1429 7.96486 13.8781 6.86258 14.7857 6.86258C15.6934 6.86258 16.4286 7.96486 16.4286 9.32429C16.4286 10.6836 15.6934 11.7859 14.7857 11.7859Z" fill="currentColor"/>
</svg>
