<svg width="25" height="24" viewBox="0 0 25 24" fill="none" xmlns="http://www.w3.org/2000/svg">
<rect width="25" height="24" rx="4" fill="#F07979" fill-opacity="0.1"/>
<path d="M6.92393 16.7953C6.28719 16.1803 5.77931 15.4447 5.42992 14.6313C5.08052 13.818 4.89662 12.9432 4.88892 12.058C4.88123 11.1728 5.04991 10.2949 5.38512 9.4756C5.72032 8.65629 6.21534 7.91195 6.84129 7.286C7.46724 6.66004 8.21159 6.16502 9.0309 5.82982C9.85021 5.49461 10.7281 5.32593 11.6133 5.33363C12.4985 5.34132 13.3733 5.52523 14.1866 5.87462C15 6.22401 15.7356 6.73189 16.3506 7.36863C17.565 8.62598 18.2369 10.31 18.2218 12.058C18.2066 13.8059 17.5054 15.478 16.2694 16.7141C15.0333 17.9501 13.3612 18.6513 11.6133 18.6665C9.86529 18.6816 8.18127 18.0097 6.92393 16.7953ZM12.5706 12.082L14.4573 10.1953L13.5173 9.2553L11.6373 11.142L9.75059 9.2553L8.81059 10.1953L10.6973 12.082L8.81059 13.9686L9.75059 14.9086L11.6373 13.022L13.5239 14.9086L14.4639 13.9686L12.5773 12.082H12.5706Z" fill="#F07979"/>
</svg>
