<svg width="12" height="5" viewBox="0 0 12 5" fill="none" xmlns="http://www.w3.org/2000/svg">
    <path
        d="M1.514 4.92098L6 3.42627L10.486 4.92098C10.6377 4.97149 10.8108 4.99874 10.9876 4.99996C11.1645 5.00117 11.3387 4.97631 11.4926 4.92791C11.6465 4.8795 11.7746 4.80928 11.8637 4.72441C11.9528 4.63954 11.9999 4.54305 12 4.44479L12 2.22217C11.9999 2.12624 11.955 2.03196 11.8699 1.94851C11.7847 1.86506 11.6621 1.79529 11.514 1.74598L6.514 0.0790194C6.3587 0.0273111 6.18105 -1.6596e-07 6 -1.56287e-07C5.81895 -1.46615e-07 5.6413 0.0273112 5.486 0.0790194L0.486001 1.74598C0.337904 1.79529 0.215304 1.86506 0.130137 1.94851C0.0449701 2.03196 0.000136918 2.12624 5.56291e-07 2.22217L8.74248e-07 4.44479C0.000140125 4.54305 0.0471763 4.63954 0.136311 4.72441C0.225447 4.80928 0.353492 4.8795 0.507394 4.92791C0.661295 4.97631 0.835546 5.00117 1.01238 4.99996C1.18921 4.99874 1.3623 4.97149 1.514 4.92098Z"
        fill="currentColor" />
</svg>