<svg width="14" height="15" viewBox="0 0 14 15" fill="none" xmlns="http://www.w3.org/2000/svg">
  <g id="material-symbols:info">
    <path id="Vector"
      d="M6.4165 10.167H7.58317V6.66699H6.4165V10.167ZM6.99984 5.50033C7.16512 5.50033 7.30375 5.44433 7.41575 5.33233C7.52775 5.22033 7.58356 5.08188 7.58317 4.91699C7.58278 4.7521 7.52678 4.61366 7.41517 4.50166C7.30356 4.38966 7.16512 4.33366 6.99984 4.33366C6.83456 4.33366 6.69612 4.38966 6.5845 4.50166C6.47289 4.61366 6.41689 4.7521 6.4165 4.91699C6.41612 5.08188 6.47212 5.22052 6.5845 5.33291C6.69689 5.4453 6.83534 5.5011 6.99984 5.50033ZM6.99984 13.0837C6.19289 13.0837 5.43456 12.9304 4.72484 12.624C4.01512 12.3175 3.39775 11.902 2.87275 11.3774C2.34775 10.8528 1.93223 10.2354 1.62617 9.52532C1.32012 8.81521 1.16689 8.05688 1.1665 7.25033C1.16612 6.44377 1.31934 5.68544 1.62617 4.97533C1.933 4.26521 2.34853 3.64785 2.87275 3.12324C3.39698 2.59863 4.01434 2.1831 4.72484 1.87666C5.43534 1.57021 6.19367 1.41699 6.99984 1.41699C7.806 1.41699 8.56434 1.57021 9.27484 1.87666C9.98534 2.1831 10.6027 2.59863 11.1269 3.12324C11.6511 3.64785 12.0669 4.26521 12.3741 4.97533C12.6813 5.68544 12.8343 6.44377 12.8332 7.25033C12.832 8.05688 12.6788 8.81521 12.3735 9.52532C12.0682 10.2354 11.6527 10.8528 11.1269 11.3774C10.6011 11.902 9.98378 12.3177 9.27484 12.6246C8.56589 12.9314 7.80756 13.0844 6.99984 13.0837Z"
      fill="#A5CAC3" fill-opacity="0.7" />
  </g>
</svg>