<svg xmlns="http://www.w3.org/2000/svg" width="100%" height="100%" viewBox="0 0 100% 100%" fill="none">
    <path
        d="M25.0063 13.8688C24.7837 13.8688 24.5662 13.9347 24.3812 14.0583C24.1962 14.182 24.052 14.3577 23.9669 14.5632C23.8817 14.7688 23.8595 14.995 23.9029 15.2132C23.9463 15.4315 24.0534 15.6319 24.2108 15.7892C24.3681 15.9466 24.5685 16.0537 24.7868 16.0971C25.005 16.1405 25.2312 16.1183 25.4368 16.0331C25.6423 15.948 25.818 15.8038 25.9417 15.6188C26.0653 15.4338 26.1313 15.2163 26.1313 14.9937C26.1313 14.6954 26.0127 14.4092 25.8017 14.1983C25.5908 13.9873 25.3046 13.8688 25.0063 13.8688V13.8688ZM29.3188 16.1375C29.3005 15.3597 29.1548 14.5901 28.8875 13.8594C28.6491 13.2342 28.2781 12.6681 27.8 12.2C27.3358 11.7195 26.7683 11.3508 26.1406 11.1219C25.4119 10.8464 24.6414 10.6974 23.8625 10.6812C22.8688 10.625 22.55 10.625 20 10.625C17.45 10.625 17.1313 10.625 16.1375 10.6812C15.3586 10.6974 14.5881 10.8464 13.8594 11.1219C13.2328 11.3531 12.6659 11.7215 12.2 12.2C11.7195 12.6642 11.3508 13.2317 11.1219 13.8594C10.8464 14.5881 10.6974 15.3586 10.6812 16.1375C10.625 17.1313 10.625 17.45 10.625 20C10.625 22.55 10.625 22.8688 10.6812 23.8625C10.6974 24.6414 10.8464 25.4119 11.1219 26.1406C11.3508 26.7683 11.7195 27.3358 12.2 27.8C12.6659 28.2785 13.2328 28.6469 13.8594 28.8781C14.5881 29.1536 15.3586 29.3026 16.1375 29.3188C17.1313 29.375 17.45 29.375 20 29.375C22.55 29.375 22.8688 29.375 23.8625 29.3188C24.6414 29.3026 25.4119 29.1536 26.1406 28.8781C26.7683 28.6492 27.3358 28.2805 27.8 27.8C28.2802 27.3337 28.6516 26.7671 28.8875 26.1406C29.1548 25.4099 29.3005 24.6403 29.3188 23.8625C29.3188 22.8688 29.375 22.55 29.375 20C29.375 17.45 29.375 17.1313 29.3188 16.1375V16.1375ZM27.6312 23.75C27.6244 24.3451 27.5166 24.9347 27.3125 25.4938C27.1628 25.9017 26.9224 26.2704 26.6094 26.5719C26.3053 26.8817 25.9374 27.1217 25.5312 27.275C24.9722 27.4791 24.3826 27.5869 23.7875 27.5938C22.85 27.6406 22.5031 27.65 20.0375 27.65C17.5719 27.65 17.225 27.65 16.2875 27.5938C15.6696 27.6053 15.0543 27.5102 14.4687 27.3125C14.0804 27.1513 13.7294 26.912 13.4375 26.6094C13.1263 26.3082 12.8889 25.9392 12.7438 25.5312C12.5149 24.9642 12.3879 24.3612 12.3687 23.75C12.3687 22.8125 12.3125 22.4656 12.3125 20C12.3125 17.5344 12.3125 17.1875 12.3687 16.25C12.373 15.6416 12.484 15.0387 12.6969 14.4687C12.8619 14.073 13.1152 13.7203 13.4375 13.4375C13.7223 13.1152 14.0743 12.8592 14.4687 12.6875C15.0402 12.4813 15.6425 12.3735 16.25 12.3687C17.1875 12.3687 17.5344 12.3125 20 12.3125C22.4656 12.3125 22.8125 12.3125 23.75 12.3687C24.3451 12.3756 24.9347 12.4834 25.4938 12.6875C25.9198 12.8456 26.3021 13.1027 26.6094 13.4375C26.9166 13.7255 27.1567 14.0776 27.3125 14.4687C27.5209 15.0396 27.6287 15.6423 27.6312 16.25C27.6781 17.1875 27.6875 17.5344 27.6875 20C27.6875 22.4656 27.6781 22.8125 27.6312 23.75ZM20 15.1906C19.0492 15.1925 18.1203 15.4761 17.3306 16.0057C16.541 16.5353 15.926 17.2871 15.5634 18.166C15.2008 19.045 15.1069 20.0117 15.2936 20.944C15.4802 21.8763 15.939 22.7324 16.6119 23.404C17.2849 24.0757 18.1419 24.5328 19.0746 24.7176C20.0072 24.9025 20.9737 24.8067 21.852 24.4424C22.7303 24.0781 23.4808 23.4617 24.0089 22.671C24.5369 21.8803 24.8187 20.9508 24.8187 20C24.82 19.3673 24.6961 18.7406 24.4543 18.1559C24.2124 17.5712 23.8574 17.0401 23.4096 16.5932C22.9617 16.1462 22.43 15.7922 21.8448 15.5515C21.2597 15.3108 20.6327 15.1882 20 15.1906V15.1906ZM20 23.1219C19.3826 23.1219 18.779 22.9388 18.2656 22.5957C17.7522 22.2527 17.3521 21.7651 17.1158 21.1947C16.8795 20.6242 16.8177 19.9965 16.9381 19.391C17.0586 18.7854 17.3559 18.2291 17.7925 17.7925C18.2291 17.3559 18.7854 17.0586 19.391 16.9381C19.9965 16.8177 20.6242 16.8795 21.1947 17.1158C21.7651 17.3521 22.2527 17.7522 22.5957 18.2656C22.9388 18.779 23.1219 19.3826 23.1219 20C23.1219 20.41 23.0411 20.8159 22.8842 21.1947C22.7273 21.5735 22.4974 21.9176 22.2075 22.2075C21.9176 22.4974 21.5735 22.7273 21.1947 22.8842C20.8159 23.0411 20.41 23.1219 20 23.1219V23.1219Z"
        fill="currentColor" />
</svg>