<svg width="100%" height="100%" viewBox="0 0 100% 100%" fill="none" xmlns="http://www.w3.org/2000/svg">
<path d="M17.0063 5.86875C16.7837 5.86875 16.5662 5.93473 16.3812 6.05835C16.1962 6.18196 16.052 6.35766 15.9669 6.56323C15.8817 6.7688 15.8595 6.995 15.9029 7.21323C15.9463 7.43146 16.0534 7.63191 16.2108 7.78925C16.3681 7.94658 16.5685 8.05372 16.7868 8.09713C17.005 8.14054 17.2312 8.11826 17.4368 8.03311C17.6423 7.94797 17.818 7.80377 17.9417 7.61877C18.0653 7.43376 18.1313 7.21625 18.1313 6.99375C18.1313 6.69538 18.0127 6.40923 17.8017 6.19826C17.5908 5.98728 17.3046 5.86875 17.0063 5.86875ZM21.3188 8.1375C21.3005 7.35965 21.1548 6.59007 20.8875 5.85937C20.6491 5.23419 20.2781 4.66807 19.8 4.2C19.3358 3.71946 18.7683 3.35079 18.1406 3.12187C17.4119 2.8464 16.6414 2.69738 15.8625 2.68125C14.8688 2.625 14.55 2.625 12 2.625C9.45 2.625 9.13125 2.625 8.1375 2.68125C7.35858 2.69738 6.58813 2.8464 5.85937 3.12187C5.23282 3.35311 4.66588 3.72146 4.2 4.2C3.71946 4.66423 3.35079 5.23166 3.12187 5.85937C2.8464 6.58813 2.69738 7.35858 2.68125 8.1375C2.625 9.13125 2.625 9.45 2.625 12C2.625 14.55 2.625 14.8688 2.68125 15.8625C2.69738 16.6414 2.8464 17.4119 3.12187 18.1406C3.35079 18.7683 3.71946 19.3358 4.2 19.8C4.66588 20.2785 5.23282 20.6469 5.85937 20.8781C6.58813 21.1536 7.35858 21.3026 8.1375 21.3188C9.13125 21.375 9.45 21.375 12 21.375C14.55 21.375 14.8688 21.375 15.8625 21.3188C16.6414 21.3026 17.4119 21.1536 18.1406 20.8781C18.7683 20.6492 19.3358 20.2805 19.8 19.8C20.2802 19.3337 20.6516 18.7671 20.8875 18.1406C21.1548 17.4099 21.3005 16.6403 21.3188 15.8625C21.3188 14.8688 21.375 14.55 21.375 12C21.375 9.45 21.375 9.13125 21.3188 8.1375ZM19.6312 15.75C19.6244 16.3451 19.5166 16.9347 19.3125 17.4938C19.1628 17.9017 18.9224 18.2704 18.6094 18.5719C18.3053 18.8817 17.9374 19.1217 17.5312 19.275C16.9722 19.4791 16.3826 19.5869 15.7875 19.5938C14.85 19.6406 14.5031 19.65 12.0375 19.65C9.57187 19.65 9.225 19.65 8.2875 19.5938C7.66959 19.6053 7.05431 19.5102 6.46875 19.3125C6.08042 19.1513 5.7294 18.912 5.4375 18.6094C5.12633 18.3082 4.88892 17.9392 4.74375 17.5312C4.51487 16.9642 4.38792 16.3612 4.36875 15.75C4.36875 14.8125 4.3125 14.4656 4.3125 12C4.3125 9.53437 4.3125 9.1875 4.36875 8.25C4.37295 7.64161 4.48402 7.0387 4.69688 6.46875C4.86192 6.07304 5.11525 5.7203 5.4375 5.4375C5.72233 5.11516 6.07433 4.85915 6.46875 4.6875C7.0402 4.48129 7.6425 4.37351 8.25 4.36875C9.1875 4.36875 9.53437 4.3125 12 4.3125C14.4656 4.3125 14.8125 4.3125 15.75 4.36875C16.3451 4.37558 16.9347 4.48336 17.4938 4.6875C17.9198 4.84561 18.3021 5.10267 18.6094 5.4375C18.9166 5.72548 19.1567 6.07756 19.3125 6.46875C19.5209 7.03963 19.6287 7.64229 19.6312 8.25C19.6781 9.1875 19.6875 9.53437 19.6875 12C19.6875 14.4656 19.6781 14.8125 19.6312 15.75ZM12 7.19062C11.0492 7.19248 10.1203 7.47612 9.33061 8.0057C8.54095 8.53529 7.92598 9.28706 7.56341 10.166C7.20083 11.045 7.10693 12.0117 7.29356 12.944C7.48019 13.8763 7.93897 14.7324 8.61195 15.404C9.28492 16.0757 10.1419 16.5328 11.0746 16.7176C12.0072 16.9025 12.9737 16.8067 13.852 16.4424C14.7303 16.0781 15.4808 15.4617 16.0089 14.671C16.5369 13.8803 16.8187 12.9508 16.8187 12C16.82 11.3673 16.6961 10.7406 16.4543 10.1559C16.2124 9.57122 15.8574 9.04013 15.4096 8.59317C14.9617 8.14621 14.43 7.7922 13.8448 7.5515C13.2597 7.31079 12.6327 7.18815 12 7.19062ZM12 15.1219C11.3826 15.1219 10.779 14.9388 10.2656 14.5957C9.75219 14.2527 9.35205 13.7651 9.11576 13.1947C8.87948 12.6242 8.81765 11.9965 8.93811 11.391C9.05857 10.7854 9.3559 10.2291 9.7925 9.7925C10.2291 9.3559 10.7854 9.05857 11.391 8.93811C11.9965 8.81765 12.6242 8.87948 13.1947 9.11576C13.7651 9.35205 14.2527 9.75219 14.5957 10.2656C14.9388 10.779 15.1219 11.3826 15.1219 12C15.1219 12.41 15.0411 12.8159 14.8842 13.1947C14.7273 13.5735 14.4974 13.9176 14.2075 14.2075C13.9176 14.4974 13.5735 14.7273 13.1947 14.8842C12.8159 15.0411 12.41 15.1219 12 15.1219Z" fill="currentColor"/>
</svg>
