<svg xmlns="http://www.w3.org/2000/svg" width="15" height="14" viewBox="0 0 15 14" fill="none">
  <path
    d="M1.88037 7H2.4637M7.13037 1.75V2.33333M11.797 7H12.3804M7.13037 11.6667V12.25M3.39704 3.26667L3.80537 3.675M10.8637 3.26667L10.4554 3.675M10.4554 10.325L10.8637 10.7333M3.80537 10.325L3.39704 10.7333M4.79704 7C4.79704 7.61884 5.04287 8.21233 5.48046 8.64992C5.91804 9.0875 6.51153 9.33333 7.13037 9.33333C7.74921 9.33333 8.3427 9.0875 8.78029 8.64992C9.21787 8.21233 9.4637 7.61884 9.4637 7C9.4637 6.38116 9.21787 5.78767 8.78029 5.35008C8.3427 4.9125 7.74921 4.66667 7.13037 4.66667C6.51153 4.66667 5.91804 4.9125 5.48046 5.35008C5.04287 5.78767 4.79704 6.38116 4.79704 7Z"
    stroke="#1A433B" stroke-width="1.16667" stroke-linecap="round" stroke-linejoin="round" />
</svg>