<svg xmlns="http://www.w3.org/2000/svg" width="100%" height="100%" viewBox="0 0 100% 100%" fill="none">
    <path
        d="M27.0585 11.6664H12.9418C12.7831 11.6642 12.6255 11.6932 12.4781 11.7519C12.3307 11.8106 12.1962 11.8978 12.0825 12.0085C11.9687 12.1191 11.8779 12.2511 11.8151 12.3969C11.7524 12.5427 11.719 12.6994 11.7168 12.858V27.1414C11.719 27.3001 11.7524 27.4568 11.8151 27.6025C11.8779 27.7483 11.9687 27.8803 12.0825 27.9909C12.1962 28.1016 12.3307 28.1888 12.4781 28.2475C12.6255 28.3062 12.7831 28.3352 12.9418 28.333H27.0585C27.2171 28.3352 27.3747 28.3062 27.5222 28.2475C27.6696 28.1888 27.804 28.1016 27.9178 27.9909C28.0316 27.8803 28.1224 27.7483 28.1851 27.6025C28.2479 27.4568 28.2813 27.3001 28.2835 27.1414V12.858C28.2813 12.6994 28.2479 12.5427 28.1851 12.3969C28.1224 12.2511 28.0316 12.1191 27.9178 12.0085C27.804 11.8978 27.6696 11.8106 27.5222 11.7519C27.3747 11.6932 27.2171 11.6642 27.0585 11.6664ZM16.7418 25.6164H14.2418V18.1164H16.7418V25.6164ZM15.4918 17.0664C15.147 17.0664 14.8164 16.9294 14.5726 16.6856C14.3288 16.4418 14.1918 16.1112 14.1918 15.7664C14.1918 15.4216 14.3288 15.0909 14.5726 14.8471C14.8164 14.6033 15.147 14.4664 15.4918 14.4664C15.6749 14.4456 15.8603 14.4638 16.0359 14.5196C16.2114 14.5755 16.3732 14.6678 16.5107 14.7905C16.6481 14.9132 16.7581 15.0636 16.8334 15.2318C16.9086 15.3999 16.9476 15.5821 16.9476 15.7664C16.9476 15.9506 16.9086 16.1328 16.8334 16.301C16.7581 16.4691 16.6481 16.6195 16.5107 16.7422C16.3732 16.865 16.2114 16.9573 16.0359 17.0131C15.8603 17.069 15.6749 17.0871 15.4918 17.0664ZM25.7585 25.6164H23.2585V21.5914C23.2585 20.583 22.9001 19.9247 21.9918 19.9247C21.7107 19.9268 21.437 20.0149 21.2075 20.1774C20.978 20.3398 20.8039 20.5686 20.7085 20.833C20.6433 21.0289 20.615 21.2352 20.6251 21.4414V25.608H18.1251C18.1251 25.608 18.1251 18.7914 18.1251 18.108H20.6251V19.1664C20.8522 18.7723 21.1826 18.4476 21.5805 18.2274C21.9784 18.0071 22.4289 17.8996 22.8835 17.9164C24.5501 17.9164 25.7585 18.9914 25.7585 21.2997V25.6164Z"
        fill="currentColor" />
</svg>