<svg width="100%" height="100%" viewBox="0 0 100% 100%" fill="none" xmlns="http://www.w3.org/2000/svg">
    <path
        d="M17.0585 1.66638H2.9418C2.78311 1.66417 2.62555 1.69325 2.4781 1.75195C2.33066 1.81064 2.19622 1.89781 2.08246 2.00847C1.96871 2.11913 1.87786 2.25111 1.81512 2.39688C1.75238 2.54266 1.71897 2.69936 1.7168 2.85804V17.1414C1.71897 17.3001 1.75238 17.4568 1.81512 17.6025C1.87786 17.7483 1.96871 17.8803 2.08246 17.9909C2.19622 18.1016 2.33066 18.1888 2.4781 18.2475C2.62555 18.3062 2.78311 18.3352 2.9418 18.333H17.0585C17.2171 18.3352 17.3747 18.3062 17.5222 18.2475C17.6696 18.1888 17.804 18.1016 17.9178 17.9909C18.0316 17.8803 18.1224 17.7483 18.1851 17.6025C18.2479 17.4568 18.2813 17.3001 18.2835 17.1414V2.85804C18.2813 2.69936 18.2479 2.54266 18.1851 2.39688C18.1224 2.25111 18.0316 2.11913 17.9178 2.00847C17.804 1.89781 17.6696 1.81064 17.5222 1.75195C17.3747 1.69325 17.2171 1.66417 17.0585 1.66638ZM6.7418 15.6164H4.2418V8.11638H6.7418V15.6164ZM5.4918 7.06638C5.14702 7.06638 4.81635 6.92941 4.57256 6.68562C4.32876 6.44182 4.1918 6.11116 4.1918 5.76638C4.1918 5.4216 4.32876 5.09093 4.57256 4.84714C4.81635 4.60334 5.14702 4.46638 5.4918 4.46638C5.67488 4.44561 5.86028 4.46375 6.03586 4.51961C6.21144 4.57547 6.37325 4.66778 6.51068 4.79051C6.64811 4.91324 6.75807 5.06361 6.83336 5.23178C6.90864 5.39995 6.94756 5.58212 6.94756 5.76638C6.94756 5.95063 6.90864 6.1328 6.83336 6.30097C6.75807 6.46914 6.64811 6.61952 6.51068 6.74224C6.37325 6.86497 6.21144 6.95728 6.03586 7.01314C5.86028 7.069 5.67488 7.08714 5.4918 7.06638ZM15.7585 15.6164H13.2585V11.5914C13.2585 10.583 12.9001 9.92471 11.9918 9.92471C11.7107 9.92677 11.437 10.0149 11.2075 10.1774C10.978 10.3398 10.8039 10.5686 10.7085 10.833C10.6433 11.0289 10.615 11.2352 10.6251 11.4414V15.608H8.12513C8.12513 15.608 8.12513 8.79138 8.12513 8.10804H10.6251V9.16638C10.8522 8.7723 11.1826 8.44764 11.5805 8.22738C11.9784 8.00711 12.4289 7.89959 12.8835 7.91638C14.5501 7.91638 15.7585 8.99138 15.7585 11.2997V15.6164Z"
        fill="currentColor" />
</svg>