<svg width="20" height="20" viewBox="0 0 20 20" fill="none" xmlns="http://www.w3.org/2000/svg">
<g clip-path="url(#clip0_31_1038)">
<path fill-rule="evenodd" clip-rule="evenodd" d="M10.0002 6.66658C9.11611 6.66658 8.26826 7.01777 7.64314 7.6429C7.01802 8.26802 6.66683 9.11586 6.66683 9.99992C6.66683 10.884 7.01802 11.7318 7.64314 12.3569C8.26826 12.9821 9.11611 13.3333 10.0002 13.3333C10.8842 13.3333 11.7321 12.9821 12.3572 12.3569C12.9823 11.7318 13.3335 10.884 13.3335 9.99992C13.3335 9.11586 12.9823 8.26802 12.3572 7.6429C11.7321 7.01777 10.8842 6.66658 10.0002 6.66658ZM8.82165 8.82141C9.13421 8.50885 9.55813 8.33325 10.0002 8.33325C10.4422 8.33325 10.8661 8.50885 11.1787 8.82141C11.4912 9.13397 11.6668 9.55789 11.6668 9.99992C11.6668 10.4419 11.4912 10.8659 11.1787 11.1784C10.8661 11.491 10.4422 11.6666 10.0002 11.6666C9.55813 11.6666 9.13421 11.491 8.82165 11.1784C8.50909 10.8659 8.3335 10.4419 8.3335 9.99992C8.3335 9.55789 8.50909 9.13397 8.82165 8.82141Z" fill="currentColor"/>
<path fill-rule="evenodd" clip-rule="evenodd" d="M9.151 0.833252C8.77246 0.833252 8.44147 1.08839 8.34511 1.45446L7.92281 3.05879L6.58112 3.62438L5.55407 2.71065C5.22431 2.41728 4.723 2.4319 4.41091 2.744L2.74424 4.41066C2.44232 4.71258 2.41745 5.19386 2.68663 5.52529L3.58674 6.63354L3.03478 7.99148L1.47737 8.35507C1.10026 8.44311 0.833496 8.77933 0.833496 9.16658V10.8333C0.833496 11.209 1.08499 11.5383 1.44751 11.6372L3.05724 12.0763L3.62436 13.4217L2.71154 14.4453C2.41753 14.775 2.43188 15.2768 2.74424 15.5892L4.41091 17.2558C4.71323 17.5582 5.19531 17.5826 5.5267 17.3125L6.63457 16.4094L7.95912 16.9542L8.35886 18.5373C8.4523 18.9073 8.78517 19.1666 9.16683 19.1666H10.8335C11.215 19.1666 11.5478 18.9075 11.6414 18.5377L12.0421 16.954L13.411 16.387C13.5488 16.5025 13.7067 16.6382 13.864 16.7751C14.0202 16.9111 14.1654 17.0393 14.2716 17.1336C14.3247 17.1806 14.3679 17.2192 14.3978 17.2458L14.443 17.2863C14.7726 17.582 15.2764 17.5689 15.5894 17.2558L17.2561 15.5892C17.5628 15.2825 17.5829 14.7918 17.3024 14.4609L16.3947 13.3905L16.9564 12.0338L18.5431 11.6215C18.9104 11.526 19.1668 11.1944 19.1668 10.8149V9.16658C19.1668 8.78548 18.9083 8.45294 18.539 8.35898L16.9621 7.95779L16.4018 6.60437L17.3033 5.53788C17.5829 5.207 17.5624 4.71701 17.2561 4.41066L15.5894 2.744C15.2818 2.4364 14.7894 2.41715 14.4587 2.69979L13.4001 3.60465L11.999 3.02858L11.5853 1.45473C11.489 1.08852 11.158 0.833252 10.7793 0.833252H9.151ZM15.5348 14.9534L14.9647 15.5236L14.9584 15.5181C14.6507 15.2501 14.2542 14.911 14.0306 14.7512C13.7966 14.5839 13.4929 14.5491 13.2271 14.6592L11.0179 15.5742C10.7748 15.6749 10.5935 15.8845 10.529 16.1397L10.1848 17.4999H9.81589L9.4723 16.1392C9.40766 15.8832 9.22553 15.673 8.98135 15.5726L6.80969 14.6792C6.5269 14.5629 6.20313 14.6108 5.96612 14.804L5.05711 15.545L4.47926 14.9672L5.21878 14.1379C5.43287 13.8978 5.48967 13.556 5.36472 13.2595L4.43556 11.0554C4.33614 10.8196 4.13388 10.6425 3.88698 10.5751L2.50016 10.1968V9.82778L3.83378 9.51643C4.09724 9.45492 4.31445 9.26934 4.41632 9.01871L5.31632 6.80455C5.43079 6.52294 5.38284 6.20134 5.19119 5.96538L4.45409 5.05783L5.03356 4.47836L5.86625 5.21918C6.10632 5.43276 6.44778 5.48929 6.74387 5.36448L8.94803 4.43531C9.18627 4.33488 9.3644 4.12957 9.43021 3.87955L9.79336 2.49992H10.1367L10.4925 3.85344C10.559 4.10609 10.74 4.31298 10.9816 4.41232L13.2374 5.33981C13.5266 5.45872 13.8581 5.40572 14.0958 5.20255L14.9558 4.46742L15.5357 5.04726L14.8012 5.91613C14.6 6.15423 14.5484 6.48476 14.6677 6.77282L15.5819 8.98116C15.6824 9.22402 15.8916 9.40522 16.1464 9.47002L17.5002 9.81445V10.1705L16.1356 10.525C15.8826 10.5908 15.6752 10.7713 15.5752 11.0128L14.6602 13.2228C14.5408 13.5113 14.5926 13.8424 14.7946 14.0806L15.5348 14.9534Z" fill="currentColor"/>
</g>
<defs>
<clipPath id="clip0_31_1038">
<rect width="20" height="20" fill="white"/>
</clipPath>
</defs>
</svg>
