<svg width="100%" height="100%" viewBox="0 0 100% 100%" fill="none" xmlns="http://www.w3.org/2000/svg">
<g clip-path="url(#clip0_32_1183)">
<path d="M17.4999 5.83337C17.7123 5.83361 17.9166 5.91494 18.071 6.06075C18.2255 6.20656 18.3184 6.40584 18.3309 6.61787C18.3433 6.8299 18.2743 7.03869 18.138 7.20157C18.0017 7.36445 17.8083 7.46912 17.5974 7.49421L17.4999 7.50004V15.8334C17.7123 15.8336 17.9166 15.9149 18.071 16.0607C18.2255 16.2066 18.3184 16.4058 18.3309 16.6179C18.3433 16.8299 18.2743 17.0387 18.138 17.2016C18.0017 17.3644 17.8083 17.4691 17.5974 17.4942L17.4999 17.5H2.49989C2.28749 17.4998 2.0832 17.4185 1.92875 17.2727C1.7743 17.1269 1.68136 16.9276 1.66891 16.7155C1.65647 16.5035 1.72545 16.2947 1.86178 16.1318C1.9981 15.969 2.19148 15.8643 2.40239 15.8392L2.49989 15.8334V7.50004C2.28749 7.49981 2.0832 7.41848 1.92875 7.27267C1.7743 7.12686 1.68136 6.92758 1.66891 6.71555C1.65647 6.50351 1.72545 6.29472 1.86178 6.13185C1.9981 5.96897 2.19148 5.86429 2.40239 5.83921L2.49989 5.83337H17.4999ZM15.8332 7.50004H4.16656V15.8334H5.83322V10C5.83322 9.77903 5.92102 9.56707 6.0773 9.41079C6.23358 9.25451 6.44554 9.16671 6.66656 9.16671C6.88757 9.16671 7.09953 9.25451 7.25581 9.41079C7.41209 9.56707 7.49989 9.77903 7.49989 10V15.8334H9.16656V10C9.16656 9.77903 9.25435 9.56707 9.41063 9.41079C9.56692 9.25451 9.77888 9.16671 9.99989 9.16671C10.2209 9.16671 10.4329 9.25451 10.5891 9.41079C10.7454 9.56707 10.8332 9.77903 10.8332 10V15.8334H12.4999V10C12.4999 9.77903 12.5877 9.56707 12.744 9.41079C12.9002 9.25451 13.1122 9.16671 13.3332 9.16671C13.5542 9.16671 13.7662 9.25451 13.9225 9.41079C14.0788 9.56707 14.1666 9.77903 14.1666 10V15.8334H15.8332V7.50004ZM14.9999 3.33337C15.2209 3.33337 15.4329 3.42117 15.5891 3.57745C15.7454 3.73373 15.8332 3.94569 15.8332 4.16671C15.8332 4.38772 15.7454 4.59968 15.5891 4.75596C15.4329 4.91224 15.2209 5.00004 14.9999 5.00004H4.99989C4.77888 5.00004 4.56692 4.91224 4.41063 4.75596C4.25435 4.59968 4.16656 4.38772 4.16656 4.16671C4.16656 3.94569 4.25435 3.73373 4.41063 3.57745C4.56692 3.42117 4.77888 3.33337 4.99989 3.33337H14.9999Z" fill="currentColor"/>
</g>
<defs>
<clipPath id="clip0_32_1183">
<rect width="100%" height="100%" fill="currentColor"/>
</clipPath>
</defs>
</svg>
