<svg width="100%" height="100%" viewBox="0 0 100% 100%" fill="none" xmlns="http://www.w3.org/2000/svg">
<path d="M17.5 18.75H2.5C2.16848 18.75 1.85054 18.6183 1.61612 18.3839C1.3817 18.1495 1.25 17.8315 1.25 17.5V2.5C1.25 2.16848 1.3817 1.85054 1.61612 1.61612C1.85054 1.3817 2.16848 1.25 2.5 1.25H17.5C17.8315 1.25 18.1495 1.3817 18.3839 1.61612C18.6183 1.85054 18.75 2.16848 18.75 2.5V17.5C18.75 17.8315 18.6183 18.1495 18.3839 18.3839C18.1495 18.6183 17.8315 18.75 17.5 18.75ZM2.5 2.5V17.5H17.5V2.5H2.5Z" fill="currentColor"/>
<path d="M10.9375 8.125C10.5049 8.125 10.0819 7.99671 9.72219 7.75634C9.36246 7.51598 9.08208 7.17433 8.91651 6.77462C8.75095 6.37491 8.70763 5.93507 8.79203 5.51074C8.87644 5.08641 9.08478 4.69663 9.3907 4.3907C9.69663 4.08478 10.0864 3.87644 10.5107 3.79203C10.9351 3.70763 11.3749 3.75095 11.7746 3.91651C12.1743 4.08208 12.516 4.36246 12.7563 4.72219C12.9967 5.08192 13.125 5.50485 13.125 5.9375C13.1243 6.51746 12.8937 7.07347 12.4836 7.48357C12.0735 7.89366 11.5175 8.12434 10.9375 8.125ZM10.9375 5C10.7521 5 10.5708 5.05498 10.4167 5.158C10.2625 5.26101 10.1423 5.40743 10.0714 5.57874C10.0004 5.75004 9.98184 5.93854 10.018 6.1204C10.0542 6.30226 10.1435 6.4693 10.2746 6.60041C10.4057 6.73153 10.5727 6.82081 10.7546 6.85699C10.9365 6.89316 11.125 6.8746 11.2963 6.80364C11.4676 6.73268 11.614 6.61252 11.717 6.45835C11.82 6.30418 11.875 6.12292 11.875 5.9375C11.875 5.68886 11.7762 5.4504 11.6004 5.27459C11.4246 5.09877 11.1861 5 10.9375 5ZM9.0625 16.25C8.62985 16.25 8.20692 16.1217 7.84719 15.8813C7.48746 15.641 7.20708 15.2993 7.04151 14.8996C6.87595 14.4999 6.83263 14.0601 6.91703 13.6357C7.00144 13.2114 7.20978 12.8216 7.5157 12.5157C7.82163 12.2098 8.21141 12.0014 8.63574 11.917C9.06007 11.8326 9.49991 11.8759 9.89962 12.0415C10.2993 12.2071 10.641 12.4875 10.8813 12.8472C11.1217 13.2069 11.25 13.6299 11.25 14.0625C11.2493 14.6425 11.0187 15.1985 10.6086 15.6086C10.1985 16.0187 9.64246 16.2493 9.0625 16.25ZM9.0625 13.125C8.87708 13.125 8.69583 13.18 8.54165 13.283C8.38748 13.386 8.26732 13.5324 8.19636 13.7037C8.12541 13.875 8.10684 14.0635 8.14301 14.2454C8.17919 14.4273 8.26848 14.5943 8.39959 14.7254C8.5307 14.8565 8.69775 14.9458 8.8796 14.982C9.06146 15.0182 9.24996 14.9996 9.42127 14.9286C9.59257 14.8577 9.73899 14.7375 9.842 14.5833C9.94502 14.4292 10 14.2479 10 14.0625C10 13.8139 9.90123 13.5754 9.72541 13.3996C9.5496 13.2238 9.31114 13.125 9.0625 13.125ZM5.9375 11.25C5.50485 11.25 5.08192 11.1217 4.72219 10.8813C4.36246 10.641 4.08208 10.2993 3.91651 9.89962C3.75095 9.49991 3.70763 9.06007 3.79203 8.63574C3.87644 8.21141 4.08478 7.82163 4.3907 7.5157C4.69663 7.20978 5.08641 7.00144 5.51074 6.91703C5.93507 6.83263 6.37491 6.87595 6.77462 7.04151C7.17433 7.20708 7.51598 7.48746 7.75634 7.84719C7.99671 8.20692 8.125 8.62985 8.125 9.0625C8.12434 9.64246 7.89366 10.1985 7.48357 10.6086C7.07347 11.0187 6.51746 11.2493 5.9375 11.25ZM5.9375 8.125C5.75208 8.125 5.57083 8.17998 5.41665 8.283C5.26248 8.38601 5.14232 8.53243 5.07136 8.70374C5.00041 8.87504 4.98184 9.06354 5.01801 9.2454C5.05419 9.42726 5.14348 9.5943 5.27459 9.72541C5.4057 9.85652 5.57275 9.94581 5.7546 9.98199C5.93646 10.0182 6.12496 9.99959 6.29627 9.92864C6.46757 9.85768 6.61399 9.73752 6.717 9.58335C6.82002 9.42918 6.875 9.24792 6.875 9.0625C6.875 8.81386 6.77623 8.5754 6.60041 8.39959C6.4246 8.22377 6.18614 8.125 5.9375 8.125ZM14.0625 13.125C13.6299 13.125 13.2069 12.9967 12.8472 12.7563C12.4875 12.516 12.2071 12.1743 12.0415 11.7746C11.8759 11.3749 11.8326 10.9351 11.917 10.5107C12.0014 10.0864 12.2098 9.69663 12.5157 9.3907C12.8216 9.08478 13.2114 8.87644 13.6357 8.79203C14.0601 8.70763 14.4999 8.75095 14.8996 8.91651C15.2993 9.08208 15.641 9.36246 15.8813 9.72219C16.1217 10.0819 16.25 10.5049 16.25 10.9375C16.2493 11.5175 16.0187 12.0735 15.6086 12.4836C15.1985 12.8937 14.6425 13.1243 14.0625 13.125ZM14.0625 10C13.8771 10 13.6958 10.055 13.5417 10.158C13.3875 10.261 13.2673 10.4074 13.1964 10.5787C13.1254 10.75 13.1068 10.9385 13.143 11.1204C13.1792 11.3023 13.2685 11.4693 13.3996 11.6004C13.5307 11.7315 13.6977 11.8208 13.8796 11.857C14.0615 11.8932 14.25 11.8746 14.4213 11.8036C14.5926 11.7327 14.739 11.6125 14.842 11.4583C14.945 11.3042 15 11.1229 15 10.9375C15 10.6889 14.9012 10.4504 14.7254 10.2746C14.5496 10.0988 14.3111 10 14.0625 10Z" fill="currentColor"/>
</svg>
