<svg width="215" height="214" viewBox="0 0 215 214" fill="none" xmlns="http://www.w3.org/2000/svg">
<rect width="215" height="214" fill="#1E1E1E"/>
<path d="M-1196 -12551C-1196 -12552.1 -1195.1 -12553 -1194 -12553H2717C2718.1 -12553 2719 -12552.1 2719 -12551V3289C2719 3290.1 2718.1 3291 2717 3291H-1194C-1195.1 3291 -1196 3290.1 -1196 3289V-12551Z" fill="#2B2B2B"/>
<path d="M-1194 -12552H2717V-12554H-1194V-12552ZM2718 -12551V3289H2720V-12551H2718ZM2717 3290H-1194V3292H2717V3290ZM-1195 3289V-12551H-1197V3289H-1195ZM-1194 3290C-1194.55 3290 -1195 3289.55 -1195 3289H-1197C-1197 3290.66 -1195.66 3292 -1194 3292V3290ZM2718 3289C2718 3289.55 2717.55 3290 2717 3290V3292C2718.66 3292 2720 3290.66 2720 3289H2718ZM2717 -12552C2717.55 -12552 2718 -12551.6 2718 -12551H2720C2720 -12552.7 2718.66 -12554 2717 -12554V-12552ZM-1194 -12554C-1195.66 -12554 -1197 -12552.7 -1197 -12551H-1195C-1195 -12551.6 -1194.55 -12552 -1194 -12552V-12554Z" fill="white" fill-opacity="0.1"/>
<rect width="1440" height="1358" transform="translate(-756 -815)" fill="#F4FAF9"/>
<g filter="url(#filter0_d_0_1)">
<rect x="-442" y="-121" width="1099" height="577" rx="8" fill="white"/>
<line x1="-226" y1="109.5" x2="442" y2="109.5" stroke="#F58285" stroke-width="3" stroke-dasharray="4 4"/>
<path d="M8 107C8 52.0477 52.5477 7.5 107.5 7.5C162.452 7.5 207 52.0477 207 107C207 161.952 162.452 206.5 107.5 206.5C52.5477 206.5 8 161.952 8 107Z" fill="white"/>
<path d="M8 107C8 52.0477 52.5477 7.5 107.5 7.5C162.452 7.5 207 52.0477 207 107C207 161.952 162.452 206.5 107.5 206.5C52.5477 206.5 8 161.952 8 107Z" stroke="black" stroke-width="15"/>
<path d="M8 107C8 52.0477 52.5477 7.5 107.5 7.5C162.452 7.5 207 52.0477 207 107C207 161.952 162.452 206.5 107.5 206.5C52.5477 206.5 8 161.952 8 107Z" stroke="url(#paint0_linear_0_1)" stroke-width="15"/>
<path d="M63.6579 113.5C67.5552 113.5 71.1627 114.187 73.8608 115.368C75.2065 115.957 76.4023 116.702 77.2832 117.615C78.1 118.457 78.7063 119.514 78.8023 120.74L78.8158 121.079V137.921C78.8158 139.292 78.1741 140.464 77.2832 141.385C76.4023 142.298 75.2065 143.043 73.8608 143.632C71.1627 144.811 67.5552 145.5 63.6579 145.5C59.7606 145.5 56.1531 144.813 53.4549 143.632C52.1093 143.043 50.9135 142.298 50.0326 141.385C49.2158 140.543 48.6095 139.486 48.5135 138.26L48.5 137.921V121.079C48.5 119.708 49.1417 118.536 50.0326 117.615C50.9135 116.702 52.1093 115.957 53.4549 115.368C56.1531 114.189 59.7606 113.5 63.6579 113.5ZM75.4474 134.396C74.9371 134.702 74.4071 134.975 73.8608 135.211C71.1627 136.39 67.5552 137.079 63.6579 137.079C59.7606 137.079 56.1531 136.392 53.4549 135.211C52.9087 134.975 52.3787 134.702 51.8684 134.396V137.921C51.8684 138.177 51.9796 138.554 52.4545 139.044C52.9362 139.543 53.7143 140.068 54.8057 140.547C56.9851 141.5 60.1126 142.132 63.6579 142.132C67.2032 142.132 70.3307 141.5 72.5101 140.547C73.6015 140.068 74.3796 139.543 74.8613 139.044C75.3362 138.556 75.4474 138.177 75.4474 137.921V134.396ZM75.4474 125.975C74.9371 126.281 74.4071 126.554 73.8608 126.79C71.1627 127.969 67.5552 128.658 63.6579 128.658C59.7606 128.658 56.1531 127.971 53.4549 126.79C52.9087 126.554 52.3787 126.281 51.8684 125.975V129.5C51.8684 129.756 51.9796 130.133 52.4545 130.623C52.9362 131.122 53.7143 131.647 54.8057 132.126C56.9851 133.079 60.1126 133.711 63.6579 133.711C67.2032 133.711 70.3307 133.079 72.5101 132.126C73.6015 131.647 74.3796 131.122 74.8613 130.623C75.3362 130.135 75.4474 129.756 75.4474 129.5V125.975ZM63.6579 116.868C60.1126 116.868 56.9851 117.5 54.8057 118.453C53.7143 118.932 52.9362 119.457 52.4545 119.956C51.9796 120.444 51.8684 120.823 51.8684 121.079C51.8684 121.335 51.9796 121.712 52.4545 122.202C52.9362 122.701 53.7143 123.226 54.8057 123.705C56.9851 124.658 60.1126 125.289 63.6579 125.289C67.2032 125.289 70.3307 124.658 72.5101 123.705C73.6015 123.226 74.3796 122.701 74.8613 122.202C75.3362 121.714 75.4474 121.335 75.4474 121.079C75.4474 120.823 75.3362 120.446 74.8613 119.956C74.3796 119.457 73.6015 118.932 72.5101 118.453C70.3307 117.5 67.2032 116.868 63.6579 116.868Z" fill="url(#paint1_linear_0_1)"/>
<path d="M63.6579 113.5C67.5552 113.5 71.1627 114.187 73.8608 115.368C75.2065 115.957 76.4023 116.702 77.2832 117.615C78.1 118.457 78.7063 119.514 78.8023 120.74L78.8158 121.079V137.921C78.8158 139.292 78.1741 140.464 77.2832 141.385C76.4023 142.298 75.2065 143.043 73.8608 143.632C71.1627 144.811 67.5552 145.5 63.6579 145.5C59.7606 145.5 56.1531 144.813 53.4549 143.632C52.1093 143.043 50.9135 142.298 50.0326 141.385C49.2158 140.543 48.6095 139.486 48.5135 138.26L48.5 137.921V121.079C48.5 119.708 49.1417 118.536 50.0326 117.615C50.9135 116.702 52.1093 115.957 53.4549 115.368C56.1531 114.189 59.7606 113.5 63.6579 113.5ZM75.4474 134.396C74.9371 134.702 74.4071 134.975 73.8608 135.211C71.1627 136.39 67.5552 137.079 63.6579 137.079C59.7606 137.079 56.1531 136.392 53.4549 135.211C52.9087 134.975 52.3787 134.702 51.8684 134.396V137.921C51.8684 138.177 51.9796 138.554 52.4545 139.044C52.9362 139.543 53.7143 140.068 54.8057 140.547C56.9851 141.5 60.1126 142.132 63.6579 142.132C67.2032 142.132 70.3307 141.5 72.5101 140.547C73.6015 140.068 74.3796 139.543 74.8613 139.044C75.3362 138.556 75.4474 138.177 75.4474 137.921V134.396ZM75.4474 125.975C74.9371 126.281 74.4071 126.554 73.8608 126.79C71.1627 127.969 67.5552 128.658 63.6579 128.658C59.7606 128.658 56.1531 127.971 53.4549 126.79C52.9087 126.554 52.3787 126.281 51.8684 125.975V129.5C51.8684 129.756 51.9796 130.133 52.4545 130.623C52.9362 131.122 53.7143 131.647 54.8057 132.126C56.9851 133.079 60.1126 133.711 63.6579 133.711C67.2032 133.711 70.3307 133.079 72.5101 132.126C73.6015 131.647 74.3796 131.122 74.8613 130.623C75.3362 130.135 75.4474 129.756 75.4474 129.5V125.975ZM63.6579 116.868C60.1126 116.868 56.9851 117.5 54.8057 118.453C53.7143 118.932 52.9362 119.457 52.4545 119.956C51.9796 120.444 51.8684 120.823 51.8684 121.079C51.8684 121.335 51.9796 121.712 52.4545 122.202C52.9362 122.701 53.7143 123.226 54.8057 123.705C56.9851 124.658 60.1126 125.289 63.6579 125.289C67.2032 125.289 70.3307 124.658 72.5101 123.705C73.6015 123.226 74.3796 122.701 74.8613 122.202C75.3362 121.714 75.4474 121.335 75.4474 121.079C75.4474 120.823 75.3362 120.446 74.8613 119.956C74.3796 119.457 73.6015 118.932 72.5101 118.453C70.3307 117.5 67.2032 116.868 63.6579 116.868Z" fill="#45A996"/>
<path d="M109.5 109L113.25 105.25M113.25 105.25L109.5 101.5M113.25 105.25H95.75V109M99.5 114L95.75 117.75M95.75 117.75L99.5 121.5M95.75 117.75H113.25V114" stroke="#45A996" stroke-width="2.5" stroke-linecap="round" stroke-linejoin="round"/>
<path opacity="0.2" d="M154.125 89C154.125 99.1445 149.326 107.375 143.406 107.375C137.486 107.375 132.688 99.1445 132.688 89C132.688 78.8555 137.486 70.625 143.406 70.625C149.326 70.625 154.125 78.8555 154.125 89Z" fill="url(#paint2_linear_0_1)"/>
<path d="M161.496 75.236C159.186 71.2758 156.024 69.0938 152.594 69.0938H143.406C139.976 69.0938 136.814 71.2758 134.504 75.236C132.345 78.9359 131.156 83.832 131.156 89C131.156 94.168 132.345 99.0641 134.504 102.764C136.814 106.724 139.976 108.906 143.406 108.906H152.594C156.024 108.906 159.186 106.724 161.496 102.764C163.655 99.0641 164.844 94.168 164.844 89C164.844 83.832 163.655 78.9359 161.496 75.236ZM161.741 87.4688H155.616C155.496 84.3266 154.871 81.2242 153.763 78.2812H159.618C160.79 80.8423 161.563 84.0234 161.741 87.4688ZM157.798 75.2188H152.299C151.66 74.1091 150.888 73.0808 150.002 72.1562H152.594C154.508 72.1562 156.307 73.3047 157.798 75.2188ZM134.219 89C134.219 79.8699 138.43 72.1562 143.406 72.1562C148.383 72.1562 152.594 79.8699 152.594 89C152.594 98.1301 148.383 105.844 143.406 105.844C138.43 105.844 134.219 98.1301 134.219 89ZM152.594 105.844H150.008C150.894 104.919 151.665 103.891 152.305 102.781H157.804C156.307 104.695 154.508 105.844 152.594 105.844ZM159.618 99.7188H153.765C154.873 96.7758 155.498 93.6734 155.618 90.5312H161.743C161.563 93.9766 160.79 97.1577 159.618 99.7188Z" fill="url(#paint3_linear_0_1)"/>
</g>
<defs>
<filter id="filter0_d_0_1" x="-454" y="-127.5" width="1123" height="601" filterUnits="userSpaceOnUse" color-interpolation-filters="sRGB">
<feFlood flood-opacity="0" result="BackgroundImageFix"/>
<feColorMatrix in="SourceAlpha" type="matrix" values="0 0 0 0 0 0 0 0 0 0 0 0 0 0 0 0 0 0 127 0" result="hardAlpha"/>
<feOffset dy="5.5"/>
<feGaussianBlur stdDeviation="6"/>
<feColorMatrix type="matrix" values="0 0 0 0 0 0 0 0 0 0 0 0 0 0 0 0 0 0 0.05 0"/>
<feBlend mode="normal" in2="BackgroundImageFix" result="effect1_dropShadow_0_1"/>
<feBlend mode="normal" in="SourceGraphic" in2="effect1_dropShadow_0_1" result="shape"/>
</filter>
<linearGradient id="paint0_linear_0_1" x1="-21.5" y1="224.5" x2="372.5" y2="-18.5" gradientUnits="userSpaceOnUse">
<stop stop-color="#FFDA8C"/>
<stop offset="1" stop-color="#E6007A"/>
</linearGradient>
<linearGradient id="paint1_linear_0_1" x1="45.3834" y1="147.07" x2="102.821" y2="113.51" gradientUnits="userSpaceOnUse">
<stop stop-color="#FFDA8C"/>
<stop offset="1" stop-color="#E6007A"/>
</linearGradient>
<linearGradient id="paint2_linear_0_1" x1="130.484" y1="109.178" x2="178.722" y2="91.8233" gradientUnits="userSpaceOnUse">
<stop stop-color="#FFDA8C"/>
<stop offset="1" stop-color="#E6007A"/>
</linearGradient>
<linearGradient id="paint3_linear_0_1" x1="127.693" y1="110.86" x2="194.982" y2="75.7437" gradientUnits="userSpaceOnUse">
<stop stop-color="#FFDA8C"/>
<stop offset="1" stop-color="#E6007A"/>
</linearGradient>
</defs>
</svg>
