<svg width="215" height="214" viewBox="0 0 215 214" fill="none" xmlns="http://www.w3.org/2000/svg">
<rect width="215" height="214" fill="#1E1E1E"/>
<path d="M-862 -12551C-862 -12552.1 -861.105 -12553 -860 -12553H3051C3052.1 -12553 3053 -12552.1 3053 -12551V3289C3053 3290.1 3052.1 3291 3051 3291H-860C-861.105 3291 -862 3290.1 -862 3289V-12551Z" fill="#2B2B2B"/>
<path d="M-860 -12552H3051V-12554H-860V-12552ZM3052 -12551V3289H3054V-12551H3052ZM3051 3290H-860V3292H3051V3290ZM-861 3289V-12551H-863V3289H-861ZM-860 3290C-860.552 3290 -861 3289.55 -861 3289H-863C-863 3290.66 -861.657 3292 -860 3292V3290ZM3052 3289C3052 3289.55 3051.55 3290 3051 3290V3292C3052.66 3292 3054 3290.66 3054 3289H3052ZM3051 -12552C3051.55 -12552 3052 -12551.6 3052 -12551H3054C3054 -12552.7 3052.66 -12554 3051 -12554V-12552ZM-860 -12554C-861.657 -12554 -863 -12552.7 -863 -12551H-861C-861 -12551.6 -860.552 -12552 -860 -12552V-12554Z" fill="white" fill-opacity="0.1"/>
<rect width="1440" height="1358" transform="translate(-422 -815)" fill="#F4FAF9"/>
<g filter="url(#filter0_d_0_1)">
<rect x="-108" y="-121" width="1099" height="577" rx="8" fill="white"/>
<line x1="108" y1="109.5" x2="776" y2="109.5" stroke="#F58285" stroke-width="3" stroke-dasharray="4 4"/>
<rect x="8" y="7.5" width="199" height="199" rx="99.5" fill="white"/>
<rect x="8" y="7.5" width="199" height="199" rx="99.5" stroke="black" stroke-width="15"/>
<rect x="8" y="7.5" width="199" height="199" rx="99.5" stroke="url(#paint0_linear_0_1)" stroke-width="15"/>
<path d="M83.5 66.5C88.128 66.5 92.412 67.316 95.616 68.718C97.214 69.418 98.634 70.302 99.68 71.386C100.65 72.386 101.37 73.642 101.484 75.098L101.5 75.5V95.5C101.5 97.128 100.738 98.52 99.68 99.614C98.634 100.698 97.214 101.582 95.616 102.282C92.412 103.682 88.128 104.5 83.5 104.5C78.872 104.5 74.588 103.684 71.384 102.282C69.786 101.582 68.366 100.698 67.32 99.614C66.35 98.614 65.63 97.358 65.516 95.902L65.5 95.5V75.5C65.5 73.872 66.262 72.48 67.32 71.386C68.366 70.302 69.786 69.418 71.384 68.718C74.588 67.318 78.872 66.5 83.5 66.5ZM97.5 91.314C96.8941 91.6779 96.2647 92.0013 95.616 92.282C92.412 93.682 88.128 94.5 83.5 94.5C78.872 94.5 74.588 93.684 71.384 92.282C70.7353 92.0013 70.1059 91.6779 69.5 91.314V95.5C69.5 95.804 69.632 96.252 70.196 96.834C70.768 97.426 71.692 98.05 72.988 98.618C75.576 99.75 79.29 100.5 83.5 100.5C87.71 100.5 91.424 99.75 94.012 98.618C95.308 98.05 96.232 97.426 96.804 96.834C97.368 96.254 97.5 95.804 97.5 95.5V91.314ZM97.5 81.314C96.8941 81.6779 96.2647 82.0013 95.616 82.282C92.412 83.682 88.128 84.5 83.5 84.5C78.872 84.5 74.588 83.684 71.384 82.282C70.7353 82.0013 70.1059 81.6779 69.5 81.314V85.5C69.5 85.804 69.632 86.252 70.196 86.834C70.768 87.426 71.692 88.05 72.988 88.618C75.576 89.75 79.29 90.5 83.5 90.5C87.71 90.5 91.424 89.75 94.012 88.618C95.308 88.05 96.232 87.426 96.804 86.834C97.368 86.254 97.5 85.804 97.5 85.5V81.314ZM83.5 70.5C79.29 70.5 75.576 71.25 72.988 72.382C71.692 72.95 70.768 73.574 70.196 74.166C69.632 74.746 69.5 75.196 69.5 75.5C69.5 75.804 69.632 76.252 70.196 76.834C70.768 77.426 71.692 78.05 72.988 78.618C75.576 79.75 79.29 80.5 83.5 80.5C87.71 80.5 91.424 79.75 94.012 78.618C95.308 78.05 96.232 77.426 96.804 76.834C97.368 76.254 97.5 75.804 97.5 75.5C97.5 75.196 97.368 74.748 96.804 74.166C96.232 73.574 95.308 72.95 94.012 72.382C91.424 71.25 87.71 70.5 83.5 70.5Z" fill="url(#paint1_linear_0_1)"/>
<path d="M131.5 48.5C136.128 48.5 140.412 49.316 143.616 50.718C145.214 51.418 146.634 52.302 147.68 53.386C148.65 54.386 149.37 55.642 149.484 57.098L149.5 57.5V77.5C149.5 79.128 148.738 80.52 147.68 81.614C146.634 82.698 145.214 83.582 143.616 84.282C140.412 85.682 136.128 86.5 131.5 86.5C126.872 86.5 122.588 85.684 119.384 84.282C117.786 83.582 116.366 82.698 115.32 81.614C114.35 80.614 113.63 79.358 113.516 77.902L113.5 77.5V57.5C113.5 55.872 114.262 54.48 115.32 53.386C116.366 52.302 117.786 51.418 119.384 50.718C122.588 49.318 126.872 48.5 131.5 48.5ZM145.5 73.314C144.894 73.6779 144.265 74.0013 143.616 74.282C140.412 75.682 136.128 76.5 131.5 76.5C126.872 76.5 122.588 75.684 119.384 74.282C118.735 74.0013 118.106 73.6779 117.5 73.314V77.5C117.5 77.804 117.632 78.252 118.196 78.834C118.768 79.426 119.692 80.05 120.988 80.618C123.576 81.75 127.29 82.5 131.5 82.5C135.71 82.5 139.424 81.75 142.012 80.618C143.308 80.05 144.232 79.426 144.804 78.834C145.368 78.254 145.5 77.804 145.5 77.5V73.314ZM145.5 63.314C144.894 63.6779 144.265 64.0013 143.616 64.282C140.412 65.682 136.128 66.5 131.5 66.5C126.872 66.5 122.588 65.684 119.384 64.282C118.735 64.0013 118.106 63.6779 117.5 63.314V67.5C117.5 67.804 117.632 68.252 118.196 68.834C118.768 69.426 119.692 70.05 120.988 70.618C123.576 71.75 127.29 72.5 131.5 72.5C135.71 72.5 139.424 71.75 142.012 70.618C143.308 70.05 144.232 69.426 144.804 68.834C145.368 68.254 145.5 67.804 145.5 67.5V63.314ZM131.5 52.5C127.29 52.5 123.576 53.25 120.988 54.382C119.692 54.95 118.768 55.574 118.196 56.166C117.632 56.746 117.5 57.196 117.5 57.5C117.5 57.804 117.632 58.252 118.196 58.834C118.768 59.426 119.692 60.05 120.988 60.618C123.576 61.75 127.29 62.5 131.5 62.5C135.71 62.5 139.424 61.75 142.012 60.618C143.308 60.05 144.232 59.426 144.804 58.834C145.368 58.254 145.5 57.804 145.5 57.5C145.5 57.196 145.368 56.748 144.804 56.166C144.232 55.574 143.308 54.95 142.012 54.382C139.424 53.25 135.71 52.5 131.5 52.5Z" fill="url(#paint2_linear_0_1)"/>
<path d="M107.5 138.646C97.2515 138.646 89.1665 143.111 89.1665 148.874V156.126C89.1665 161.857 97.2148 166.354 107.5 166.354C117.785 166.354 125.833 161.857 125.833 156.126V148.89C125.833 143.142 117.712 138.646 107.5 138.646ZM123.083 156.062C123.083 160.321 115.952 163.979 107.5 163.979C99.0482 163.979 91.9165 160.385 91.9165 156.062V154.241C95.1798 157.202 101.083 158.991 107.5 158.991C113.917 158.991 119.838 157.123 123.083 154.241V156.062Z" fill="url(#paint3_linear_0_1)"/>
<path fill-rule="evenodd" clip-rule="evenodd" d="M101.44 117.19C101.721 116.909 102.103 116.752 102.5 116.752C102.898 116.752 103.279 116.909 103.56 117.19L107.5 121.128L111.44 117.188C111.723 116.915 112.102 116.764 112.495 116.768C112.889 116.771 113.265 116.929 113.543 117.208C113.821 117.486 113.978 117.862 113.982 118.255C113.985 118.649 113.834 119.028 113.56 119.31L108.56 124.31C108.279 124.591 107.898 124.749 107.5 124.749C107.103 124.749 106.721 124.591 106.44 124.31L101.44 119.31C101.301 119.171 101.19 119.006 101.115 118.824C101.039 118.642 101 118.446 101 118.249C101 118.052 101.039 117.857 101.115 117.675C101.19 117.493 101.301 117.328 101.44 117.188L101.44 117.19ZM101.44 111.19C101.721 110.909 102.103 110.752 102.5 110.752C102.898 110.752 103.279 110.909 103.56 111.19L107.5 115.128L111.44 111.188C111.723 110.915 112.102 110.764 112.495 110.768C112.889 110.771 113.265 110.929 113.543 111.208C113.821 111.486 113.978 111.862 113.982 112.255C113.985 112.649 113.834 113.028 113.56 113.31L108.56 118.31C108.279 118.591 107.898 118.749 107.5 118.749C107.103 118.749 106.721 118.591 106.44 118.31L101.44 113.31C101.301 113.171 101.19 113.006 101.115 112.824C101.039 112.642 101 112.446 101 112.249C101 112.052 101.039 111.857 101.115 111.675C101.19 111.493 101.301 111.328 101.44 111.188L101.44 111.19Z" fill="url(#paint4_linear_0_1)"/>
</g>
<defs>
<filter id="filter0_d_0_1" x="-120" y="-127.5" width="1123" height="601" filterUnits="userSpaceOnUse" color-interpolation-filters="sRGB">
<feFlood flood-opacity="0" result="BackgroundImageFix"/>
<feColorMatrix in="SourceAlpha" type="matrix" values="0 0 0 0 0 0 0 0 0 0 0 0 0 0 0 0 0 0 127 0" result="hardAlpha"/>
<feOffset dy="5.5"/>
<feGaussianBlur stdDeviation="6"/>
<feColorMatrix type="matrix" values="0 0 0 0 0 0 0 0 0 0 0 0 0 0 0 0 0 0 0.05 0"/>
<feBlend mode="normal" in2="BackgroundImageFix" result="effect1_dropShadow_0_1"/>
<feBlend mode="normal" in="SourceGraphic" in2="effect1_dropShadow_0_1" result="shape"/>
</filter>
<linearGradient id="paint0_linear_0_1" x1="-21.5" y1="224.5" x2="372.5" y2="-18.5" gradientUnits="userSpaceOnUse">
<stop stop-color="#FFDA8C"/>
<stop offset="1" stop-color="#E6007A"/>
</linearGradient>
<linearGradient id="paint1_linear_0_1" x1="61.7991" y1="106.364" x2="130.006" y2="66.5119" gradientUnits="userSpaceOnUse">
<stop stop-color="#FFDA8C"/>
<stop offset="1" stop-color="#E6007A"/>
</linearGradient>
<linearGradient id="paint2_linear_0_1" x1="109.799" y1="88.3645" x2="178.006" y2="48.5119" gradientUnits="userSpaceOnUse">
<stop stop-color="#FFDA8C"/>
<stop offset="1" stop-color="#E6007A"/>
</linearGradient>
<linearGradient id="paint3_linear_0_1" x1="107.5" y1="138.646" x2="107.5" y2="196.499" gradientUnits="userSpaceOnUse">
<stop stop-color="#45A996"/>
<stop offset="1" stop-color="#1B433B"/>
</linearGradient>
<linearGradient id="paint4_linear_0_1" x1="120" y1="145.001" x2="97.3266" y2="101.755" gradientUnits="userSpaceOnUse">
<stop stop-color="#E6007A"/>
<stop offset="1" stop-color="#FFDA8C"/>
</linearGradient>
</defs>
</svg>
