<svg width="215" height="214" viewBox="0 0 215 214" fill="none" xmlns="http://www.w3.org/2000/svg">
<rect width="215" height="214" fill="#1E1E1E"/>
<path d="M-1530 -12551C-1530 -12552.1 -1529.1 -12553 -1528 -12553H2383C2384.1 -12553 2385 -12552.1 2385 -12551V3289C2385 3290.1 2384.1 3291 2383 3291H-1528C-1529.1 3291 -1530 3290.1 -1530 3289V-12551Z" fill="#2B2B2B"/>
<path d="M-1528 -12552H2383V-12554H-1528V-12552ZM2384 -12551V3289H2386V-12551H2384ZM2383 3290H-1528V3292H2383V3290ZM-1529 3289V-12551H-1531V3289H-1529ZM-1528 3290C-1528.55 3290 -1529 3289.55 -1529 3289H-1531C-1531 3290.66 -1529.66 3292 -1528 3292V3290ZM2384 3289C2384 3289.55 2383.55 3290 2383 3290V3292C2384.66 3292 2386 3290.66 2386 3289H2384ZM2383 -12552C2383.55 -12552 2384 -12551.6 2384 -12551H2386C2386 -12552.7 2384.66 -12554 2383 -12554V-12552ZM-1528 -12554C-1529.66 -12554 -1531 -12552.7 -1531 -12551H-1529C-1529 -12551.6 -1528.55 -12552 -1528 -12552V-12554Z" fill="white" fill-opacity="0.1"/>
<rect width="1440" height="1358" transform="translate(-1090 -815)" fill="#F4FAF9"/>
<g filter="url(#filter0_d_0_1)">
<rect x="-776" y="-121" width="1099" height="577" rx="8" fill="white"/>
<line x1="-560" y1="109.5" x2="108" y2="109.5" stroke="#F58285" stroke-width="3" stroke-dasharray="4 4"/>
<path d="M8 107C8 52.0477 52.5477 7.5 107.5 7.5C162.452 7.5 207 52.0477 207 107C207 161.952 162.452 206.5 107.5 206.5C52.5477 206.5 8 161.952 8 107Z" fill="white"/>
<path d="M8 107C8 52.0477 52.5477 7.5 107.5 7.5C162.452 7.5 207 52.0477 207 107C207 161.952 162.452 206.5 107.5 206.5C52.5477 206.5 8 161.952 8 107Z" stroke="black" stroke-width="15"/>
<path d="M8 107C8 52.0477 52.5477 7.5 107.5 7.5C162.452 7.5 207 52.0477 207 107C207 161.952 162.452 206.5 107.5 206.5C52.5477 206.5 8 161.952 8 107Z" stroke="url(#paint0_linear_0_1)" stroke-width="15"/>
<path opacity="0.2" d="M95.6562 140.875C95.6562 148.432 92.0818 154.562 87.6719 154.562C83.2619 154.562 79.6875 148.432 79.6875 140.875C79.6875 133.318 83.2619 127.188 87.6719 127.188C92.0818 127.188 95.6562 133.318 95.6562 140.875Z" fill="#45A996"/>
<path d="M101.147 130.622C99.426 127.672 97.0706 126.047 94.5156 126.047H87.6719C85.1169 126.047 82.7615 127.672 81.0406 130.622C79.4323 133.378 78.5469 137.025 78.5469 140.875C78.5469 144.725 79.4323 148.372 81.0406 151.128C82.7615 154.078 85.1169 155.703 87.6719 155.703H94.5156C97.0706 155.703 99.426 154.078 101.147 151.128C102.755 148.372 103.641 144.725 103.641 140.875C103.641 137.025 102.755 133.378 101.147 130.622ZM101.329 139.734H96.7669C96.6778 137.394 96.2117 135.083 95.3868 132.891H99.7482C100.621 134.798 101.197 137.168 101.329 139.734ZM98.3923 130.609H94.2961C93.8198 129.783 93.2453 129.017 92.5851 128.328H94.5156C95.9414 128.328 97.2816 129.184 98.3923 130.609ZM80.8281 140.875C80.8281 134.074 83.9648 128.328 87.6719 128.328C91.3789 128.328 94.5156 134.074 94.5156 140.875C94.5156 147.676 91.3789 153.422 87.6719 153.422C83.9648 153.422 80.8281 147.676 80.8281 140.875ZM94.5156 153.422H92.5894C93.2496 152.733 93.8241 151.967 94.3003 151.141H98.3966C97.2816 152.566 95.9414 153.422 94.5156 153.422ZM99.7482 148.859H95.3882C96.2132 146.667 96.6792 144.356 96.7684 142.016H101.331C101.197 144.582 100.621 146.952 99.7482 148.859Z" fill="#45A996"/>
<g clip-path="url(#clip0_0_1)">
<path fill-rule="evenodd" clip-rule="evenodd" d="M73.5818 82.4202C73.7087 82.2762 73.8732 82.1703 74.0568 82.1143C74.2404 82.0584 74.436 82.0545 74.6217 82.1033C76.9189 82.7019 80.4486 84.2575 83.4232 87.027C86.4205 89.8214 88.8731 93.8752 88.8731 99.4038C88.8731 101.593 88.3822 104.272 86.6815 106.49C84.954 108.748 82.0892 110.384 77.6439 110.66H77.6315C71.7072 110.958 67.5477 107.88 65.8761 103.64C64.219 99.437 65.0496 94.2087 68.7844 90.2419C68.8832 90.1367 69.0029 90.0532 69.1358 89.997C69.2688 89.9407 69.412 89.9128 69.5563 89.9152C69.7006 89.9175 69.8429 89.95 69.9739 90.0105C70.105 90.0711 70.2219 90.1584 70.3172 90.2668L72.9376 93.2413C73.8967 91.5303 74.3627 90.0389 74.4332 88.5454C74.5057 87.027 74.1701 85.4238 73.3975 83.4911C73.3262 83.3129 73.306 83.1183 73.3389 82.9292C73.3718 82.7401 73.4566 82.5639 73.5839 82.4202H73.5818ZM73.4782 98.1734C73.4782 97.9694 73.5184 97.7674 73.5965 97.5789C73.6746 97.3904 73.789 97.2191 73.9333 97.0749C74.0775 96.9306 74.2488 96.8162 74.4373 96.7381C74.6258 96.66 74.8278 96.6198 75.0318 96.6198C75.2358 96.6198 75.4378 96.66 75.6263 96.7381C75.8148 96.8162 75.9861 96.9306 76.1304 97.0749C76.2746 97.2191 76.389 97.3904 76.4671 97.5789C76.5452 97.7674 76.5854 97.9694 76.5854 98.1734C76.5854 98.5854 76.4217 98.9806 76.1304 99.2719C75.839 99.5633 75.4438 99.727 75.0318 99.727C74.6198 99.727 74.2246 99.5633 73.9333 99.2719C73.6419 98.9806 73.4782 98.5854 73.4782 98.1734ZM81.7432 98.4344C81.8394 98.3381 81.9157 98.2238 81.9676 98.098C82.0196 97.9723 82.0463 97.8375 82.0462 97.7014C82.0461 97.5653 82.0192 97.4306 81.9671 97.3049C81.9149 97.1792 81.8385 97.065 81.7422 96.9689C81.6459 96.8727 81.5316 96.7965 81.4058 96.7445C81.2801 96.6925 81.1453 96.6658 81.0092 96.6659C80.8731 96.666 80.7384 96.6929 80.6127 96.745C80.487 96.7972 80.3728 96.8736 80.2767 96.9699L73.4762 103.77C73.3772 103.866 73.2983 103.98 73.2441 104.107C73.1898 104.233 73.1612 104.369 73.16 104.506C73.1588 104.644 73.185 104.78 73.2371 104.908C73.2892 105.035 73.3661 105.15 73.4633 105.248C73.5606 105.345 73.6762 105.422 73.8035 105.474C73.9308 105.526 74.0672 105.552 74.2047 105.551C74.3422 105.55 74.4781 105.521 74.6045 105.467C74.7308 105.413 74.8451 105.334 74.9407 105.235L81.7432 98.4344ZM78.9882 104.033C78.9882 103.621 79.1519 103.226 79.4433 102.935C79.7346 102.644 80.1298 102.48 80.5418 102.48C80.9538 102.48 81.349 102.644 81.6404 102.935C81.9317 103.226 82.0954 103.621 82.0954 104.033C82.0954 104.446 81.9317 104.841 81.6404 105.132C81.349 105.423 80.9538 105.587 80.5418 105.587C80.1298 105.587 79.7346 105.423 79.4433 105.132C79.1519 104.841 78.9882 104.446 78.9882 104.033Z" fill="url(#paint1_linear_0_1)"/>
</g>
<g clip-path="url(#clip1_0_1)">
<path fill-rule="evenodd" clip-rule="evenodd" d="M127.957 120.17C128.084 120.026 128.248 119.92 128.432 119.864C128.615 119.808 128.811 119.805 128.997 119.853C131.294 120.452 134.824 122.008 137.798 124.777C140.796 127.571 143.248 131.625 143.248 137.154C143.248 139.343 142.757 142.022 141.057 144.24C139.329 146.498 136.464 148.134 132.019 148.41H132.006C126.082 148.708 121.923 145.63 120.251 141.39C118.594 137.187 119.425 131.959 123.159 127.992C123.258 127.887 123.378 127.803 123.511 127.747C123.644 127.691 123.787 127.663 123.931 127.665C124.076 127.668 124.218 127.7 124.349 127.761C124.48 127.821 124.597 127.908 124.692 128.017L127.313 130.991C128.272 129.28 128.738 127.789 128.808 126.295C128.881 124.777 128.545 123.174 127.772 121.241C127.701 121.063 127.681 120.868 127.714 120.679C127.747 120.49 127.832 120.314 127.959 120.17H127.957ZM127.853 135.923C127.853 135.719 127.893 135.517 127.971 135.329C128.05 135.14 128.164 134.969 128.308 134.825C128.453 134.681 128.624 134.566 128.812 134.488C129.001 134.41 129.203 134.37 129.407 134.37C129.611 134.37 129.813 134.41 130.001 134.488C130.19 134.566 130.361 134.681 130.505 134.825C130.65 134.969 130.764 135.14 130.842 135.329C130.92 135.517 130.96 135.719 130.96 135.923C130.96 136.335 130.797 136.731 130.505 137.022C130.214 137.313 129.819 137.477 129.407 137.477C128.995 137.477 128.6 137.313 128.308 137.022C128.017 136.731 127.853 136.335 127.853 135.923ZM136.118 136.184C136.214 136.088 136.291 135.974 136.343 135.848C136.395 135.722 136.421 135.588 136.421 135.451C136.421 135.315 136.394 135.181 136.342 135.055C136.29 134.929 136.214 134.815 136.117 134.719C136.021 134.623 135.907 134.546 135.781 134.494C135.655 134.442 135.52 134.416 135.384 134.416C135.248 134.416 135.113 134.443 134.988 134.495C134.862 134.547 134.748 134.624 134.652 134.72L127.851 141.52C127.752 141.616 127.673 141.73 127.619 141.857C127.565 141.983 127.536 142.119 127.535 142.256C127.534 142.394 127.56 142.53 127.612 142.658C127.664 142.785 127.741 142.9 127.838 142.998C127.936 143.095 128.051 143.172 128.179 143.224C128.306 143.276 128.442 143.302 128.58 143.301C128.717 143.3 128.853 143.271 128.979 143.217C129.106 143.163 129.22 143.084 129.316 142.985L136.118 136.184ZM133.363 141.783C133.363 141.371 133.527 140.976 133.818 140.685C134.11 140.394 134.505 140.23 134.917 140.23C135.329 140.23 135.724 140.394 136.015 140.685C136.307 140.976 136.47 141.371 136.47 141.783C136.47 142.196 136.307 142.591 136.015 142.882C135.724 143.173 135.329 143.337 134.917 143.337C134.505 143.337 134.11 143.173 133.818 142.882C133.527 142.591 133.363 142.196 133.363 141.783Z" fill="url(#paint2_linear_0_1)"/>
</g>
<path fill-rule="evenodd" clip-rule="evenodd" d="M124.622 55.7242C124.82 55.4995 125.077 55.3343 125.363 55.247C125.65 55.1596 125.955 55.1537 126.244 55.2297C129.829 56.1638 135.336 58.5911 139.978 62.9125C144.655 67.2727 148.482 73.598 148.482 82.2245C148.482 85.6409 147.716 89.8201 145.062 93.2817C142.366 96.8047 137.896 99.3581 130.96 99.788H130.941C121.697 100.253 115.207 95.4505 112.598 88.8343C110.013 82.2763 111.309 74.1183 117.136 67.9288C117.29 67.7646 117.477 67.6344 117.685 67.5466C117.892 67.4588 118.116 67.4153 118.341 67.419C118.566 67.4226 118.788 67.4733 118.992 67.5678C119.197 67.6623 119.379 67.7984 119.528 67.9676L123.617 72.6089C125.113 69.9392 125.84 67.612 125.95 65.2817C126.063 62.9125 125.54 60.4108 124.334 57.3952C124.223 57.1171 124.191 56.8136 124.243 56.5185C124.294 56.2234 124.427 55.9484 124.625 55.7242H124.622ZM124.46 80.3046C124.46 79.9863 124.523 79.6711 124.645 79.377C124.767 79.0829 124.945 78.8156 125.17 78.5905C125.395 78.3654 125.663 78.1869 125.957 78.0651C126.251 77.9432 126.566 77.8805 126.884 77.8805C127.203 77.8805 127.518 77.9432 127.812 78.0651C128.106 78.1869 128.373 78.3654 128.598 78.5905C128.824 78.8156 129.002 79.0829 129.124 79.377C129.246 79.6711 129.308 79.9863 129.308 80.3046C129.308 80.9476 129.053 81.5641 128.598 82.0188C128.144 82.4734 127.527 82.7288 126.884 82.7288C126.241 82.7288 125.625 82.4734 125.17 82.0188C124.716 81.5641 124.46 80.9476 124.46 80.3046ZM137.357 80.7119C137.507 80.5616 137.626 80.3833 137.707 80.1871C137.788 79.9908 137.829 79.7805 137.829 79.5682C137.829 79.3559 137.787 79.1456 137.706 78.9495C137.624 78.7534 137.505 78.5752 137.355 78.4252C137.205 78.2751 137.026 78.1561 136.83 78.075C136.634 77.9939 136.424 77.9522 136.211 77.9524C135.999 77.9525 135.789 77.9945 135.593 78.0759C135.396 78.1573 135.218 78.2765 135.068 78.4268L124.457 89.0379C124.303 89.187 124.18 89.3653 124.095 89.5625C124.01 89.7596 123.966 89.9717 123.964 90.1863C123.962 90.4009 124.003 90.6137 124.084 90.8123C124.165 91.0109 124.285 91.1913 124.437 91.3431C124.589 91.4948 124.769 91.6148 124.968 91.696C125.166 91.7773 125.379 91.8182 125.594 91.8163C125.808 91.8145 126.02 91.7699 126.218 91.6852C126.415 91.6005 126.593 91.4774 126.742 91.323L137.357 80.7119ZM133.058 89.4484C133.058 88.8055 133.313 88.1889 133.768 87.7343C134.222 87.2797 134.839 87.0243 135.482 87.0243C136.125 87.0243 136.741 87.2797 137.196 87.7343C137.651 88.1889 137.906 88.8055 137.906 89.4484C137.906 90.0913 137.651 90.7079 137.196 91.1625C136.741 91.6171 136.125 91.8725 135.482 91.8725C134.839 91.8725 134.222 91.6171 133.768 91.1625C133.313 90.7079 133.058 90.0913 133.058 89.4484Z" fill="url(#paint3_linear_0_1)"/>
</g>
<defs>
<filter id="filter0_d_0_1" x="-788" y="-127.5" width="1123" height="601" filterUnits="userSpaceOnUse" color-interpolation-filters="sRGB">
<feFlood flood-opacity="0" result="BackgroundImageFix"/>
<feColorMatrix in="SourceAlpha" type="matrix" values="0 0 0 0 0 0 0 0 0 0 0 0 0 0 0 0 0 0 127 0" result="hardAlpha"/>
<feOffset dy="5.5"/>
<feGaussianBlur stdDeviation="6"/>
<feColorMatrix type="matrix" values="0 0 0 0 0 0 0 0 0 0 0 0 0 0 0 0 0 0 0.05 0"/>
<feBlend mode="normal" in2="BackgroundImageFix" result="effect1_dropShadow_0_1"/>
<feBlend mode="normal" in="SourceGraphic" in2="effect1_dropShadow_0_1" result="shape"/>
</filter>
<linearGradient id="paint0_linear_0_1" x1="-21.5" y1="224.5" x2="372.5" y2="-18.5" gradientUnits="userSpaceOnUse">
<stop stop-color="#FFDA8C"/>
<stop offset="1" stop-color="#E6007A"/>
</linearGradient>
<linearGradient id="paint1_linear_0_1" x1="62.6152" y1="112.084" x2="110.51" y2="87.5009" gradientUnits="userSpaceOnUse">
<stop stop-color="#FFDA8C"/>
<stop offset="1" stop-color="#E6007A"/>
</linearGradient>
<linearGradient id="paint2_linear_0_1" x1="116.99" y1="149.834" x2="164.885" y2="125.251" gradientUnits="userSpaceOnUse">
<stop stop-color="#FFDA8C"/>
<stop offset="1" stop-color="#E6007A"/>
</linearGradient>
<linearGradient id="paint3_linear_0_1" x1="107.51" y1="102.01" x2="182.242" y2="63.6519" gradientUnits="userSpaceOnUse">
<stop stop-color="#FFDA8C"/>
<stop offset="1" stop-color="#E6007A"/>
</linearGradient>
<clipPath id="clip0_0_1">
<rect width="29" height="29" fill="white" transform="translate(62.4688 81.875)"/>
</clipPath>
<clipPath id="clip1_0_1">
<rect width="29" height="29" fill="white" transform="translate(116.844 119.625)"/>
</clipPath>
</defs>
</svg>
