<svg width="25" height="24" viewBox="0 0 25 24" fill="none" xmlns="http://www.w3.org/2000/svg">
<rect width="25" height="24" rx="4" fill="#45A996" fill-opacity="0.1"/>
<path d="M11.0663 15.0667L15.7663 10.3667L14.833 9.43337L11.0663 13.2L9.16634 11.3L8.23301 12.2334L11.0663 15.0667ZM11.9997 18.6667C11.0775 18.6667 10.2108 18.4916 9.39968 18.1414C8.58856 17.7912 7.88301 17.3163 7.28301 16.7167C6.68301 16.1172 6.20812 15.4116 5.85834 14.6C5.50856 13.7885 5.33345 12.9218 5.33301 12C5.33256 11.0783 5.50768 10.2116 5.85834 9.40004C6.20901 8.58849 6.6839 7.88293 7.28301 7.28337C7.88212 6.68382 8.58768 6.20893 9.39968 5.85871C10.2117 5.50849 11.0783 5.33337 11.9997 5.33337C12.921 5.33337 13.7877 5.50849 14.5997 5.85871C15.4117 6.20893 16.1172 6.68382 16.7163 7.28337C17.3155 7.88293 17.7906 8.58849 18.1417 9.40004C18.4928 10.2116 18.6677 11.0783 18.6663 12C18.665 12.9218 18.4899 13.7885 18.141 14.6C17.7921 15.4116 17.3172 16.1172 16.7163 16.7167C16.1155 17.3163 15.4099 17.7914 14.5997 18.142C13.7895 18.4927 12.9228 18.6676 11.9997 18.6667Z" fill="#45A996"/>
</svg>
