<svg width="18" height="16" viewBox="0 0 18 16" fill="none" xmlns="http://www.w3.org/2000/svg">
<path d="M15.6665 3.83333V2.16667C15.6665 1.2475 14.919 0.5 13.9998 0.5H3.1665C1.78817 0.5 0.666504 1.62167 0.666504 3V13C0.666504 14.8342 2.1615 15.5 3.1665 15.5H15.6665C16.5857 15.5 17.3332 14.7525 17.3332 13.8333V5.5C17.3332 4.58083 16.5857 3.83333 15.6665 3.83333ZM3.1665 2.16667H13.9998V3.83333H3.1665C2.95194 3.82374 2.74934 3.73174 2.6009 3.57651C2.45246 3.42129 2.36961 3.21478 2.36961 3C2.36961 2.78522 2.45246 2.57871 2.6009 2.42349C2.74934 2.26826 2.95194 2.17626 3.1665 2.16667ZM15.6665 13.8333H3.1765C2.7915 13.8233 2.33317 13.6708 2.33317 13V5.34583C2.59484 5.44 2.87234 5.5 3.1665 5.5H15.6665V13.8333Z" fill="currentColor"/>
</svg>
