<svg width="100%" height="100%" viewBox="0 0 100% 100%" fill="none" xmlns="http://www.w3.org/2000/svg">
    <path
        d="M3.41548 3.6567H12.5561C12.6629 3.65665 12.7695 3.66343 12.8754 3.67698C12.8395 3.42498 12.753 3.18286 12.621 2.96521C12.489 2.74757 12.3143 2.55891 12.1074 2.41061C11.9005 2.26231 11.6657 2.15744 11.4172 2.10233C11.1687 2.04722 10.9116 2.04301 10.6614 2.08994L3.14411 3.37334H3.13554C2.66368 3.46358 2.24407 3.73055 1.9624 4.11973C2.38675 3.8179 2.89473 3.65603 3.41548 3.6567Z"
        fill="currentColor" />
    <path
        d="M12.5561 4.34375H3.41553C2.93084 4.34428 2.46616 4.53705 2.12343 4.87978C1.78071 5.2225 1.58793 5.68719 1.5874 6.17187V11.6562C1.58793 12.1409 1.78071 12.6056 2.12343 12.9483C2.46616 13.2911 2.93084 13.4838 3.41553 13.4844H12.5561C13.0408 13.4838 13.5055 13.2911 13.8482 12.9483C14.191 12.6056 14.3837 12.1409 14.3843 11.6562V6.17187C14.3837 5.68719 14.191 5.2225 13.8482 4.87978C13.5055 4.53705 13.0408 4.34428 12.5561 4.34375ZM11.1993 9.82812C11.0186 9.82812 10.8418 9.77451 10.6915 9.67408C10.5412 9.57364 10.424 9.43088 10.3549 9.26386C10.2857 9.09683 10.2676 8.91305 10.3028 8.73574C10.3381 8.55843 10.4252 8.39556 10.553 8.26772C10.6808 8.13989 10.8437 8.05283 11.021 8.01756C11.1983 7.98229 11.3821 8.00039 11.5491 8.06958C11.7162 8.13876 11.8589 8.25592 11.9594 8.40623C12.0598 8.55655 12.1134 8.73328 12.1134 8.91406C12.1134 9.15649 12.0171 9.38898 11.8457 9.5604C11.6743 9.73182 11.4418 9.82812 11.1993 9.82812Z"
        fill="currentColor" />
    <path
        d="M1.60156 8.09839V5.25623C1.60156 4.63723 1.94434 3.59949 3.13405 3.37468C4.1438 3.1853 5.14355 3.1853 5.14355 3.1853C5.14355 3.1853 5.80054 3.64233 5.25781 3.64233C4.71509 3.64233 4.72937 4.34216 5.25781 4.34216C5.78625 4.34216 5.25781 5.01343 5.25781 5.01343L3.12976 7.42712L1.60156 8.09839Z"
        fill="#fff" />
</svg>