<svg width="25" height="24" viewBox="0 0 25 24" fill="none" xmlns="http://www.w3.org/2000/svg">
<rect width="25" height="24" rx="4" fill="#FAAA56" fill-opacity="0.1"/>
<g clip-path="url(#clip0_2090_173)">
<path d="M11.9997 5.33337C15.6817 5.33337 18.6663 8.31804 18.6663 12C18.6663 15.682 15.6817 18.6667 11.9997 18.6667C8.31767 18.6667 5.33301 15.682 5.33301 12C5.33301 8.31804 8.31767 5.33337 11.9997 5.33337ZM11.9997 14C11.8229 14 11.6533 14.0703 11.5283 14.1953C11.4032 14.3203 11.333 14.4899 11.333 14.6667C11.333 14.8435 11.4032 15.0131 11.5283 15.1381C11.6533 15.2631 11.8229 15.3334 11.9997 15.3334C12.1765 15.3334 12.3461 15.2631 12.4711 15.1381C12.5961 15.0131 12.6663 14.8435 12.6663 14.6667C12.6663 14.4899 12.5961 14.3203 12.4711 14.1953C12.3461 14.0703 12.1765 14 11.9997 14ZM11.9997 8.00004C11.8364 8.00006 11.6788 8.06001 11.5568 8.16852C11.4347 8.27702 11.3568 8.42654 11.3377 8.58871L11.333 8.66671V12.6667C11.3332 12.8366 11.3983 13.0001 11.5149 13.1236C11.6316 13.2472 11.791 13.3215 11.9606 13.3315C12.1302 13.3414 12.2973 13.2863 12.4276 13.1772C12.5579 13.0681 12.6416 12.9134 12.6617 12.7447L12.6663 12.6667V8.66671C12.6663 8.4899 12.5961 8.32033 12.4711 8.1953C12.3461 8.07028 12.1765 8.00004 11.9997 8.00004Z" fill="#FAAA56"/>
</g>
<defs>
<clipPath id="clip0_2090_173">
<rect width="16" height="16" fill="white" transform="translate(4 4)"/>
</clipPath>
</defs>
</svg>
