<svg width="40" height="40" viewBox="0 0 40 40" fill="none" xmlns="http://www.w3.org/2000/svg">
    <path
        d="M20 11.875C18.393 11.875 16.8221 12.3515 15.486 13.2443C14.1498 14.1371 13.1084 15.406 12.4935 16.8907C11.8785 18.3753 11.7176 20.009 12.0311 21.5851C12.3446 23.1612 13.1185 24.6089 14.2548 25.7452C15.3911 26.8815 16.8388 27.6554 18.4149 27.9689C19.991 28.2824 21.6247 28.1215 23.1093 27.5065C24.594 26.8916 25.8629 25.8502 26.7557 24.514C27.6485 23.1779 28.125 21.607 28.125 20C28.1225 17.8459 27.2657 15.7807 25.7425 14.2575C24.2193 12.7343 22.1541 11.8775 20 11.875ZM26.875 20C26.8756 20.634 26.788 21.2651 26.6148 21.875H23.6063C23.798 20.6324 23.798 19.3676 23.6063 18.125H26.6148C26.788 18.7349 26.8756 19.366 26.875 20ZM17.9688 23.125H22.0313C21.6311 24.4364 20.9363 25.6389 20 26.6406C19.0642 25.6386 18.3695 24.4362 17.9688 23.125ZM17.6641 21.875C17.4494 20.6342 17.4494 19.3658 17.6641 18.125H22.3422C22.5568 19.3658 22.5568 20.6342 22.3422 21.875H17.6641ZM13.125 20C13.1244 19.366 13.212 18.7349 13.3852 18.125H16.3938C16.202 19.3676 16.202 20.6324 16.3938 21.875H13.3852C13.212 21.2651 13.1244 20.634 13.125 20ZM22.0313 16.875H17.9688C18.369 15.5636 19.0637 14.3611 20 13.3594C20.9358 14.3614 21.6305 15.5638 22.0313 16.875ZM26.1195 16.875H23.3367C22.9859 15.5882 22.3948 14.3795 21.5945 13.3125C22.5615 13.5448 23.4668 13.9834 24.2484 14.5983C25.03 15.2132 25.6693 15.9899 26.1227 16.875H26.1195ZM18.4055 13.3125C17.6052 14.3795 17.0141 15.5882 16.6633 16.875H13.8773C14.3307 15.9899 14.9701 15.2132 15.7516 14.5983C16.5332 13.9834 17.4385 13.5448 18.4055 13.3125ZM13.8773 23.125H16.6633C17.0141 24.4118 17.6052 25.6205 18.4055 26.6875C17.4385 26.4552 16.5332 26.0166 15.7516 25.4017C14.9701 24.7868 14.3307 24.0101 13.8773 23.125ZM21.5945 26.6875C22.3948 25.6205 22.9859 24.4118 23.3367 23.125H26.1227C25.6693 24.0101 25.03 24.7868 24.2484 25.4017C23.4668 26.0166 22.5615 26.4552 21.5945 26.6875Z"
        fill="currentColor" />
</svg>