<svg width="16" height="16" viewBox="0 0 16 16" fill="#D1D5DB" xmlns="http://www.w3.org/2000/svg">
    <g clip-path="url(#clip0_4659_3047)">
        <path d="M16 7H0V9H16V7Z" />
        <path opacity="0.25"
            d="M8 16C12.4183 16 16 12.4183 16 8C16 3.58172 12.4183 0 8 0C3.58172 0 0 3.58172 0 8C0 12.4183 3.58172 16 8 16Z"
        />
        <path
            d="M8 11.5C9.933 11.5 11.5 9.933 11.5 8C11.5 6.067 9.933 4.5 8 4.5C6.067 4.5 4.5 6.067 4.5 8C4.5 9.933 6.067 11.5 8 11.5Z"
            stroke="#1E1E1E" stroke-opacity="0.5" />
    </g>
    <defs>
        <clipPath id="clip0_4659_3047">
            <rect width="16" height="16" fill="white" />
        </clipPath>
    </defs>
</svg>