<svg width="68" height="68" viewBox="0 0 68 68" fill="none" xmlns="http://www.w3.org/2000/svg">
    <path opacity="0.2"
        d="M67.75 34C67.75 40.6751 65.7706 47.2003 62.0621 52.7505C58.3536 58.3007 53.0826 62.6265 46.9156 65.1809C40.7486 67.7354 33.9626 68.4038 27.4157 67.1015C20.8689 65.7993 14.8552 62.5849 10.1352 57.8649C5.41514 53.1448 2.20076 47.1312 0.898512 40.5843C-0.403739 34.0374 0.264623 27.2514 2.81908 21.0844C5.37354 14.9174 9.69936 9.6464 15.2495 5.9379C20.7997 2.2294 27.3249 0.25 34 0.25C42.9511 0.25 51.5355 3.80579 57.8649 10.1351C64.1942 16.4645 67.75 25.0489 67.75 34Z"
        fill="currentColor" />
</svg>