<svg width="24" height="24" viewBox="0 0 24 24" fill="none" xmlns="http://www.w3.org/2000/svg">
    <path opacity="0.2"
        d="M22.0511 17.3991L15.7698 20.1834C15.6745 20.2267 15.5713 20.2499 15.4667 20.2517C15.362 20.2534 15.2581 20.2336 15.1614 20.1935C15.0647 20.1534 14.9773 20.0939 14.9046 20.0186C14.8318 19.9434 14.7753 19.8539 14.7386 19.7559L13.7814 17.1619C13.1895 17.2209 12.595 17.2503 12.0001 17.25C11.4053 17.2503 10.8108 17.2209 10.2189 17.1619L9.25795 19.7559C9.2212 19.8539 9.16471 19.9434 9.09197 20.0186C9.01923 20.0939 8.93181 20.1534 8.83511 20.1935C8.73842 20.2336 8.63452 20.2534 8.52986 20.2517C8.4252 20.2499 8.32201 20.2267 8.2267 20.1834L1.94545 17.3991C1.78372 17.328 1.65226 17.2022 1.57422 17.0437C1.49619 16.8852 1.47659 16.7043 1.51889 16.5328L4.29107 5.625C4.32722 5.48164 4.40454 5.35198 4.51349 5.25203C4.62244 5.15208 4.75826 5.08619 4.9042 5.0625L8.28482 4.5075C8.47311 4.4755 8.66654 4.51563 8.82656 4.61988C8.98658 4.72412 9.10145 4.88484 9.14826 5.07L9.61701 6.91031C11.2 6.69906 12.804 6.69906 14.387 6.91031L14.8558 5.07C14.9026 4.88484 15.0174 4.72412 15.1775 4.61988C15.3375 4.51563 15.5309 4.4755 15.7192 4.5075L19.0961 5.0625C19.242 5.08619 19.3778 5.15208 19.4868 5.25203C19.5957 5.35198 19.673 5.48164 19.7092 5.625L22.4776 16.5347C22.5194 16.7059 22.4996 16.8864 22.4216 17.0445C22.3436 17.2025 22.2124 17.3281 22.0511 17.3991Z"
        fill="currentColor" />
    <path
        d="M9.74968 13.125C9.74968 13.3475 9.6837 13.565 9.56008 13.75C9.43647 13.935 9.26077 14.0792 9.0552 14.1643C8.84963 14.2495 8.62343 14.2718 8.4052 14.2284C8.18698 14.185 7.98652 14.0778 7.82919 13.9205C7.67185 13.7631 7.56471 13.5627 7.5213 13.3445C7.47789 13.1262 7.50017 12.9 7.58532 12.6945C7.67046 12.4889 7.81466 12.3132 7.99966 12.1896C8.18467 12.066 8.40218 12 8.62468 12C8.92305 12 9.2092 12.1185 9.42018 12.3295C9.63116 12.5405 9.74968 12.8266 9.74968 13.125ZM15.3747 12C15.1522 12 14.9347 12.066 14.7497 12.1896C14.5647 12.3132 14.4205 12.4889 14.3353 12.6945C14.2502 12.9 14.2279 13.1262 14.2713 13.3445C14.3147 13.5627 14.4219 13.7631 14.5792 13.9205C14.7365 14.0778 14.937 14.185 15.1552 14.2284C15.3734 14.2718 15.5996 14.2495 15.8052 14.1643C16.0108 14.0792 16.1865 13.935 16.3101 13.75C16.4337 13.565 16.4997 13.3475 16.4997 13.125C16.4997 12.8266 16.3812 12.5405 16.1702 12.3295C15.9592 12.1185 15.673 12 15.3747 12ZM22.3544 18.0844L16.0731 20.8697C15.8842 20.9536 15.6802 20.9981 15.4735 21.0003C15.2668 21.0025 15.0619 20.9624 14.8713 20.8825C14.6806 20.8026 14.5084 20.6846 14.365 20.5357C14.2217 20.3867 14.1104 20.2101 14.0378 20.0165L13.2775 17.954C12.8575 17.9822 12.4316 17.9965 11.9997 17.9972C11.5678 17.9978 11.1419 17.9834 10.7219 17.954L9.96156 20.0165C9.88889 20.21 9.77747 20.3866 9.63412 20.5354C9.49077 20.6843 9.31851 20.8023 9.12793 20.8821C8.93734 20.962 8.73244 21.0021 8.5258 21C8.31916 20.9978 8.11513 20.9535 7.92624 20.8697L1.64499 18.0844C1.32092 17.9425 1.05769 17.6902 0.902159 17.3724C0.746626 17.0547 0.708874 16.692 0.795618 16.349L3.56218 5.43748C3.63514 5.15359 3.78929 4.89713 4.00575 4.69948C4.22221 4.50184 4.49159 4.37159 4.78093 4.32467L8.16156 3.76967C8.53426 3.70951 8.91602 3.79023 9.23247 3.99611C9.54892 4.202 9.77741 4.5183 9.87343 4.88342L10.1791 6.08623C10.7747 6.02873 11.3816 5.99998 11.9997 5.99998C12.6178 5.99998 13.2241 6.02873 13.8184 6.08623L14.1241 4.88342C14.2203 4.51841 14.4488 4.20224 14.7652 3.99639C15.0816 3.79054 15.4633 3.70973 15.8359 3.76967L19.2184 4.32467C19.5078 4.37159 19.7772 4.50184 19.9936 4.69948C20.2101 4.89713 20.3642 5.15359 20.4372 5.43748L23.2056 16.3481C23.2925 16.6914 23.2546 17.0545 23.0987 17.3725C22.9428 17.6905 22.679 17.9428 22.3544 18.0844ZM21.7497 16.7137L18.9812 5.81248C18.9812 5.81248 18.9812 5.81248 18.9737 5.81248L15.5931 5.24998C15.5907 5.24858 15.5879 5.24784 15.5851 5.24784C15.5824 5.24784 15.5796 5.24858 15.5772 5.24998L15.3119 6.29435C15.7806 6.38248 16.2494 6.48748 16.7022 6.61498C16.8807 6.66049 17.0362 6.77011 17.1391 6.92294C17.242 7.07577 17.285 7.26112 17.26 7.44364C17.2349 7.62617 17.1436 7.79309 17.0034 7.91258C16.8632 8.03208 16.6839 8.09578 16.4997 8.09154C16.4312 8.09135 16.3631 8.08189 16.2972 8.06342C14.8965 7.68334 13.451 7.49382 11.9997 7.49998C10.5484 7.49352 9.1029 7.68272 7.70218 8.06248C7.6065 8.09206 7.50585 8.10218 7.40619 8.09223C7.30654 8.08229 7.20988 8.05249 7.12192 8.00458C7.03397 7.95668 6.9565 7.89164 6.89409 7.81331C6.83168 7.73498 6.78559 7.64494 6.75854 7.54851C6.73148 7.45208 6.72402 7.35121 6.73659 7.25184C6.74915 7.15248 6.78149 7.05664 6.8317 6.96998C6.8819 6.88332 6.94896 6.80759 7.0289 6.74726C7.10885 6.68693 7.20007 6.64323 7.29718 6.61873C7.74906 6.49123 8.21406 6.38623 8.68656 6.2981L8.42124 5.24998C8.41757 5.24889 8.41366 5.24889 8.40999 5.24998L5.02562 5.80498C5.02283 5.80445 5.01997 5.80445 5.01718 5.80498L2.24968 16.7184L8.53093 19.5C8.53403 19.5019 8.5376 19.5029 8.54124 19.5029C8.54488 19.5029 8.54845 19.5019 8.55156 19.5L9.18718 17.7862C8.55033 17.6888 7.91984 17.5536 7.29906 17.3812C7.11415 17.3221 6.95936 17.1937 6.86722 17.0228C6.77507 16.852 6.75276 16.6521 6.80496 16.4651C6.85716 16.2782 6.97982 16.1187 7.14714 16.0203C7.31446 15.9219 7.51342 15.8922 7.70218 15.9375C9.10281 16.3177 10.5484 16.5069 11.9997 16.5C13.451 16.5069 14.8966 16.3177 16.2972 15.9375C16.4888 15.8838 16.6938 15.9084 16.8673 16.0059C17.0407 16.1033 17.1683 16.2657 17.222 16.4573C17.2757 16.6489 17.2511 16.854 17.1536 17.0274C17.0562 17.2008 16.8938 17.3285 16.7022 17.3822C16.0808 17.5543 15.4496 17.6892 14.8122 17.7862L15.445 19.5C15.448 19.5016 15.4514 19.5025 15.4548 19.5025C15.4583 19.5025 15.4617 19.5016 15.4647 19.5L21.7497 16.7137Z"
        fill="currentColor" />
</svg>