<svg width="91" height="91" viewBox="0 0 91 91" fill="none" xmlns="http://www.w3.org/2000/svg">
    <path opacity="0.2"
        d="M76.2504 42.5089V76.2589L65.939 67.8214L55.6242 76.2589L45.3129 67.8214L35.0015 76.2589L24.6867 67.8214L14.3754 76.2589V42.5089C14.3754 34.3038 17.6348 26.4347 23.4368 20.6328C29.2387 14.8309 37.1077 11.5714 45.3129 11.5714C53.518 11.5714 61.3871 14.8309 67.189 20.6328C72.9909 26.4347 76.2504 34.3038 76.2504 42.5089Z"
        fill="currentColor" />
    <path
        d="M39.6879 41.1027C39.6879 41.937 39.4404 42.7527 38.9769 43.4465C38.5133 44.1402 37.8544 44.681 37.0836 45.0003C36.3127 45.3196 35.4644 45.4031 34.6461 45.2403C33.8277 45.0776 33.076 44.6758 32.486 44.0858C31.896 43.4958 31.4942 42.7441 31.3314 41.9257C31.1686 41.1073 31.2522 40.2591 31.5715 39.4882C31.8908 38.7173 32.4315 38.0585 33.1253 37.5949C33.8191 37.1313 34.6347 36.8839 35.4691 36.8839C36.588 36.8839 37.6611 37.3284 38.4522 38.1196C39.2434 38.9107 39.6879 39.9838 39.6879 41.1027ZM55.1566 36.8839C54.3222 36.8839 53.5066 37.1313 52.8128 37.5949C52.119 38.0585 51.5783 38.7173 51.259 39.4882C50.9397 40.2591 50.8561 41.1073 51.0189 41.9257C51.1817 42.7441 51.5835 43.4958 52.1735 44.0858C52.7635 44.6758 53.5152 45.0776 54.3336 45.2403C55.1519 45.4031 56.0002 45.3196 56.7711 45.0003C57.5419 44.681 58.2008 44.1402 58.6644 43.4465C59.1279 42.7527 59.3754 41.937 59.3754 41.1027C59.3754 39.9838 58.9309 38.9107 58.1397 38.1196C57.3486 37.3284 56.2755 36.8839 55.1566 36.8839ZM79.0629 42.5089V76.2589C79.063 76.7915 78.9119 77.3132 78.6271 77.7633C78.3423 78.2134 77.9356 78.5734 77.4542 78.8014C76.9728 79.0293 76.4366 79.1159 75.908 79.0511C75.3793 78.9863 74.8799 78.7726 74.4679 78.4351L65.939 71.4566L57.4066 78.4351C56.9042 78.846 56.2751 79.0706 55.626 79.0706C54.9769 79.0706 54.3477 78.846 53.8453 78.4351L45.3129 71.4566L36.7804 78.4351C36.278 78.846 35.6489 79.0706 34.9998 79.0706C34.3507 79.0706 33.7216 78.846 33.2191 78.4351L24.6867 71.4566L16.1578 78.4351C15.7458 78.7726 15.2464 78.9863 14.7178 79.0511C14.1891 79.1159 13.6529 79.0293 13.1715 78.8014C12.6902 78.5734 12.2834 78.2134 11.9987 77.7633C11.7139 77.3132 11.5628 76.7915 11.5629 76.2589V42.5089C11.5629 33.5579 15.1187 24.9734 21.448 18.6441C27.7774 12.3147 36.3618 8.75891 45.3129 8.75891C54.2639 8.75891 62.8484 12.3147 69.1777 18.6441C75.5071 24.9734 79.0629 33.5579 79.0629 42.5089ZM73.4379 42.5089C73.4379 35.0497 70.4747 27.896 65.2002 22.6215C59.9258 17.3471 52.7721 14.3839 45.3129 14.3839C37.8537 14.3839 30.6999 17.3471 25.4255 22.6215C20.151 27.896 17.1879 35.0497 17.1879 42.5089V70.3245L22.9078 65.6452C23.4102 65.2343 24.0393 65.0098 24.6885 65.0098C25.3376 65.0098 25.9667 65.2343 26.4691 65.6452L35.0015 72.6238L43.5304 65.6452C44.0332 65.2334 44.663 65.0083 45.3129 65.0083C45.9627 65.0083 46.5926 65.2334 47.0953 65.6452L55.6242 72.6238L64.1566 65.6452C64.6591 65.2343 65.2882 65.0098 65.9373 65.0098C66.5864 65.0098 67.2155 65.2343 67.7179 65.6452L73.4379 70.3245V42.5089Z"
        fill="currentColor" />
</svg>