<svg width="24" height="24" viewBox="0 0 24 24" fill="none" xmlns="http://www.w3.org/2000/svg">
    <path opacity="0.2"
        d="M21.3645 13.8646C20.9122 15.3517 20.0825 16.6963 18.9562 17.7674C17.8299 18.8386 16.4454 19.5998 14.9376 19.9769C13.4297 20.354 11.8499 20.3342 10.3519 19.9194C8.85398 19.5045 7.48901 18.7088 6.38995 17.6098C5.29088 16.5107 4.49518 15.1457 4.08036 13.6478C3.66553 12.1499 3.64571 10.57 4.02283 9.06216C4.39995 7.55429 5.16116 6.16979 6.23231 5.0435C7.30346 3.91721 8.64804 3.08753 10.1351 2.63525C9.66361 4.19532 9.62416 5.85406 10.021 7.43477C10.4178 9.01548 11.236 10.4589 12.3884 11.6113C13.5408 12.7637 14.9842 13.5819 16.565 13.9788C18.1457 14.3756 19.8044 14.3361 21.3645 13.8646Z"
        fill="currentColor" />
    <path
        d="M21.8948 13.334C21.7986 13.2376 21.6779 13.1692 21.5458 13.1362C21.4136 13.1032 21.275 13.1067 21.1448 13.1465C19.7147 13.5789 18.1941 13.6151 16.745 13.2514C15.2959 12.8877 13.9727 12.1377 12.9163 11.0813C11.8598 10.0249 11.1098 8.7016 10.7461 7.25254C10.3824 5.80347 10.4187 4.28288 10.851 2.85279C10.8911 2.72248 10.895 2.5837 10.8621 2.45137C10.8293 2.31903 10.761 2.19816 10.6646 2.10175C10.5681 2.00534 10.4473 1.93703 10.3149 1.90418C10.1826 1.87132 10.0438 1.87517 9.91351 1.91529C7.93635 2.52096 6.20058 3.73478 4.9532 5.38404C3.86233 6.83234 3.19694 8.55614 3.03176 10.3618C2.86658 12.1674 3.20817 13.9833 4.01814 15.6055C4.82812 17.2277 6.07439 18.5919 7.61695 19.5448C9.1595 20.4978 10.9372 21.0017 12.7504 21C14.8657 21.0065 16.9248 20.3188 18.6116 19.0425C20.2609 17.7951 21.4747 16.0593 22.0804 14.0822C22.12 13.9523 22.1237 13.8142 22.091 13.6824C22.0583 13.5507 21.9905 13.4303 21.8948 13.334ZM17.7098 17.8444C16.1212 19.0408 14.1539 19.6232 12.17 19.4843C10.1861 19.3454 8.3192 18.4945 6.91289 17.0884C5.50658 15.6822 4.65556 13.8153 4.51648 11.8314C4.37741 9.84753 4.95964 7.88019 6.15601 6.29154C6.93545 5.26222 7.94313 4.42784 9.09976 3.85404C9.03387 4.31644 9.00066 4.78291 9.00038 5.24998C9.00311 7.835 10.0312 10.3134 11.8591 12.1413C13.687 13.9691 16.1654 14.9972 18.7504 15C19.2184 14.9998 19.6858 14.9666 20.1491 14.9006C19.5748 16.0574 18.7398 17.0651 17.7098 17.8444Z"
        fill="currentColor" />
</svg>