<svg width="74" height="74" viewBox="0 0 74 74" fill="none" xmlns="http://www.w3.org/2000/svg">
<path d="M37 0.4375C29.7686 0.4375 22.6997 2.58185 16.687 6.59939C10.6743 10.6169 5.988 16.3272 3.22067 23.0081C0.453342 29.6891 -0.270718 37.0406 1.14005 44.133C2.55083 51.2254 6.03307 57.7402 11.1464 62.8536C16.2598 67.9669 22.7746 71.4492 29.867 72.86C36.9595 74.2707 44.311 73.5467 50.9919 70.7793C57.6728 68.012 63.3831 63.3257 67.4006 57.313C71.4182 51.3004 73.5625 44.2314 73.5625 37C73.5523 27.3062 69.6969 18.0123 62.8423 11.1577C55.9877 4.30313 46.6939 0.447737 37 0.4375ZM37 67.9375C30.8812 67.9375 24.8997 66.123 19.8121 62.7236C14.7244 59.3241 10.7591 54.4924 8.41749 48.8393C6.07591 43.1862 5.46324 36.9657 6.65697 30.9644C7.8507 24.9631 10.7972 19.4506 15.1239 15.1239C19.4506 10.7972 24.9631 7.85069 30.9644 6.65696C36.9657 5.46322 43.1862 6.07589 48.8393 8.41748C54.4924 10.7591 59.3242 14.7244 62.7236 19.812C66.1231 24.8997 67.9375 30.8811 67.9375 37C67.9282 45.2023 64.6657 53.0659 58.8659 58.8658C53.066 64.6657 45.2023 67.9282 37 67.9375ZM53.875 37C53.875 37.7459 53.5787 38.4613 53.0513 38.9887C52.5238 39.5162 51.8084 39.8125 51.0625 39.8125H39.8125V51.0625C39.8125 51.8084 39.5162 52.5238 38.9888 53.0512C38.4613 53.5787 37.7459 53.875 37 53.875C36.2541 53.875 35.5387 53.5787 35.0113 53.0512C34.4838 52.5238 34.1875 51.8084 34.1875 51.0625V39.8125H22.9375C22.1916 39.8125 21.4762 39.5162 20.9488 38.9887C20.4213 38.4613 20.125 37.7459 20.125 37C20.125 36.2541 20.4213 35.5387 20.9488 35.0113C21.4762 34.4838 22.1916 34.1875 22.9375 34.1875H34.1875V22.9375C34.1875 22.1916 34.4838 21.4762 35.0113 20.9488C35.5387 20.4213 36.2541 20.125 37 20.125C37.7459 20.125 38.4613 20.4213 38.9888 20.9488C39.5162 21.4762 39.8125 22.1916 39.8125 22.9375V34.1875H51.0625C51.8084 34.1875 52.5238 34.4838 53.0513 35.0113C53.5787 35.5387 53.875 36.2541 53.875 37Z" fill="#56DDB4"/>
</svg>
