<svg width="20" height="9" viewBox="0 0 20 9" fill="none" xmlns="http://www.w3.org/2000/svg">
    <path
        d="M2.49365 8.86985L9.88236 6.40798L17.2711 8.86985C17.5209 8.95304 17.806 8.99793 18.0973 8.99993C18.3885 9.00193 18.6755 8.96098 18.929 8.88126C19.1825 8.80153 19.3934 8.68587 19.5402 8.54609C19.687 8.4063 19.7645 8.24738 19.7647 8.08553L19.7647 4.42476C19.7645 4.26675 19.6906 4.11146 19.5504 3.97402C19.4101 3.83657 19.2082 3.72165 18.9642 3.64043L10.7289 0.894853C10.4732 0.809686 10.1806 0.764705 9.88236 0.764705C9.58416 0.764705 9.29156 0.809687 9.03577 0.894854L0.800476 3.64044C0.556552 3.72165 0.354623 3.83658 0.214347 3.97402C0.0740733 4.11147 0.000230351 4.26675 5.29855e-06 4.42476L5.6374e-06 8.08553C0.000236442 8.24738 0.0777072 8.4063 0.224518 8.54609C0.371328 8.68588 0.582228 8.80153 0.835712 8.88126C1.0892 8.96099 1.3762 9.00193 1.66745 8.99993C1.95871 8.99793 2.2438 8.95304 2.49365 8.86985Z"
        fill="currentColor" />
</svg>