<svg width="24" height="24" viewBox="0 0 24 24" fill="none" xmlns="http://www.w3.org/2000/svg">
    <path opacity="0.2"
        d="M20.9449 3.00846L7.50024 12.6441L1.96899 11.5594C1.84513 11.5343 1.73276 11.4697 1.64874 11.3753C1.56472 11.2809 1.51359 11.1617 1.50302 11.0358C1.49246 10.9099 1.52303 10.7839 1.59014 10.6768C1.65726 10.5697 1.7573 10.4873 1.87524 10.4419L20.8718 3.00658C20.8835 3.00198 20.896 2.99977 20.9086 3.00009C20.9211 3.00041 20.9335 3.00326 20.9449 3.00846ZM7.50024 18.75C7.50009 18.8996 7.54467 19.0458 7.62824 19.1699C7.71182 19.2939 7.83058 19.3901 7.96926 19.4462C8.10795 19.5022 8.26022 19.5155 8.40651 19.4843C8.55281 19.4532 8.68644 19.379 8.79024 19.2713L11.6599 16.2938L7.50024 12.6441V18.75Z"
        fill="currentColor" />
    <path
        d="M21.4571 2.45532C21.3409 2.35498 21.1995 2.28825 21.0482 2.26231C20.8969 2.23637 20.7414 2.25222 20.5984 2.30814L1.599 9.74345C1.32974 9.84815 1.10177 10.0375 0.949431 10.283C0.797088 10.5284 0.728611 10.8168 0.754309 11.1045C0.780008 11.3923 0.898491 11.6639 1.09192 11.8785C1.28535 12.0931 1.54326 12.2391 1.82681 12.2944L6.74963 13.2609V18.75C6.74866 19.049 6.83751 19.3414 7.00467 19.5893C7.17182 19.8372 7.40958 20.0291 7.68713 20.1403C7.96424 20.2535 8.269 20.2806 8.56176 20.2183C8.85452 20.1559 9.12175 20.0069 9.32869 19.7906L11.7024 17.3288L15.4684 20.625C15.7401 20.866 16.0905 20.9994 16.4537 21C16.6128 20.9999 16.771 20.9749 16.9224 20.9259C17.1699 20.8474 17.3925 20.7055 17.568 20.5142C17.7435 20.3229 17.8658 20.0889 17.9228 19.8356L21.7281 3.28126C21.7621 3.13196 21.7549 2.97622 21.7071 2.83072C21.6594 2.68522 21.573 2.55545 21.4571 2.45532ZM7.32619 11.8453L2.67525 10.9331L15.7253 5.82564L7.32619 11.8453ZM8.24963 18.75V14.2988L10.5737 16.3369L8.24963 18.75ZM16.4556 19.5L8.70431 12.7031L19.8606 4.7072L16.4556 19.5Z"
        fill="currentColor" />
</svg>