<svg width="45" height="44" viewBox="0 0 45 44" fill="none" xmlns="http://www.w3.org/2000/svg">
<path d="M38.1114 22.4863L25.7364 34.8613C25.6074 34.9903 25.4324 35.0628 25.25 35.0628C25.0676 35.0628 24.8926 34.9903 24.7636 34.8613C24.6346 34.7323 24.5621 34.5573 24.5621 34.3749C24.5621 34.1925 24.6346 34.0175 24.7636 33.8885L35.9647 22.6874H7.375C7.19266 22.6874 7.0178 22.615 6.88886 22.486C6.75993 22.3571 6.6875 22.1822 6.6875 21.9999C6.6875 21.8176 6.75993 21.6427 6.88886 21.5138C7.0178 21.3848 7.19266 21.3124 7.375 21.3124H35.9647L24.7636 10.1113C24.6346 9.9823 24.5621 9.80733 24.5621 9.62489C24.5621 9.44246 24.6346 9.26749 24.7636 9.13849C24.8926 9.00949 25.0676 8.93701 25.25 8.93701C25.4324 8.93701 25.6074 9.00948 25.7364 9.13849L38.1114 21.5135C38.1753 21.5773 38.226 21.6532 38.2606 21.7366C38.2952 21.8201 38.313 21.9095 38.313 21.9999C38.313 22.0902 38.2952 22.1797 38.2606 22.2632C38.226 22.3466 38.1753 22.4225 38.1114 22.4863Z" fill="white"/>
</svg>
