<svg width="169" height="196" viewBox="0 0 169 196" fill="none" xmlns="http://www.w3.org/2000/svg">
<path opacity="0.2" d="M62.5945 160.888C62.5945 175.024 55.9075 186.494 47.6575 186.494C39.4074 186.494 32.7205 175.024 32.7205 160.888C32.7205 146.751 39.4074 135.281 47.6575 135.281C55.9075 135.281 62.5945 146.751 62.5945 160.888Z" fill="white"/>
<path d="M72.8653 141.707C69.6458 136.188 65.2394 133.147 60.4595 133.147H47.6563C42.8765 133.147 38.4701 136.188 35.2506 141.707C32.2419 146.863 30.5854 153.686 30.5854 160.888C30.5854 168.089 32.2419 174.912 35.2506 180.068C38.4701 185.587 42.8765 188.628 47.6563 188.628H60.4595C65.2394 188.628 69.6458 185.587 72.8653 180.068C75.874 174.912 77.5304 168.089 77.5304 160.888C77.5304 153.686 75.874 146.863 72.8653 141.707ZM73.2067 158.754H64.6712C64.5044 154.375 63.6326 150.052 62.0893 145.951H70.2486C71.881 149.52 72.9586 153.953 73.2067 158.754ZM67.712 141.683H60.0487C59.1577 140.137 58.083 138.704 56.848 137.415H60.4595C63.1268 137.415 65.6341 139.016 67.712 141.683ZM34.8532 160.888C34.8532 148.165 40.7213 137.415 47.6563 137.415C54.5914 137.415 60.4595 148.165 60.4595 160.888C60.4595 173.611 54.5914 184.36 47.6563 184.36C40.7213 184.36 34.8532 173.611 34.8532 160.888ZM60.4595 184.36H56.856C58.091 183.072 59.1657 181.639 60.0568 180.092H67.72C65.6341 182.76 63.1268 184.36 60.4595 184.36ZM70.2486 175.825H62.0919C63.6352 171.724 64.5071 167.4 64.6739 163.022H73.2093C72.9586 167.823 71.881 172.256 70.2486 175.825Z" fill="white"/>
<g clip-path="url(#clip0_3846_1523)">
<path fill-rule="evenodd" clip-rule="evenodd" d="M21.2965 51.5304C21.534 51.261 21.8416 51.0629 22.1851 50.9582C22.5286 50.8535 22.8945 50.8463 23.2418 50.9375C27.5394 52.0574 34.1428 54.9677 39.7075 60.1488C45.3149 65.3765 49.9032 72.9602 49.9032 83.3031C49.9032 87.3992 48.9848 92.4098 45.8032 96.5601C42.5713 100.784 37.2119 103.846 28.8957 104.361H28.8725C17.7894 104.919 10.0081 99.1604 6.88077 91.2279C3.78061 83.3651 5.33457 73.5841 12.3215 66.1631C12.5064 65.9662 12.7303 65.8101 12.979 65.7049C13.2277 65.5996 13.4956 65.5475 13.7657 65.5519C14.0357 65.5563 14.3018 65.617 14.5469 65.7303C14.7921 65.8436 15.0108 66.0068 15.1892 66.2096L20.0913 71.7744C21.8855 68.5735 22.7574 65.7834 22.8892 62.9893C23.0248 60.1488 22.397 57.1494 20.9516 53.5339C20.8184 53.2004 20.7804 52.8365 20.842 52.4827C20.9036 52.1289 21.0623 51.7992 21.3004 51.5304H21.2965ZM21.1027 81.0012C21.1027 80.6196 21.1779 80.2416 21.324 79.889C21.47 79.5364 21.6841 79.216 21.954 78.9461C22.2239 78.6762 22.5443 78.4621 22.8969 78.3161C23.2495 78.17 23.6275 78.0948 24.0091 78.0948C24.3908 78.0948 24.7687 78.17 25.1214 78.3161C25.474 78.4621 25.7944 78.6762 26.0643 78.9461C26.3341 79.216 26.5482 79.5364 26.6943 79.889C26.8403 80.2416 26.9155 80.6196 26.9155 81.0012C26.9155 81.7721 26.6093 82.5113 26.0643 83.0564C25.5192 83.6014 24.78 83.9076 24.0091 83.9076C23.2383 83.9076 22.4991 83.6014 21.954 83.0564C21.4089 82.5113 21.1027 81.7721 21.1027 81.0012ZM36.5648 81.4895C36.7447 81.3094 36.8873 81.0955 36.9846 80.8603C37.0818 80.625 37.1318 80.3729 37.1316 80.1183C37.1314 79.8637 37.0811 79.6116 36.9835 79.3765C36.8859 79.1413 36.743 78.9277 36.5628 78.7478C36.3827 78.5679 36.1688 78.4253 35.9336 78.328C35.6983 78.2307 35.4462 78.1808 35.1916 78.181C34.937 78.1811 34.6849 78.2315 34.4498 78.3291C34.2146 78.4266 34.001 78.5696 33.8211 78.7498L21.0989 91.472C20.9138 91.6507 20.7662 91.8646 20.6646 92.1009C20.5631 92.3373 20.5096 92.5916 20.5074 92.8489C20.5052 93.1061 20.5542 93.3613 20.6516 93.5994C20.749 93.8375 20.8929 94.0539 21.0748 94.2358C21.2568 94.4177 21.4731 94.5616 21.7112 94.659C21.9494 94.7564 22.2045 94.8055 22.4618 94.8032C22.719 94.801 22.9733 94.7475 23.2097 94.646C23.4461 94.5444 23.6599 94.3968 23.8386 94.2118L36.5648 81.4895ZM31.4107 91.9642C31.4107 91.1933 31.717 90.4541 32.262 89.909C32.8071 89.364 33.5463 89.0578 34.3171 89.0578C35.088 89.0578 35.8272 89.364 36.3723 89.909C36.9173 90.4541 37.2235 91.1933 37.2235 91.9642C37.2235 92.735 36.9173 93.4742 36.3723 94.0193C35.8272 94.5644 35.088 94.8706 34.3171 94.8706C33.5463 94.8706 32.8071 94.5644 32.262 94.0193C31.717 93.4742 31.4107 92.735 31.4107 91.9642Z" fill="url(#paint0_linear_3846_1523)"/>
</g>
<g clip-path="url(#clip1_3846_1523)">
<path fill-rule="evenodd" clip-rule="evenodd" d="M123.019 122.153C123.257 121.884 123.564 121.686 123.908 121.581C124.251 121.477 124.617 121.469 124.965 121.561C129.262 122.68 135.866 125.591 141.43 130.772C147.038 136 151.626 143.583 151.626 153.926C151.626 158.022 150.708 163.033 147.526 167.183C144.294 171.407 138.935 174.469 130.619 174.984H130.595C119.512 175.542 111.731 169.783 108.604 161.851C105.503 153.988 107.057 144.207 114.044 136.786C114.229 136.589 114.453 136.433 114.702 136.328C114.95 136.223 115.218 136.171 115.488 136.175C115.758 136.179 116.025 136.24 116.27 136.353C116.515 136.467 116.734 136.63 116.912 136.833L121.814 142.397C123.608 139.197 124.48 136.406 124.612 133.612C124.748 130.772 124.12 127.772 122.674 124.157C122.541 123.823 122.503 123.46 122.565 123.106C122.626 122.752 122.785 122.422 123.023 122.153H123.019ZM122.826 151.624C122.826 151.243 122.901 150.865 123.047 150.512C123.193 150.159 123.407 149.839 123.677 149.569C123.947 149.299 124.267 149.085 124.62 148.939C124.972 148.793 125.35 148.718 125.732 148.718C126.114 148.718 126.492 148.793 126.844 148.939C127.197 149.085 127.517 149.299 127.787 149.569C128.057 149.839 128.271 150.159 128.417 150.512C128.563 150.865 128.638 151.243 128.638 151.624C128.638 152.395 128.332 153.134 127.787 153.679C127.242 154.224 126.503 154.531 125.732 154.531C124.961 154.531 124.222 154.224 123.677 153.679C123.132 153.134 122.826 152.395 122.826 151.624ZM138.288 152.113C138.467 151.932 138.61 151.719 138.707 151.483C138.805 151.248 138.855 150.996 138.854 150.741C138.854 150.487 138.804 150.235 138.706 150C138.609 149.764 138.466 149.551 138.286 149.371C138.105 149.191 137.892 149.048 137.656 148.951C137.421 148.854 137.169 148.804 136.914 148.804C136.66 148.804 136.408 148.855 136.173 148.952C135.937 149.05 135.724 149.193 135.544 149.373L122.822 162.095C122.637 162.274 122.489 162.488 122.387 162.724C122.286 162.96 122.232 163.215 122.23 163.472C122.228 163.729 122.277 163.984 122.374 164.222C122.472 164.461 122.616 164.677 122.798 164.859C122.98 165.041 123.196 165.185 123.434 165.282C123.672 165.379 123.927 165.429 124.185 165.426C124.442 165.424 124.696 165.371 124.932 165.269C125.169 165.167 125.383 165.02 125.561 164.835L138.288 152.113ZM133.134 162.587C133.134 161.816 133.44 161.077 133.985 160.532C134.53 159.987 135.269 159.681 136.04 159.681C136.811 159.681 137.55 159.987 138.095 160.532C138.64 161.077 138.946 161.816 138.946 162.587C138.946 163.358 138.64 164.097 138.095 164.642C137.55 165.187 136.811 165.494 136.04 165.494C135.269 165.494 134.53 165.187 133.985 164.642C133.44 164.097 133.134 163.358 133.134 162.587Z" fill="url(#paint1_linear_3846_1523)"/>
</g>
<g clip-path="url(#clip2_3846_1523)">
<path fill-rule="evenodd" clip-rule="evenodd" d="M116.782 1.58763C117.153 1.16728 117.633 0.858176 118.169 0.694814C118.705 0.531452 119.276 0.520263 119.818 0.662496C126.524 2.40997 136.827 6.951 145.51 15.0354C154.259 23.1923 161.419 35.0255 161.419 51.164C161.419 57.5553 159.986 65.3736 155.021 71.8496C149.978 78.4404 141.616 83.2172 128.64 84.0214H128.604C111.31 84.8922 99.1686 75.9069 94.2889 63.5294C89.4516 51.2608 91.8763 35.999 102.778 24.4197C103.067 24.1125 103.416 23.869 103.804 23.7047C104.192 23.5405 104.61 23.4592 105.032 23.466C105.453 23.4728 105.868 23.5677 106.251 23.7444C106.633 23.9211 106.975 24.1759 107.253 24.4923L114.902 33.1753C117.702 28.1807 119.062 23.8272 119.268 19.4675C119.479 15.0354 118.5 10.3553 116.244 4.71374C116.036 4.19342 115.977 3.62557 116.073 3.07356C116.169 2.52154 116.417 2.0071 116.788 1.58763H116.782ZM116.48 47.5723C116.48 46.9768 116.597 46.3871 116.825 45.8369C117.053 45.2866 117.387 44.7867 117.808 44.3656C118.229 43.9445 118.729 43.6104 119.28 43.3825C119.83 43.1546 120.42 43.0373 121.015 43.0373C121.611 43.0373 122.2 43.1546 122.751 43.3825C123.301 43.6104 123.801 43.9445 124.222 44.3656C124.643 44.7867 124.977 45.2866 125.205 45.8369C125.433 46.3871 125.55 46.9768 125.55 47.5723C125.55 48.7751 125.072 49.9286 124.222 50.779C123.371 51.6295 122.218 52.1073 121.015 52.1073C119.812 52.1073 118.659 51.6295 117.808 50.779C116.958 49.9286 116.48 48.7751 116.48 47.5723ZM140.606 48.3342C140.887 48.0531 141.109 47.7195 141.261 47.3523C141.413 46.9852 141.491 46.5918 141.491 46.1946C141.49 45.7973 141.412 45.404 141.26 45.0371C141.107 44.6702 140.884 44.3369 140.603 44.0562C140.322 43.7755 139.988 43.5529 139.621 43.4011C139.254 43.2494 138.861 43.1714 138.464 43.1717C138.066 43.172 137.673 43.2505 137.306 43.4028C136.939 43.5551 136.606 43.7781 136.325 44.0592L116.474 63.9103C116.185 64.1892 115.955 64.5228 115.797 64.8917C115.638 65.2605 115.555 65.6573 115.551 66.0587C115.548 66.4601 115.624 66.8582 115.776 67.2298C115.928 67.6013 116.153 67.9389 116.437 68.2228C116.72 68.5066 117.058 68.7311 117.43 68.8832C117.801 69.0352 118.199 69.1117 118.601 69.1082C119.002 69.1047 119.399 69.0213 119.768 68.8628C120.137 68.7044 120.47 68.4741 120.749 68.1853L140.606 48.3342ZM132.564 64.6783C132.564 63.4755 133.042 62.322 133.892 61.4715C134.743 60.6211 135.896 60.1433 137.099 60.1433C138.302 60.1433 139.455 60.6211 140.306 61.4715C141.156 62.322 141.634 63.4755 141.634 64.6783C141.634 65.881 141.156 67.0345 140.306 67.885C139.455 68.7354 138.302 69.2132 137.099 69.2132C135.896 69.2132 134.743 68.7354 133.892 67.885C133.042 67.0345 132.564 65.881 132.564 64.6783Z" fill="url(#paint2_linear_3846_1523)"/>
</g>
<defs>
<linearGradient id="paint0_linear_3846_1523" x1="27.6314" y1="50.874" x2="27.6313" y2="162.63" gradientUnits="userSpaceOnUse">
<stop stop-color="#56DDB4"/>
<stop offset="1" stop-color="#1B433B"/>
</linearGradient>
<linearGradient id="paint1_linear_3846_1523" x1="129.354" y1="121.497" x2="129.354" y2="233.253" gradientUnits="userSpaceOnUse">
<stop stop-color="#56DDB4"/>
<stop offset="1" stop-color="#1B433B"/>
</linearGradient>
<linearGradient id="paint2_linear_3846_1523" x1="126.667" y1="0.563477" x2="126.667" y2="174.941" gradientUnits="userSpaceOnUse">
<stop stop-color="#56DDB4"/>
<stop offset="1" stop-color="#1B433B"/>
</linearGradient>
<clipPath id="clip0_3846_1523">
<rect width="54.2527" height="54.2527" fill="white" transform="translate(0.506104 50.5098)"/>
</clipPath>
<clipPath id="clip1_3846_1523">
<rect width="54.2527" height="54.2527" fill="white" transform="translate(102.229 121.134)"/>
</clipPath>
<clipPath id="clip2_3846_1523">
<rect width="84.6529" height="84.6529" fill="white" transform="translate(84.3408)"/>
</clipPath>
</defs>
</svg>
