<svg width="517" height="196" viewBox="0 0 517 196" fill="none" xmlns="http://www.w3.org/2000/svg">
<path opacity="0.2" d="M236.595 160.888C236.595 175.024 229.908 186.494 221.657 186.494C213.407 186.494 206.72 175.024 206.72 160.888C206.72 146.751 213.407 135.281 221.657 135.281C229.908 135.281 236.595 146.751 236.595 160.888Z" fill="white"/>
<path d="M246.865 141.707C243.646 136.188 239.239 133.147 234.46 133.147H221.656C216.876 133.147 212.47 136.188 209.251 141.707C206.242 146.863 204.585 153.686 204.585 160.888C204.585 168.089 206.242 174.912 209.251 180.068C212.47 185.587 216.876 188.628 221.656 188.628H234.46C239.239 188.628 243.646 185.587 246.865 180.068C249.874 174.912 251.53 168.089 251.53 160.888C251.53 153.686 249.874 146.863 246.865 141.707ZM247.207 158.754H238.671C238.504 154.375 237.633 150.052 236.089 145.951H244.249C245.881 149.52 246.959 153.953 247.207 158.754ZM241.712 141.683H234.049C233.158 140.137 232.083 138.704 230.848 137.415H234.46C237.127 137.415 239.634 139.016 241.712 141.683ZM208.853 160.888C208.853 148.165 214.721 137.415 221.656 137.415C228.591 137.415 234.46 148.165 234.46 160.888C234.46 173.611 228.591 184.36 221.656 184.36C214.721 184.36 208.853 173.611 208.853 160.888ZM234.46 184.36H230.856C232.091 183.072 233.166 181.639 234.057 180.092H241.72C239.634 182.76 237.127 184.36 234.46 184.36ZM244.249 175.825H236.092C237.635 171.724 238.507 167.4 238.674 163.022H247.209C246.959 167.823 245.881 172.256 244.249 175.825Z" fill="white"/>
<g clip-path="url(#clip0_3846_1522)">
<path fill-rule="evenodd" clip-rule="evenodd" d="M195.296 51.5304C195.534 51.261 195.842 51.0629 196.185 50.9582C196.529 50.8535 196.894 50.8463 197.242 50.9375C201.539 52.0574 208.143 54.9677 213.708 60.1488C219.315 65.3765 223.903 72.9602 223.903 83.3031C223.903 87.3992 222.985 92.4098 219.803 96.5601C216.571 100.784 211.212 103.846 202.896 104.361H202.872C191.789 104.919 184.008 99.1604 180.881 91.2279C177.781 83.3651 179.335 73.5841 186.322 66.1631C186.506 65.9662 186.73 65.8101 186.979 65.7049C187.228 65.5996 187.496 65.5475 187.766 65.5519C188.036 65.5563 188.302 65.617 188.547 65.7303C188.792 65.8436 189.011 66.0068 189.189 66.2096L194.091 71.7744C195.886 68.5735 196.757 65.7834 196.889 62.9893C197.025 60.1488 196.397 57.1494 194.952 53.5339C194.818 53.2004 194.78 52.8365 194.842 52.4827C194.904 52.1289 195.062 51.7992 195.3 51.5304H195.296ZM195.103 81.0012C195.103 80.6196 195.178 80.2416 195.324 79.889C195.47 79.5364 195.684 79.216 195.954 78.9461C196.224 78.6762 196.544 78.4621 196.897 78.3161C197.25 78.17 197.627 78.0948 198.009 78.0948C198.391 78.0948 198.769 78.17 199.121 78.3161C199.474 78.4621 199.794 78.6762 200.064 78.9461C200.334 79.216 200.548 79.5364 200.694 79.889C200.84 80.2416 200.916 80.6196 200.916 81.0012C200.916 81.7721 200.609 82.5113 200.064 83.0564C199.519 83.6014 198.78 83.9076 198.009 83.9076C197.238 83.9076 196.499 83.6014 195.954 83.0564C195.409 82.5113 195.103 81.7721 195.103 81.0012ZM210.565 81.4895C210.745 81.3094 210.887 81.0955 210.985 80.8603C211.082 80.625 211.132 80.3729 211.132 80.1183C211.131 79.8637 211.081 79.6116 210.984 79.3765C210.886 79.1413 210.743 78.9277 210.563 78.7478C210.383 78.5679 210.169 78.4253 209.934 78.328C209.698 78.2307 209.446 78.1808 209.192 78.181C208.937 78.1811 208.685 78.2315 208.45 78.3291C208.215 78.4266 208.001 78.5696 207.821 78.7498L195.099 91.472C194.914 91.6507 194.766 91.8646 194.665 92.1009C194.563 92.3373 194.51 92.5916 194.507 92.8489C194.505 93.1061 194.554 93.3613 194.652 93.5994C194.749 93.8375 194.893 94.0539 195.075 94.2358C195.257 94.4177 195.473 94.5616 195.711 94.659C195.949 94.7564 196.204 94.8055 196.462 94.8032C196.719 94.801 196.973 94.7475 197.21 94.646C197.446 94.5444 197.66 94.3968 197.839 94.2118L210.565 81.4895ZM205.411 91.9642C205.411 91.1933 205.717 90.4541 206.262 89.909C206.807 89.364 207.546 89.0578 208.317 89.0578C209.088 89.0578 209.827 89.364 210.372 89.909C210.917 90.4541 211.224 91.1933 211.224 91.9642C211.224 92.735 210.917 93.4742 210.372 94.0193C209.827 94.5644 209.088 94.8706 208.317 94.8706C207.546 94.8706 206.807 94.5644 206.262 94.0193C205.717 93.4742 205.411 92.735 205.411 91.9642Z" fill="url(#paint0_linear_3846_1522)"/>
</g>
<g clip-path="url(#clip1_3846_1522)">
<path fill-rule="evenodd" clip-rule="evenodd" d="M297.019 122.153C297.257 121.884 297.564 121.686 297.908 121.581C298.251 121.477 298.617 121.469 298.965 121.561C303.262 122.68 309.866 125.591 315.43 130.772C321.038 136 325.626 143.583 325.626 153.926C325.626 158.022 324.708 163.033 321.526 167.183C318.294 171.407 312.935 174.469 304.619 174.984H304.595C293.512 175.542 285.731 169.783 282.604 161.851C279.503 153.988 281.057 144.207 288.044 136.786C288.229 136.589 288.453 136.433 288.702 136.328C288.95 136.223 289.218 136.171 289.488 136.175C289.758 136.179 290.025 136.24 290.27 136.353C290.515 136.467 290.734 136.63 290.912 136.833L295.814 142.397C297.608 139.197 298.48 136.406 298.612 133.612C298.748 130.772 298.12 127.772 296.674 124.157C296.541 123.823 296.503 123.46 296.565 123.106C296.626 122.752 296.785 122.422 297.023 122.153H297.019ZM296.826 151.624C296.826 151.243 296.901 150.865 297.047 150.512C297.193 150.159 297.407 149.839 297.677 149.569C297.947 149.299 298.267 149.085 298.62 148.939C298.972 148.793 299.35 148.718 299.732 148.718C300.114 148.718 300.492 148.793 300.844 148.939C301.197 149.085 301.517 149.299 301.787 149.569C302.057 149.839 302.271 150.159 302.417 150.512C302.563 150.865 302.638 151.243 302.638 151.624C302.638 152.395 302.332 153.134 301.787 153.679C301.242 154.224 300.503 154.531 299.732 154.531C298.961 154.531 298.222 154.224 297.677 153.679C297.132 153.134 296.826 152.395 296.826 151.624ZM312.288 152.113C312.467 151.932 312.61 151.719 312.707 151.483C312.805 151.248 312.855 150.996 312.854 150.741C312.854 150.487 312.804 150.235 312.706 150C312.609 149.764 312.466 149.551 312.286 149.371C312.105 149.191 311.892 149.048 311.656 148.951C311.421 148.854 311.169 148.804 310.914 148.804C310.66 148.804 310.408 148.855 310.173 148.952C309.937 149.05 309.724 149.193 309.544 149.373L296.822 162.095C296.637 162.274 296.489 162.488 296.387 162.724C296.286 162.96 296.232 163.215 296.23 163.472C296.228 163.729 296.277 163.984 296.374 164.222C296.472 164.461 296.616 164.677 296.798 164.859C296.98 165.041 297.196 165.185 297.434 165.282C297.672 165.379 297.927 165.429 298.185 165.426C298.442 165.424 298.696 165.371 298.932 165.269C299.169 165.167 299.383 165.02 299.561 164.835L312.288 152.113ZM307.134 162.587C307.134 161.816 307.44 161.077 307.985 160.532C308.53 159.987 309.269 159.681 310.04 159.681C310.811 159.681 311.55 159.987 312.095 160.532C312.64 161.077 312.946 161.816 312.946 162.587C312.946 163.358 312.64 164.097 312.095 164.642C311.55 165.187 310.811 165.494 310.04 165.494C309.269 165.494 308.53 165.187 307.985 164.642C307.44 164.097 307.134 163.358 307.134 162.587Z" fill="url(#paint1_linear_3846_1522)"/>
</g>
<g clip-path="url(#clip2_3846_1522)">
<path fill-rule="evenodd" clip-rule="evenodd" d="M290.782 1.58763C291.153 1.16728 291.633 0.858176 292.169 0.694814C292.705 0.531452 293.276 0.520263 293.818 0.662496C300.524 2.40997 310.827 6.951 319.51 15.0354C328.259 23.1923 335.419 35.0255 335.419 51.164C335.419 57.5553 333.986 65.3736 329.021 71.8496C323.978 78.4404 315.616 83.2172 302.64 84.0214H302.604C285.31 84.8922 273.169 75.9069 268.289 63.5294C263.452 51.2608 265.876 35.999 276.778 24.4197C277.067 24.1125 277.416 23.869 277.804 23.7047C278.192 23.5405 278.61 23.4592 279.032 23.466C279.453 23.4728 279.868 23.5677 280.251 23.7444C280.633 23.9211 280.975 24.1759 281.253 24.4923L288.902 33.1753C291.702 28.1807 293.062 23.8272 293.268 19.4675C293.479 15.0354 292.5 10.3553 290.244 4.71374C290.036 4.19342 289.977 3.62557 290.073 3.07356C290.169 2.52154 290.417 2.0071 290.788 1.58763H290.782ZM290.48 47.5723C290.48 46.9768 290.597 46.3871 290.825 45.8369C291.053 45.2866 291.387 44.7867 291.808 44.3656C292.229 43.9445 292.729 43.6104 293.28 43.3825C293.83 43.1546 294.42 43.0373 295.015 43.0373C295.611 43.0373 296.2 43.1546 296.751 43.3825C297.301 43.6104 297.801 43.9445 298.222 44.3656C298.643 44.7867 298.977 45.2866 299.205 45.8369C299.433 46.3871 299.55 46.9768 299.55 47.5723C299.55 48.7751 299.072 49.9286 298.222 50.779C297.371 51.6295 296.218 52.1073 295.015 52.1073C293.812 52.1073 292.659 51.6295 291.808 50.779C290.958 49.9286 290.48 48.7751 290.48 47.5723ZM314.606 48.3342C314.887 48.0531 315.109 47.7195 315.261 47.3523C315.413 46.9852 315.491 46.5918 315.491 46.1946C315.49 45.7973 315.412 45.404 315.26 45.0371C315.107 44.6702 314.884 44.3369 314.603 44.0562C314.322 43.7755 313.988 43.5529 313.621 43.4011C313.254 43.2494 312.861 43.1714 312.464 43.1717C312.066 43.172 311.673 43.2505 311.306 43.4028C310.939 43.5551 310.606 43.7781 310.325 44.0592L290.474 63.9103C290.185 64.1892 289.955 64.5228 289.797 64.8917C289.638 65.2605 289.555 65.6573 289.551 66.0587C289.548 66.4601 289.624 66.8582 289.776 67.2298C289.928 67.6013 290.153 67.9389 290.437 68.2228C290.72 68.5066 291.058 68.7311 291.43 68.8832C291.801 69.0352 292.199 69.1117 292.601 69.1082C293.002 69.1047 293.399 69.0213 293.768 68.8628C294.137 68.7044 294.47 68.4741 294.749 68.1853L314.606 48.3342ZM306.564 64.6783C306.564 63.4755 307.042 62.322 307.892 61.4715C308.743 60.6211 309.896 60.1433 311.099 60.1433C312.302 60.1433 313.455 60.6211 314.306 61.4715C315.156 62.322 315.634 63.4755 315.634 64.6783C315.634 65.881 315.156 67.0345 314.306 67.885C313.455 68.7354 312.302 69.2132 311.099 69.2132C309.896 69.2132 308.743 68.7354 307.892 67.885C307.042 67.0345 306.564 65.881 306.564 64.6783Z" fill="url(#paint2_linear_3846_1522)"/>
</g>
<defs>
<linearGradient id="paint0_linear_3846_1522" x1="201.631" y1="50.874" x2="201.631" y2="162.63" gradientUnits="userSpaceOnUse">
<stop stop-color="#56DDB4"/>
<stop offset="1" stop-color="#1B433B"/>
</linearGradient>
<linearGradient id="paint1_linear_3846_1522" x1="303.354" y1="121.497" x2="303.354" y2="233.253" gradientUnits="userSpaceOnUse">
<stop stop-color="#56DDB4"/>
<stop offset="1" stop-color="#1B433B"/>
</linearGradient>
<linearGradient id="paint2_linear_3846_1522" x1="300.667" y1="0.563477" x2="300.667" y2="174.941" gradientUnits="userSpaceOnUse">
<stop stop-color="#56DDB4"/>
<stop offset="1" stop-color="#1B433B"/>
</linearGradient>
<clipPath id="clip0_3846_1522">
<rect width="54.2527" height="54.2527" fill="white" transform="translate(174.506 50.5098)"/>
</clipPath>
<clipPath id="clip1_3846_1522">
<rect width="54.2527" height="54.2527" fill="white" transform="translate(276.229 121.134)"/>
</clipPath>
<clipPath id="clip2_3846_1522">
<rect width="84.6529" height="84.6529" fill="white" transform="translate(258.341)"/>
</clipPath>
</defs>
</svg>
