<svg width="21" height="20" viewBox="0 0 21 20" fill="none" xmlns="http://www.w3.org/2000/svg">
<g id="u:copyright">
<path id="Vector" d="M9.66669 7.49984H11.3334C11.5544 7.49984 11.7663 7.58764 11.9226 7.74392C12.0789 7.9002 12.1667 8.11216 12.1667 8.33317C12.1667 8.55418 12.2545 8.76615 12.4108 8.92243C12.567 9.07871 12.779 9.1665 13 9.1665C13.221 9.1665 13.433 9.07871 13.5893 8.92243C13.7456 8.76615 13.8334 8.55418 13.8334 8.33317C13.8334 7.67013 13.57 7.03425 13.1011 6.5654C12.6323 6.09656 11.9964 5.83317 11.3334 5.83317H9.66669C9.00365 5.83317 8.36776 6.09656 7.89892 6.5654C7.43008 7.03425 7.16669 7.67013 7.16669 8.33317V11.6665C7.16669 12.3295 7.43008 12.9654 7.89892 13.4343C8.36776 13.9031 9.00365 14.1665 9.66669 14.1665H11.3334C11.9964 14.1665 12.6323 13.9031 13.1011 13.4343C13.57 12.9654 13.8334 12.3295 13.8334 11.6665C13.8334 11.4455 13.7456 11.2335 13.5893 11.0772C13.433 10.921 13.221 10.8332 13 10.8332C12.779 10.8332 12.567 10.921 12.4108 11.0772C12.2545 11.2335 12.1667 11.4455 12.1667 11.6665C12.1667 11.8875 12.0789 12.0995 11.9226 12.2558C11.7663 12.412 11.5544 12.4998 11.3334 12.4998H9.66669C9.44568 12.4998 9.23372 12.412 9.07744 12.2558C8.92115 12.0995 8.83336 11.8875 8.83336 11.6665V8.33317C8.83336 8.11216 8.92115 7.9002 9.07744 7.74392C9.23372 7.58764 9.44568 7.49984 9.66669 7.49984ZM10.5 1.6665C8.85185 1.6665 7.24068 2.15525 5.87027 3.07092C4.49986 3.9866 3.43176 5.28809 2.80103 6.81081C2.1703 8.33353 2.00527 10.0091 2.32681 11.6256C2.64836 13.2421 3.44203 14.727 4.60747 15.8924C5.77291 17.0578 7.25776 17.8515 8.87427 18.173C10.4908 18.4946 12.1663 18.3296 13.6891 17.6988C15.2118 17.0681 16.5133 16 17.4289 14.6296C18.3446 13.2592 18.8334 11.648 18.8334 9.99984C18.8334 8.90549 18.6178 7.82186 18.199 6.81081C17.7802 5.79976 17.1664 4.8811 16.3926 4.10728C15.6188 3.33346 14.7001 2.71963 13.6891 2.30084C12.678 1.88205 11.5944 1.6665 10.5 1.6665ZM10.5 16.6665C9.18148 16.6665 7.89255 16.2755 6.79622 15.543C5.69989 14.8104 4.84541 13.7692 4.34083 12.5511C3.83624 11.3329 3.70422 9.99244 3.96146 8.69924C4.21869 7.40603 4.85363 6.21814 5.78598 5.28579C6.71833 4.35344 7.90622 3.7185 9.19942 3.46127C10.4926 3.20403 11.8331 3.33606 13.0512 3.84064C14.2694 4.34522 15.3106 5.19971 16.0432 6.29604C16.7757 7.39236 17.1667 8.6813 17.1667 9.99984C17.1667 11.7679 16.4643 13.4636 15.2141 14.7139C13.9638 15.9641 12.2681 16.6665 10.5 16.6665Z" fill="#7E8B87"/>
</g>
</svg>
