<svg width="20" height="16" viewBox="0 0 20 16" fill="none" xmlns="http://www.w3.org/2000/svg">
<path id="Vector" d="M8.10357 2.09107C7.94786 1.65187 7.79071 1.20905 7.78786 1.20326C7.71286 1.03294 7.53929 0.925678 7.35643 0.944522C7.24071 0.953943 4.50286 1.19311 2.74857 2.62448C1.83143 3.48403 0 8.5094 0 12.8542C0 12.9311 0.0192857 13.0057 0.0571429 13.0724C1.32214 15.3264 4.77071 15.9163 5.55643 15.9417C5.56143 15.9424 5.56571 15.9424 5.57 15.9424C5.70857 15.9424 5.83857 15.875 5.92143 15.7612L6.77143 14.5929C5.36714 14.3762 5.11357 14.0936 5.05429 14.0494C4.73714 13.8124 4.50286 13.4804 4.78714 13.0615C5.00571 12.7361 5.46429 12.6289 5.81571 12.8122C6.17571 12.9825 7.13929 13.5304 10 13.5159C12.8407 13.5072 14.0879 12.9035 14.1057 12.8905C14.5829 12.6723 14.955 12.7622 15.1871 13.0854C15.4636 13.5254 15.2664 13.8232 14.9507 14.0595C14.8914 14.1037 14.7479 14.2276 13.2393 14.59L14.0786 15.7605C14.1607 15.875 14.2914 15.9417 14.43 15.9417C14.435 15.9417 14.4393 15.9417 14.4436 15.9409C15.23 15.9156 18.6786 15.3256 19.9429 13.0717C19.9807 13.005 20 12.9303 20 12.8535C20 8.5094 18.1686 3.48403 17.2286 2.60564C15.4971 1.19383 12.7593 0.954668 12.6436 0.944522C12.4607 0.928577 12.2871 1.03367 12.2121 1.20326C12.2093 1.20905 12.0564 1.65912 11.9086 2.09324C11.9086 2.09324 10.7436 1.92003 10 1.92003C9.25643 1.92003 8.10357 2.09107 8.10357 2.09107ZM7.14286 11.3417C6.35357 11.3417 5.71429 10.3756 5.71429 9.18269C5.71429 7.98976 6.35357 7.02368 7.14286 7.02368C7.935 6.9041 8.55429 7.98976 8.57143 9.18269C8.57143 10.3756 7.93214 11.3417 7.14286 11.3417ZM12.8571 11.3417C12.0679 11.3417 11.4286 10.3691 11.4286 9.16965C11.4286 7.97019 12.0679 6.99759 12.8571 6.99759C13.6464 6.99759 14.2857 7.97019 14.2857 9.16965C14.2857 10.3691 13.6464 11.3417 12.8571 11.3417Z" fill="white"/>
</svg>
