<svg width="176" height="110" viewBox="0 0 176 110" fill="none" xmlns="http://www.w3.org/2000/svg">
<path d="M90.2717 13.605C89.5999 13.2088 88.838 13.0002 88.0622 13.0002C87.2866 13.0002 86.5246 13.2088 85.8528 13.605L69.3133 23.3641C68.6475 23.7598 68.0945 24.3261 67.7091 25.0074C67.3237 25.6886 67.1195 26.4608 67.1163 27.2477V35.6954L97.3815 17.7911L90.2717 13.605Z" fill="white"/>
<path d="M109.083 27.2489C109.079 26.4619 108.875 25.6897 108.489 25.0085C108.103 24.3273 107.551 23.7609 106.885 23.3653L104.417 21.9531L67.1163 43.9427V46.7671C67.1151 47.5582 67.3175 48.3356 67.7031 49.0216C68.0887 49.7076 68.6439 50.2782 69.3133 50.6758L72.0534 52.2393L109.083 30.4261V27.2489Z" fill="white"/>
<path d="M90.2726 60.4346L106.812 50.6754C107.496 50.2875 108.066 49.7211 108.464 49.0345C108.864 48.3477 109.078 47.5653 109.084 46.7667V38.7476L79.1395 56.3999L85.9279 60.4346C86.5947 60.8056 87.3412 60.9998 88.1002 60.9998C88.8592 60.9998 89.6062 60.8056 90.2726 60.4346Z" fill="white"/>
<path d="M17.6417 89.94V94.02H22.4417V95.88H17.6417V100.14H23.0417V102H15.3617V88.08H23.0417V89.94H17.6417ZM25.09 96.44C25.09 95.3333 25.3166 94.3533 25.77 93.5C26.2366 92.6467 26.8633 91.9867 27.65 91.52C28.45 91.04 29.3366 90.8 30.31 90.8C31.1633 90.8 31.9166 90.9733 32.57 91.32C33.2366 91.6667 33.75 92.0867 34.11 92.58V90.98H36.41V107.24H34.11V100.4C33.75 100.893 33.23 101.313 32.55 101.66C31.87 102.007 31.0966 102.18 30.23 102.18C29.2833 102.18 28.4166 101.94 27.63 101.46C26.8566 100.967 26.2366 100.287 25.77 99.42C25.3166 98.54 25.09 97.5467 25.09 96.44ZM34.11 96.48C34.11 95.72 33.95 95.06 33.63 94.5C33.3233 93.94 32.9166 93.5133 32.41 93.22C31.9033 92.9267 31.3566 92.78 30.77 92.78C30.1833 92.78 29.6366 92.9267 29.13 93.22C28.6233 93.5 28.21 93.92 27.89 94.48C27.5833 95.0267 27.43 95.68 27.43 96.44C27.43 97.2 27.5833 97.8667 27.89 98.44C28.21 99.0133 28.6233 99.4533 29.13 99.76C29.65 100.053 30.1966 100.2 30.77 100.2C31.3566 100.2 31.9033 100.053 32.41 99.76C32.9166 99.4667 33.3233 99.04 33.63 98.48C33.95 97.9067 34.11 97.24 34.11 96.48ZM49.3847 90.98V102H47.1047V100.7C46.7447 101.153 46.2713 101.513 45.6847 101.78C45.1113 102.033 44.498 102.16 43.8447 102.16C42.978 102.16 42.198 101.98 41.5047 101.62C40.8247 101.26 40.2847 100.727 39.8847 100.02C39.498 99.3133 39.3047 98.46 39.3047 97.46V90.98H41.5647V97.12C41.5647 98.1067 41.8113 98.8667 42.3047 99.4C42.798 99.92 43.4713 100.18 44.3247 100.18C45.178 100.18 45.8513 99.92 46.3447 99.4C46.8513 98.8667 47.1047 98.1067 47.1047 97.12V90.98H49.3847ZM53.5529 89.52C53.1396 89.52 52.7929 89.38 52.5129 89.1C52.2329 88.82 52.0929 88.4733 52.0929 88.06C52.0929 87.6467 52.2329 87.3 52.5129 87.02C52.7929 86.74 53.1396 86.6 53.5529 86.6C53.9529 86.6 54.2929 86.74 54.5729 87.02C54.8529 87.3 54.9929 87.6467 54.9929 88.06C54.9929 88.4733 54.8529 88.82 54.5729 89.1C54.2929 89.38 53.9529 89.52 53.5529 89.52ZM54.6729 90.98V102H52.3929V90.98H54.6729ZM60.3264 92.84V98.94C60.3264 99.3533 60.4197 99.6533 60.6064 99.84C60.8064 100.013 61.1397 100.1 61.6064 100.1H63.0064V102H61.2064C60.1797 102 59.393 101.76 58.8464 101.28C58.2997 100.8 58.0264 100.02 58.0264 98.94V92.84H56.7264V90.98H58.0264V88.24H60.3264V90.98H63.0064V92.84H60.3264ZM69.8878 102.18C68.8478 102.18 67.9078 101.947 67.0678 101.48C66.2278 101 65.5678 100.333 65.0878 99.48C64.6078 98.6133 64.3678 97.6133 64.3678 96.48C64.3678 95.36 64.6145 94.3667 65.1078 93.5C65.6011 92.6333 66.2745 91.9667 67.1278 91.5C67.9811 91.0333 68.9345 90.8 69.9878 90.8C71.0411 90.8 71.9945 91.0333 72.8478 91.5C73.7011 91.9667 74.3745 92.6333 74.8678 93.5C75.3611 94.3667 75.6078 95.36 75.6078 96.48C75.6078 97.6 75.3545 98.5933 74.8478 99.46C74.3411 100.327 73.6478 101 72.7678 101.48C71.9011 101.947 70.9411 102.18 69.8878 102.18ZM69.8878 100.2C70.4745 100.2 71.0211 100.06 71.5278 99.78C72.0478 99.5 72.4678 99.08 72.7878 98.52C73.1078 97.96 73.2678 97.28 73.2678 96.48C73.2678 95.68 73.1145 95.0067 72.8078 94.46C72.5011 93.9 72.0945 93.48 71.5878 93.2C71.0811 92.92 70.5345 92.78 69.9478 92.78C69.3611 92.78 68.8145 92.92 68.3078 93.2C67.8145 93.48 67.4211 93.9 67.1278 94.46C66.8345 95.0067 66.6878 95.68 66.6878 96.48C66.6878 97.6667 66.9878 98.5867 67.5878 99.24C68.2011 99.88 68.9678 100.2 69.8878 100.2ZM88.617 90.8C89.4837 90.8 90.257 90.98 90.937 91.34C91.6303 91.7 92.1703 92.2333 92.557 92.94C92.9437 93.6467 93.137 94.5 93.137 95.5V102H90.877V95.84C90.877 94.8533 90.6303 94.1 90.137 93.58C89.6437 93.0467 88.9703 92.78 88.117 92.78C87.2637 92.78 86.5837 93.0467 86.077 93.58C85.5837 94.1 85.337 94.8533 85.337 95.84V102H83.057V90.98H85.337V92.24C85.7103 91.7867 86.1837 91.4333 86.757 91.18C87.3437 90.9267 87.9637 90.8 88.617 90.8ZM106.145 96.22C106.145 96.6333 106.119 97.0067 106.065 97.34H97.6453C97.712 98.22 98.0386 98.9267 98.6253 99.46C99.212 99.9933 99.932 100.26 100.785 100.26C102.012 100.26 102.879 99.7467 103.385 98.72H105.845C105.512 99.7333 104.905 100.567 104.025 101.22C103.159 101.86 102.079 102.18 100.785 102.18C99.732 102.18 98.7853 101.947 97.9453 101.48C97.1186 101 96.4653 100.333 95.9853 99.48C95.5186 98.6133 95.2853 97.6133 95.2853 96.48C95.2853 95.3467 95.512 94.3533 95.9653 93.5C96.432 92.6333 97.0786 91.9667 97.9053 91.5C98.7453 91.0333 99.7053 90.8 100.785 90.8C101.825 90.8 102.752 91.0267 103.565 91.48C104.379 91.9333 105.012 92.5733 105.465 93.4C105.919 94.2133 106.145 95.1533 106.145 96.22ZM103.765 95.5C103.752 94.66 103.452 93.9867 102.865 93.48C102.279 92.9733 101.552 92.72 100.685 92.72C99.8986 92.72 99.2253 92.9733 98.6653 93.48C98.1053 93.9733 97.772 94.6467 97.6653 95.5H103.765ZM111.049 92.84V98.94C111.049 99.3533 111.142 99.6533 111.329 99.84C111.529 100.013 111.862 100.1 112.329 100.1H113.729V102H111.929C110.902 102 110.116 101.76 109.569 101.28C109.022 100.8 108.749 100.02 108.749 98.94V92.84H107.449V90.98H108.749V88.24H111.049V90.98H113.729V92.84H111.049ZM130.63 90.98L127.21 102H124.81L122.59 93.86L120.37 102H117.97L114.53 90.98H116.85L119.15 99.84L121.49 90.98H123.87L126.11 99.8L128.39 90.98H130.63ZM137.114 102.18C136.074 102.18 135.134 101.947 134.294 101.48C133.454 101 132.794 100.333 132.314 99.48C131.834 98.6133 131.594 97.6133 131.594 96.48C131.594 95.36 131.841 94.3667 132.334 93.5C132.828 92.6333 133.501 91.9667 134.354 91.5C135.208 91.0333 136.161 90.8 137.214 90.8C138.268 90.8 139.221 91.0333 140.074 91.5C140.928 91.9667 141.601 92.6333 142.094 93.5C142.588 94.3667 142.834 95.36 142.834 96.48C142.834 97.6 142.581 98.5933 142.074 99.46C141.568 100.327 140.874 101 139.994 101.48C139.128 101.947 138.168 102.18 137.114 102.18ZM137.114 100.2C137.701 100.2 138.248 100.06 138.754 99.78C139.274 99.5 139.694 99.08 140.014 98.52C140.334 97.96 140.494 97.28 140.494 96.48C140.494 95.68 140.341 95.0067 140.034 94.46C139.728 93.9 139.321 93.48 138.814 93.2C138.308 92.92 137.761 92.78 137.174 92.78C136.588 92.78 136.041 92.92 135.534 93.2C135.041 93.48 134.648 93.9 134.354 94.46C134.061 95.0067 133.914 95.68 133.914 96.48C133.914 97.6667 134.214 98.5867 134.814 99.24C135.428 99.88 136.194 100.2 137.114 100.2ZM147.368 92.58C147.702 92.02 148.142 91.5867 148.688 91.28C149.248 90.96 149.908 90.8 150.668 90.8V93.16H150.088C149.195 93.16 148.515 93.3867 148.048 93.84C147.595 94.2933 147.368 95.08 147.368 96.2V102H145.088V90.98H147.368V92.58ZM157.124 96.5L162.204 102H159.124L155.044 97.26V102H152.764V87.2H155.044V95.8L159.044 90.98H162.204L157.124 96.5Z" fill="white"/>
</svg>
