<svg width="176" height="110" viewBox="0 0 176 110" fill="none" xmlns="http://www.w3.org/2000/svg">
<path d="M90.2717 13.605C89.5999 13.2088 88.838 13.0002 88.0622 13.0002C87.2866 13.0002 86.5246 13.2088 85.8528 13.605L69.3133 23.3641C68.6475 23.7598 68.0945 24.3261 67.7091 25.0074C67.3237 25.6886 67.1195 26.4608 67.1163 27.2477V35.6954L97.3815 17.7911L90.2717 13.605Z" fill="white"/>
<path d="M109.083 27.2489C109.079 26.4619 108.875 25.6897 108.489 25.0085C108.103 24.3273 107.551 23.7609 106.885 23.3653L104.417 21.9531L67.1163 43.9427V46.7671C67.1151 47.5582 67.3175 48.3356 67.7031 49.0216C68.0887 49.7076 68.6439 50.2782 69.3133 50.6758L72.0534 52.2393L109.083 30.4261V27.2489Z" fill="white"/>
<path d="M90.2726 60.4346L106.812 50.6754C107.496 50.2875 108.066 49.7211 108.464 49.0345C108.864 48.3477 109.078 47.5653 109.084 46.7667V38.7476L79.1395 56.3999L85.9279 60.4346C86.5947 60.8056 87.3412 60.9998 88.1002 60.9998C88.8592 60.9998 89.6062 60.8056 90.2726 60.4346Z" fill="white"/>
</svg>
