<svg width="36" height="36" viewBox="0 0 36 36" fill="none" xmlns="http://www.w3.org/2000/svg">
<path d="M18 25.5C15.925 25.5 14.1565 24.7685 12.6945 23.3055C11.2325 21.8425 10.501 20.074 10.5 18C10.499 15.926 11.2305 14.1575 12.6945 12.6945C14.1585 11.2315 15.927 10.5 18 10.5C20.073 10.5 21.842 11.2315 23.307 12.6945C24.772 14.1575 25.503 15.926 25.5 18C25.497 20.074 24.7655 21.843 23.3055 23.307C21.8455 24.771 20.077 25.502 18 25.5ZM7.5 31.5C6.675 31.5 5.969 31.2065 5.382 30.6195C4.795 30.0325 4.501 29.326 4.5 28.5V24C4.5 23.575 4.644 23.219 4.932 22.932C5.22 22.645 5.576 22.501 6 22.5C6.424 22.499 6.7805 22.643 7.0695 22.932C7.3585 23.221 7.502 23.577 7.5 24V28.5H12C12.425 28.5 12.7815 28.644 13.0695 28.932C13.3575 29.22 13.501 29.576 13.5 30C13.499 30.424 13.355 30.7805 13.068 31.0695C12.781 31.3585 12.425 31.502 12 31.5H7.5ZM28.5 31.5H24C23.575 31.5 23.219 31.356 22.932 31.068C22.645 30.78 22.501 30.424 22.5 30C22.499 29.576 22.643 29.22 22.932 28.932C23.221 28.644 23.577 28.5 24 28.5H28.5V24C28.5 23.575 28.644 23.219 28.932 22.932C29.22 22.645 29.576 22.501 30 22.5C30.424 22.499 30.7805 22.643 31.0695 22.932C31.3585 23.221 31.502 23.577 31.5 24V28.5C31.5 29.325 31.2065 30.0315 30.6195 30.6195C30.0325 31.2075 29.326 31.501 28.5 31.5ZM4.5 12V7.5C4.5 6.675 4.794 5.969 5.382 5.382C5.97 4.795 6.676 4.501 7.5 4.5H12C12.425 4.5 12.7815 4.644 13.0695 4.932C13.3575 5.22 13.501 5.576 13.5 6C13.499 6.424 13.355 6.7805 13.068 7.0695C12.781 7.3585 12.425 7.502 12 7.5H7.5V12C7.5 12.425 7.356 12.7815 7.068 13.0695C6.78 13.3575 6.424 13.501 6 13.5C5.576 13.499 5.22 13.355 4.932 13.068C4.644 12.781 4.5 12.425 4.5 12ZM28.5 12V7.5H24C23.575 7.5 23.219 7.356 22.932 7.068C22.645 6.78 22.501 6.424 22.5 6C22.499 5.576 22.643 5.22 22.932 4.932C23.221 4.644 23.577 4.5 24 4.5H28.5C29.325 4.5 30.0315 4.794 30.6195 5.382C31.2075 5.97 31.501 6.676 31.5 7.5V12C31.5 12.425 31.356 12.7815 31.068 13.0695C30.78 13.3575 30.424 13.501 30 13.5C29.576 13.499 29.22 13.355 28.932 13.068C28.644 12.781 28.5 12.425 28.5 12Z" fill="white"/>
</svg>
