<svg width="24" height="23" viewBox="0 0 24 23" fill="none" xmlns="http://www.w3.org/2000/svg">
<g id="u:instagram">
<path id="Vector" d="M17.0063 5.31113C16.7837 5.31113 16.5662 5.37711 16.3812 5.50073C16.1962 5.62435 16.052 5.80005 15.9669 6.00561C15.8817 6.21118 15.8595 6.43738 15.9029 6.65561C15.9463 6.87384 16.0534 7.07429 16.2108 7.23163C16.3681 7.38896 16.5685 7.49611 16.7868 7.53952C17.005 7.58292 17.2312 7.56065 17.4368 7.4755C17.6423 7.39035 17.818 7.24615 17.9417 7.06115C18.0653 6.87614 18.1313 6.65864 18.1313 6.43613C18.1313 6.13776 18.0127 5.85162 17.8017 5.64064C17.5908 5.42966 17.3046 5.31113 17.0063 5.31113ZM21.3188 7.57988C21.3005 6.80204 21.1548 6.03245 20.8875 5.30176C20.6491 4.67657 20.2781 4.11046 19.8 3.64238C19.3358 3.16184 18.7683 2.79317 18.1406 2.56426C17.4119 2.28878 16.6414 2.13977 15.8625 2.12363C14.8688 2.06738 14.55 2.06738 12 2.06738C9.45 2.06738 9.13125 2.06738 8.1375 2.12363C7.35858 2.13977 6.58813 2.28878 5.85937 2.56426C5.23282 2.79549 4.66588 3.16385 4.2 3.64238C3.71946 4.10661 3.35079 4.67404 3.12187 5.30176C2.8464 6.03052 2.69738 6.80096 2.68125 7.57988C2.625 8.57363 2.625 8.89238 2.625 11.4424C2.625 13.9924 2.625 14.3111 2.68125 15.3049C2.69738 16.0838 2.8464 16.8542 3.12187 17.583C3.35079 18.2107 3.71946 18.7782 4.2 19.2424C4.66588 19.7209 5.23282 20.0893 5.85937 20.3205C6.58813 20.596 7.35858 20.745 8.1375 20.7611C9.13125 20.8174 9.45 20.8174 12 20.8174C14.55 20.8174 14.8688 20.8174 15.8625 20.7611C16.6414 20.745 17.4119 20.596 18.1406 20.3205C18.7683 20.0916 19.3358 19.7229 19.8 19.2424C20.2802 18.7761 20.6516 18.2094 20.8875 17.583C21.1548 16.8523 21.3005 16.0827 21.3188 15.3049C21.3188 14.3111 21.375 13.9924 21.375 11.4424C21.375 8.89238 21.375 8.57363 21.3188 7.57988ZM19.6312 15.1924C19.6244 15.7875 19.5166 16.3771 19.3125 16.9361C19.1628 17.3441 18.9224 17.7128 18.6094 18.0143C18.3053 18.3241 17.9374 18.564 17.5312 18.7174C16.9722 18.9215 16.3826 19.0293 15.7875 19.0361C14.85 19.083 14.5031 19.0924 12.0375 19.0924C9.57187 19.0924 9.225 19.0924 8.2875 19.0361C7.66959 19.0477 7.05431 18.9526 6.46875 18.7549C6.08042 18.5937 5.7294 18.3544 5.4375 18.0518C5.12633 17.7506 4.88892 17.3816 4.74375 16.9736C4.51487 16.4066 4.38792 15.8036 4.36875 15.1924C4.36875 14.2549 4.3125 13.908 4.3125 11.4424C4.3125 8.97676 4.3125 8.62988 4.36875 7.69238C4.37295 7.084 4.48402 6.48108 4.69688 5.91113C4.86192 5.51542 5.11525 5.16269 5.4375 4.87988C5.72233 4.55754 6.07433 4.30154 6.46875 4.12988C7.0402 3.92367 7.6425 3.81589 8.25 3.81113C9.1875 3.81113 9.53437 3.75488 12 3.75488C14.4656 3.75488 14.8125 3.75488 15.75 3.81113C16.3451 3.81796 16.9347 3.92574 17.4938 4.12988C17.9198 4.28799 18.3021 4.54505 18.6094 4.87988C18.9166 5.16786 19.1567 5.51994 19.3125 5.91113C19.5209 6.48201 19.6287 7.08468 19.6312 7.69238C19.6781 8.62988 19.6875 8.97676 19.6875 11.4424C19.6875 13.908 19.6781 14.2549 19.6312 15.1924ZM12 6.63301C11.0492 6.63486 10.1203 6.9185 9.33061 7.44809C8.54095 7.97767 7.92598 8.72944 7.56341 9.6084C7.20083 10.4874 7.10693 11.4541 7.29356 12.3864C7.48019 13.3187 7.93897 14.1748 8.61195 14.8464C9.28492 15.5181 10.1419 15.9752 11.0746 16.16C12.0072 16.3448 12.9737 16.249 13.852 15.8848C14.7303 15.5205 15.4808 14.904 16.0089 14.1134C16.5369 13.3227 16.8187 12.3932 16.8187 11.4424C16.82 10.8097 16.6961 10.183 16.4543 9.59828C16.2124 9.01361 15.8574 8.48252 15.4096 8.03556C14.9617 7.58859 14.43 7.23458 13.8448 6.99388C13.2597 6.75318 12.6327 6.63054 12 6.63301ZM12 14.5643C11.3826 14.5643 10.779 14.3812 10.2656 14.0381C9.75219 13.6951 9.35205 13.2075 9.11576 12.6371C8.87948 12.0666 8.81765 11.4389 8.93811 10.8333C9.05857 10.2278 9.3559 9.67149 9.7925 9.23488C10.2291 8.79828 10.7854 8.50095 11.391 8.38049C11.9965 8.26004 12.6242 8.32186 13.1947 8.55815C13.7651 8.79443 14.2527 9.19457 14.5957 9.70796C14.9388 10.2214 15.1219 10.8249 15.1219 11.4424C15.1219 11.8524 15.0411 12.2583 14.8842 12.6371C14.7273 13.0158 14.4974 13.36 14.2075 13.6499C13.9176 13.9398 13.5735 14.1697 13.1947 14.3266C12.8159 14.4835 12.41 14.5643 12 14.5643Z" fill="white"/>
</g>
</svg>
