<svg width="20" height="21" viewBox="0 0 20 21" fill="none" xmlns="http://www.w3.org/2000/svg">
<g id="u:linkedin">
<path id="Vector" d="M17.0583 2.10851H2.94161C2.78293 2.10631 2.62536 2.13539 2.47792 2.19408C2.33047 2.25278 2.19603 2.33995 2.08228 2.45061C1.96852 2.56127 1.87768 2.69325 1.81494 2.83902C1.7522 2.98479 1.71879 3.1415 1.71661 3.30018V17.5835C1.71879 17.7422 1.7522 17.8989 1.81494 18.0447C1.87768 18.1904 1.96852 18.3224 2.08228 18.4331C2.19603 18.5437 2.33047 18.6309 2.47792 18.6896C2.62536 18.7483 2.78293 18.7774 2.94161 18.7752H17.0583C17.217 18.7774 17.3745 18.7483 17.522 18.6896C17.6694 18.6309 17.8039 18.5437 17.9176 18.4331C18.0314 18.3224 18.1222 18.1904 18.185 18.0447C18.2477 17.8989 18.2811 17.7422 18.2833 17.5835V3.30018C18.2811 3.1415 18.2477 2.98479 18.185 2.83902C18.1222 2.69325 18.0314 2.56127 17.9176 2.45061C17.8039 2.33995 17.6694 2.25278 17.522 2.19408C17.3745 2.13539 17.217 2.10631 17.0583 2.10851ZM6.74161 16.0585H4.24161V8.55852H6.74161V16.0585ZM5.49161 7.50851C5.14683 7.50851 4.81617 7.37155 4.57237 7.12775C4.32858 6.88396 4.19161 6.5533 4.19161 6.20852C4.19161 5.86373 4.32858 5.53307 4.57237 5.28928C4.81617 5.04548 5.14683 4.90852 5.49161 4.90852C5.67469 4.88775 5.86009 4.90589 6.03568 4.96175C6.21126 5.01761 6.37306 5.10992 6.51049 5.23265C6.64793 5.35538 6.75788 5.50575 6.83317 5.67392C6.90846 5.84209 6.94738 6.02426 6.94738 6.20852C6.94738 6.39277 6.90846 6.57494 6.83317 6.74311C6.75788 6.91128 6.64793 7.06165 6.51049 7.18438C6.37306 7.30711 6.21126 7.39942 6.03568 7.45528C5.86009 7.51114 5.67469 7.52928 5.49161 7.50851ZM15.7583 16.0585H13.2583V12.0335C13.2583 11.0252 12.8999 10.3668 11.9916 10.3668C11.7105 10.3689 11.4368 10.4571 11.2073 10.6195C10.9778 10.7819 10.8037 11.0107 10.7083 11.2752C10.6431 11.471 10.6148 11.6773 10.6249 11.8835V16.0502H8.12495C8.12495 16.0502 8.12495 9.23351 8.12495 8.55018H10.6249V9.60852C10.8521 9.21444 11.1824 8.88978 11.5803 8.66952C11.9783 8.44925 12.4288 8.34172 12.8833 8.35852C14.5499 8.35852 15.7583 9.43352 15.7583 11.7418V16.0585Z" fill="white"/>
</g>
</svg>
