<svg width="175" height="110" viewBox="0 0 175 110" fill="none" xmlns="http://www.w3.org/2000/svg">
<g clip-path="url(#clip0_4379_221)">
<path d="M87.5414 39.6679C99.0334 39.6679 108.35 35.8004 108.35 31.0297C108.35 26.2589 99.0334 22.3926 87.5414 22.3926C86.2331 22.3926 84.9535 22.4432 83.7119 22.5387C82.6602 22.6193 81.6387 22.7343 80.6476 22.8839" stroke="white" stroke-width="1.5459" stroke-miterlimit="10"/>
<path d="M87.5414 45.6536C99.0334 45.6536 108.35 41.7873 108.35 37.0165C108.35 32.2457 99.0334 28.376 87.5414 28.376C86.2331 28.376 84.9535 28.4266 83.7119 28.5221C82.6602 28.6034 81.6387 28.7166 80.6476 28.8616" stroke="white" stroke-width="1.5459" stroke-miterlimit="10"/>
<path d="M87.5176 28.3833C76.0257 28.3833 66.7096 32.2508 66.7096 37.0215C66.7096 41.7923 76.0303 45.6586 87.5176 45.6586C88.8259 45.6586 90.1055 45.608 91.3471 45.5125C92.3988 45.432 93.4203 45.3188 94.4114 45.173" stroke="white" stroke-width="1.5459" stroke-miterlimit="10"/>
<path d="M87.5176 34.3691C76.0257 34.3691 66.7096 38.2366 66.7096 43.0074C66.7096 47.7781 76.0303 51.6445 87.5176 51.6445C88.8259 51.6445 90.1055 51.595 91.3471 51.4995C92.3988 51.4174 93.4203 51.3023 94.4114 51.1543" stroke="white" stroke-width="1.5459" stroke-miterlimit="10"/>
</g>
<path d="M58.5638 92.24C58.5638 92.9467 58.3971 93.6133 58.0638 94.24C57.7304 94.8667 57.1971 95.38 56.4638 95.78C55.7304 96.1667 54.7904 96.36 53.6438 96.36H51.1238V102H48.8438V88.1H53.6438C54.7104 88.1 55.6104 88.2867 56.3438 88.66C57.0904 89.02 57.6438 89.5133 58.0038 90.14C58.3771 90.7667 58.5638 91.4667 58.5638 92.24ZM53.6438 94.5C54.5104 94.5 55.1571 94.3067 55.5838 93.92C56.0104 93.52 56.2238 92.96 56.2238 92.24C56.2238 90.72 55.3638 89.96 53.6438 89.96H51.1238V94.5H53.6438ZM65.5183 102.18C64.4783 102.18 63.5383 101.947 62.6983 101.48C61.8583 101 61.1983 100.333 60.7183 99.48C60.2383 98.6133 59.9983 97.6133 59.9983 96.48C59.9983 95.36 60.2449 94.3667 60.7383 93.5C61.2316 92.6333 61.9049 91.9667 62.7583 91.5C63.6116 91.0333 64.5649 90.8 65.6183 90.8C66.6716 90.8 67.6249 91.0333 68.4783 91.5C69.3316 91.9667 70.0049 92.6333 70.4983 93.5C70.9916 94.3667 71.2383 95.36 71.2383 96.48C71.2383 97.6 70.9849 98.5933 70.4783 99.46C69.9716 100.327 69.2783 101 68.3983 101.48C67.5316 101.947 66.5716 102.18 65.5183 102.18ZM65.5183 100.2C66.1049 100.2 66.6516 100.06 67.1583 99.78C67.6783 99.5 68.0983 99.08 68.4183 98.52C68.7383 97.96 68.8983 97.28 68.8983 96.48C68.8983 95.68 68.7449 95.0067 68.4383 94.46C68.1316 93.9 67.7249 93.48 67.2183 93.2C66.7116 92.92 66.1649 92.78 65.5783 92.78C64.9916 92.78 64.4449 92.92 63.9383 93.2C63.4449 93.48 63.0516 93.9 62.7583 94.46C62.4649 95.0067 62.3183 95.68 62.3183 96.48C62.3183 97.6667 62.6183 98.5867 63.2183 99.24C63.8316 99.88 64.5983 100.2 65.5183 100.2ZM75.7722 87.2V102H73.4922V87.2H75.7722ZM79.9256 89.52C79.5123 89.52 79.1656 89.38 78.8856 89.1C78.6056 88.82 78.4656 88.4733 78.4656 88.06C78.4656 87.6467 78.6056 87.3 78.8856 87.02C79.1656 86.74 79.5123 86.6 79.9256 86.6C80.3256 86.6 80.6656 86.74 80.9456 87.02C81.2256 87.3 81.3656 87.6467 81.3656 88.06C81.3656 88.4733 81.2256 88.82 80.9456 89.1C80.6656 89.38 80.3256 89.52 79.9256 89.52ZM81.0456 90.98V102H78.7656V90.98H81.0456ZM97.3791 90.8C98.2457 90.8 99.0191 90.98 99.6991 91.34C100.392 91.7 100.932 92.2333 101.319 92.94C101.719 93.6467 101.919 94.5 101.919 95.5V102H99.6591V95.84C99.6591 94.8533 99.4124 94.1 98.9191 93.58C98.4257 93.0467 97.7524 92.78 96.8991 92.78C96.0457 92.78 95.3657 93.0467 94.8591 93.58C94.3657 94.1 94.1191 94.8533 94.1191 95.84V102H91.8591V95.84C91.8591 94.8533 91.6124 94.1 91.1191 93.58C90.6257 93.0467 89.9524 92.78 89.0991 92.78C88.2457 92.78 87.5657 93.0467 87.0591 93.58C86.5657 94.1 86.3191 94.8533 86.3191 95.84V102H84.0391V90.98H86.3191V92.24C86.6924 91.7867 87.1657 91.4333 87.7391 91.18C88.3124 90.9267 88.9257 90.8 89.5791 90.8C90.4591 90.8 91.2457 90.9867 91.9391 91.36C92.6324 91.7333 93.1657 92.2733 93.5391 92.98C93.8724 92.3133 94.3924 91.7867 95.0991 91.4C95.8057 91 96.5657 90.8 97.3791 90.8ZM114.92 96.22C114.92 96.6333 114.894 97.0067 114.84 97.34H106.42C106.487 98.22 106.814 98.9267 107.4 99.46C107.987 99.9933 108.707 100.26 109.56 100.26C110.787 100.26 111.654 99.7467 112.16 98.72H114.62C114.287 99.7333 113.68 100.567 112.8 101.22C111.934 101.86 110.854 102.18 109.56 102.18C108.507 102.18 107.56 101.947 106.72 101.48C105.894 101 105.24 100.333 104.76 99.48C104.294 98.6133 104.06 97.6133 104.06 96.48C104.06 95.3467 104.287 94.3533 104.74 93.5C105.207 92.6333 105.854 91.9667 106.68 91.5C107.52 91.0333 108.48 90.8 109.56 90.8C110.6 90.8 111.527 91.0267 112.34 91.48C113.154 91.9333 113.787 92.5733 114.24 93.4C114.694 94.2133 114.92 95.1533 114.92 96.22ZM112.54 95.5C112.527 94.66 112.227 93.9867 111.64 93.48C111.054 92.9733 110.327 92.72 109.46 92.72C108.674 92.72 108 92.9733 107.44 93.48C106.88 93.9733 106.547 94.6467 106.44 95.5H112.54ZM116.404 96.48C116.404 95.3467 116.631 94.3533 117.084 93.5C117.551 92.6333 118.191 91.9667 119.004 91.5C119.817 91.0333 120.751 90.8 121.804 90.8C123.137 90.8 124.237 91.12 125.104 91.76C125.984 92.3867 126.577 93.2867 126.884 94.46H124.424C124.224 93.9133 123.904 93.4867 123.464 93.18C123.024 92.8733 122.471 92.72 121.804 92.72C120.871 92.72 120.124 93.0533 119.564 93.72C119.017 94.3733 118.744 95.2933 118.744 96.48C118.744 97.6667 119.017 98.5933 119.564 99.26C120.124 99.9267 120.871 100.26 121.804 100.26C123.124 100.26 123.997 99.68 124.424 98.52H126.884C126.564 99.64 125.964 100.533 125.084 101.2C124.204 101.853 123.111 102.18 121.804 102.18C120.751 102.18 119.817 101.947 119.004 101.48C118.191 101 117.551 100.333 117.084 99.48C116.631 98.6133 116.404 97.6133 116.404 96.48Z" fill="white"/>
<defs>
<clipPath id="clip0_4379_221">
<rect width="43.2852" height="30.918" fill="white" transform="translate(65.8574 21.541)"/>
</clipPath>
</defs>
</svg>
