<svg width="175" height="110" viewBox="0 0 175 110" fill="none" xmlns="http://www.w3.org/2000/svg">
<g clip-path="url(#clip0_4379_221)">
<path d="M87.5414 39.6679C99.0334 39.6679 108.35 35.8004 108.35 31.0297C108.35 26.2589 99.0334 22.3926 87.5414 22.3926C86.2331 22.3926 84.9535 22.4432 83.7119 22.5387C82.6602 22.6193 81.6387 22.7343 80.6476 22.8839" stroke="white" stroke-width="1.5459" stroke-miterlimit="10"/>
<path d="M87.5414 45.6536C99.0334 45.6536 108.35 41.7873 108.35 37.0165C108.35 32.2457 99.0334 28.376 87.5414 28.376C86.2331 28.376 84.9535 28.4266 83.7119 28.5221C82.6602 28.6034 81.6387 28.7166 80.6476 28.8616" stroke="white" stroke-width="1.5459" stroke-miterlimit="10"/>
<path d="M87.5176 28.3833C76.0257 28.3833 66.7096 32.2508 66.7096 37.0215C66.7096 41.7923 76.0303 45.6586 87.5176 45.6586C88.8259 45.6586 90.1055 45.608 91.3471 45.5125C92.3988 45.432 93.4203 45.3188 94.4114 45.173" stroke="white" stroke-width="1.5459" stroke-miterlimit="10"/>
<path d="M87.5176 34.3691C76.0257 34.3691 66.7096 38.2366 66.7096 43.0074C66.7096 47.7781 76.0303 51.6445 87.5176 51.6445C88.8259 51.6445 90.1055 51.595 91.3471 51.4995C92.3988 51.4174 93.4203 51.3023 94.4114 51.1543" stroke="white" stroke-width="1.5459" stroke-miterlimit="10"/>
</g>
<defs>
<clipPath id="clip0_4379_221">
<rect width="43.2852" height="30.918" fill="white" transform="translate(65.8574 21.541)"/>
</clipPath>
</defs>
</svg>
