<svg width="36" height="36" viewBox="0 0 36 36" fill="none" xmlns="http://www.w3.org/2000/svg">
<path fill-rule="evenodd" clip-rule="evenodd" d="M6.75675 10.5802L16.2517 6.02395C16.7975 5.76276 17.3949 5.62718 18 5.62718C18.6051 5.62718 19.2025 5.76276 19.7483 6.02395L29.2432 10.5802C29.5819 10.7437 29.8676 10.9993 30.0678 11.3176C30.2679 11.6359 30.3744 12.0042 30.375 12.3802V13.5007C30.3749 16.7284 29.5626 19.9042 28.013 22.7356C26.4634 25.567 24.2263 27.963 21.5077 29.703L19.2892 31.1227C18.9047 31.3698 18.4571 31.5012 18 31.5012C17.5429 31.5012 17.0953 31.3698 16.7108 31.1227L14.4923 29.7052C11.7733 27.9651 9.53605 25.5687 7.98645 22.7369C6.43684 19.905 5.62476 16.7288 5.625 13.5007V12.3802C5.625 11.6129 6.066 10.9132 6.75675 10.5802ZM14.7892 2.98195L5.2965 7.5382C4.38455 7.97686 3.61488 8.66395 3.07596 9.52048C2.53705 10.377 2.25076 11.3682 2.25 12.3802V13.5007C2.24981 17.2948 3.20432 21.028 5.02561 24.3565C6.84691 27.6849 9.47643 30.5015 12.672 32.547L14.8905 33.9645C15.8184 34.5596 16.8976 34.8759 18 34.8759C19.1024 34.8759 20.1816 34.5596 21.1095 33.9645L23.328 32.547C26.5236 30.5015 29.1531 27.6849 30.9744 24.3565C32.7957 21.028 33.7502 17.2948 33.75 13.5007V12.3802C33.75 10.3147 32.5665 8.43145 30.7035 7.5382L21.2085 2.98195C20.207 2.50205 19.1106 2.25293 18 2.25293C16.8894 2.25293 15.7908 2.50205 14.7892 2.98195ZM19.0575 22.4332C18.8917 22.5877 18.7587 22.774 18.6665 22.981C18.5743 23.188 18.5247 23.4114 18.5207 23.638C18.5167 23.8646 18.5584 24.0897 18.6432 24.2998C18.7281 24.5099 18.8544 24.7008 19.0147 24.861C19.1749 25.0213 19.3658 25.1476 19.5759 25.2325C19.786 25.3173 20.0111 25.359 20.2377 25.355C20.4643 25.351 20.6877 25.3014 20.8947 25.2092C21.1017 25.117 21.288 24.984 21.4425 24.8182C22.7362 23.5267 23.958 21.6727 24.8535 19.8794C25.722 18.1424 26.4375 16.1602 26.4375 14.6257C26.4375 14.1781 26.2597 13.7489 25.9432 13.4325C25.6268 13.116 25.1976 12.9382 24.75 12.9382C24.3024 12.9382 23.8732 13.116 23.5568 13.4325C23.2403 13.7489 23.0625 14.1781 23.0625 14.6257C23.0625 15.3412 22.653 16.7339 21.834 18.3719C21.042 19.9537 20.0138 21.4747 19.0575 22.4332Z" fill="white"/>
</svg>
