<svg width="20" height="19" viewBox="0 0 20 19" fill="none" xmlns="http://www.w3.org/2000/svg">
<path d="M10 0.275536C4.94002 0.275536 0.833356 4.3822 0.833356 9.4422C0.833356 14.5022 4.94002 18.6089 10 18.6089C15.06 18.6089 19.1667 14.5022 19.1667 9.4422C19.1667 4.3822 15.06 0.275536 10 0.275536ZM14.2534 6.50887C14.1159 7.9572 13.52 11.4772 13.2175 13.0997C13.0892 13.7872 12.8325 14.0164 12.5942 14.0439C12.0625 14.0897 11.6592 13.6955 11.1459 13.3564C10.3392 12.8247 9.88086 12.4947 9.10169 11.9814C8.19419 11.3855 8.78086 11.0555 9.30336 10.5239C9.44086 10.3864 11.7875 8.25054 11.8334 8.05803C11.8397 8.02888 11.8389 7.99861 11.8309 7.96986C11.8229 7.9411 11.808 7.91473 11.7875 7.89304C11.7325 7.8472 11.6592 7.86554 11.595 7.8747C11.5125 7.89304 10.2292 8.74553 7.72669 10.4322C7.36002 10.6797 7.03002 10.808 6.73669 10.7989C6.40669 10.7897 5.78336 10.6155 5.31586 10.4597C4.73836 10.2764 4.28919 10.1755 4.32586 9.8547C4.34419 9.6897 4.57336 9.5247 5.00419 9.35053C7.68086 8.18637 9.45919 7.41637 10.3484 7.0497C12.8967 5.98637 13.4192 5.80304 13.7675 5.80304C13.8409 5.80304 14.015 5.82137 14.125 5.91303C14.2167 5.98637 14.2442 6.0872 14.2534 6.16054C14.2442 6.21554 14.2625 6.38054 14.2534 6.50887Z" fill="white"/>
</svg>
