<svg width="20" height="21" viewBox="0 0 20 21" fill="none" xmlns="http://www.w3.org/2000/svg">
<g id="u:twitter">
<path id="Vector" d="M18.3334 5.27589C17.707 5.54764 17.0446 5.72728 16.3667 5.80922C17.0819 5.38199 17.6178 4.70988 17.8751 3.91756C17.203 4.31761 16.4674 4.59947 15.7001 4.75089C15.1872 4.1947 14.5042 3.82447 13.7583 3.69827C13.0123 3.57206 12.2455 3.69702 11.5782 4.05355C10.9109 4.41007 10.3809 4.978 10.0711 5.66825C9.76137 6.35851 9.68949 7.13205 9.86675 7.86756C8.50794 7.79883 7.17878 7.44502 5.96563 6.82911C4.75247 6.2132 3.68245 5.34897 2.82508 4.29256C2.52436 4.8177 2.36635 5.41241 2.36675 6.01756C2.36568 6.57954 2.5036 7.13307 2.76821 7.62886C3.03283 8.12465 3.41593 8.54732 3.88341 8.85922C3.34006 8.84444 2.80832 8.69864 2.33341 8.43422V8.47589C2.33749 9.2633 2.61341 10.0251 3.11451 10.6325C3.61561 11.2399 4.31113 11.6556 5.08341 11.8092C4.78613 11.8997 4.47748 11.9474 4.16675 11.9509C3.95166 11.9484 3.7371 11.9289 3.52508 11.8926C3.74501 12.5699 4.1706 13.1618 4.74264 13.586C5.31469 14.0102 6.00473 14.2455 6.71675 14.2592C5.51442 15.2053 4.02998 15.7216 2.50008 15.7259C2.22153 15.7268 1.94319 15.7101 1.66675 15.6759C3.22877 16.6844 5.04909 17.2198 6.90841 17.2176C8.19149 17.2309 9.46436 16.9884 10.6527 16.5043C11.841 16.0202 12.9209 15.3041 13.8294 14.398C14.7379 13.4918 15.4567 12.4137 15.9439 11.2266C16.431 10.0396 16.6768 8.76733 16.6667 7.48422C16.6667 7.34256 16.6667 7.19256 16.6667 7.04256C17.3207 6.5549 17.8846 5.95708 18.3334 5.27589Z" fill="white"/>
</g>
</svg>
