<svg width="100" height="24" viewBox="0 0 100 24" fill="none" xmlns="http://www.w3.org/2000/svg">
<mask id="mask0_2371_16879" style="mask-type:luminance" maskUnits="userSpaceOnUse" x="0" y="0" width="100" height="24">
<path d="M99.375 0H0.375V24H99.375V0Z" fill="white"/>
</mask>
<g mask="url(#mask0_2371_16879)">
<path d="M9.46959 12.3473L20.9895 24.0009H15.3464L4.82819 13.3825V24.0009H0.520691V0.626953H4.82819V11.8465L15.0793 0.626953H20.4553L9.46959 12.3473ZM38.897 6.27007V0.626953H43.2045V6.27007C43.2045 11.8131 40.3328 15.4861 35.2907 16.2541V24.0009H30.9832V16.2541C25.9412 15.4527 23.0361 11.8131 23.0361 6.27007V0.626953H27.377V6.27007C27.377 10.3772 29.4138 12.6812 33.1537 12.6812C36.8267 12.6812 38.897 10.3772 38.897 6.27007ZM64.997 24.0009H47.9337V0.626953H52.2078V20.1943H64.997V24.0009ZM72.459 24.0009H68.151V0.626953H72.459V24.0009ZM97.968 0.626953V2.63043C97.968 6.73757 96.232 9.90977 93.427 11.6795C96.232 13.4492 97.968 16.6214 97.968 20.7285V23.9675H93.561V20.6952C93.561 16.4878 91.123 13.5828 87.584 13.5828C84.111 13.5828 81.64 16.4878 81.64 20.6952V23.9675H77.199V20.7285C77.199 16.6214 78.935 13.4492 81.74 11.6795C78.935 9.90977 77.199 6.73757 77.199 2.63043V0.626953H81.64V2.66382C81.64 6.87107 84.111 9.74277 87.584 9.74277C91.157 9.74277 93.561 6.87107 93.561 2.66382V0.626953H97.968Z" fill="#56DDB4"/>
</g>
</svg>
