<svg width="140" height="32" viewBox="0 0 140 32" fill="none" xmlns="http://www.w3.org/2000/svg">
    <mask id="mask0_2371_16872" style="mask-type:luminance" maskUnits="userSpaceOnUse" x="0" y="0" width="33"
        height="32">
        <path d="M32.375 0H0.375V32H32.375V0Z" fill="white" />
    </mask>
    <g mask="url(#mask0_2371_16872)">
        <path
            d="M32.375 16C32.375 7.16344 25.2116 0 16.375 0C7.53844 0 0.375 7.16344 0.375 16C0.375 24.8366 7.53844 32 16.375 32C25.2116 32 32.375 24.8366 32.375 16Z"
            fill="#56DDB4" fill-opacity="0.35" />
        <path
            d="M16.375 24.9925C21.3419 24.9925 25.3684 20.9661 25.3684 15.9992C25.3684 11.0323 21.3419 7.00586 16.375 7.00586C11.4081 7.00586 7.38165 11.0323 7.38165 15.9992C7.38165 20.9661 11.4081 24.9925 16.375 24.9925Z"
            fill="#56DDB4" stroke="#1E1E1E" stroke-width="3.83149" />
    </g>
    <mask id="mask1_2371_16872" style="mask-type:luminance" maskUnits="userSpaceOnUse" x="40" y="4" width="100"
        height="24">
        <path d="M139.375 4H40.375V28H139.375V4Z" fill="white" />
    </mask>
    <g mask="url(#mask1_2371_16872)">
        <path
            d="M49.4696 16.3473L60.9895 28.0009H55.3464L44.8282 17.3825V28.0009H40.5207V4.62695H44.8282V15.8465L55.0793 4.62695H60.4553L49.4696 16.3473ZM78.897 10.2701V4.62695H83.2045V10.2701C83.2045 15.8131 80.3328 19.4861 75.2907 20.2541V28.0009H70.9832V20.2541C65.9412 19.4527 63.0361 15.8131 63.0361 10.2701V4.62695H67.377V10.2701C67.377 14.3772 69.4138 16.6812 73.1537 16.6812C76.8267 16.6812 78.897 14.3772 78.897 10.2701ZM104.997 28.0009H87.9337V4.62695H92.2078V24.1943H104.997V28.0009ZM112.459 28.0009H108.151V4.62695H112.459V28.0009ZM137.968 4.62695V6.63043C137.968 10.7376 136.232 13.9098 133.427 15.6795C136.232 17.4492 137.968 20.6214 137.968 24.7285V27.9675H133.561V24.6952C133.561 20.4878 131.123 17.5828 127.584 17.5828C124.111 17.5828 121.64 20.4878 121.64 24.6952V27.9675H117.199V24.7285C117.199 20.6214 118.935 17.4492 121.74 15.6795C118.935 13.9098 117.199 10.7376 117.199 6.63043V4.62695H121.64V6.66382C121.64 10.8711 124.111 13.7428 127.584 13.7428C131.157 13.7428 133.561 10.8711 133.561 6.66382V4.62695H137.968Z"
            fill="#56DDB4" />
    </g>
</svg>