<svg width="33" height="32" viewBox="0 0 33 32" fill="none" xmlns="http://www.w3.org/2000/svg">
<mask id="mask0_2670_14" style="mask-type:luminance" maskUnits="userSpaceOnUse" x="0" y="0" width="33" height="32">
<path d="M32.375 0H0.375V32H32.375V0Z" fill="white"/>
</mask>
<g mask="url(#mask0_2670_14)">
<path d="M32.375 16C32.375 7.16344 25.2116 0 16.375 0C7.53844 0 0.375 7.16344 0.375 16C0.375 24.8366 7.53844 32 16.375 32C25.2116 32 32.375 24.8366 32.375 16Z" fill="currentColor" fill-opacity="0.35"/>
<path d="M16.375 24.993C21.3419 24.993 25.3684 20.9666 25.3684 15.9997C25.3684 11.0328 21.3419 7.00635 16.375 7.00635C11.4081 7.00635 7.38165 11.0328 7.38165 15.9997C7.38165 20.9666 11.4081 24.993 16.375 24.993Z" fill="currentColor" stroke="#1E1E1E" stroke-width="3.83149"/>
</g>
</svg>
