<svg width="98" height="24" viewBox="0 0 98 24" fill="none" xmlns="http://www.w3.org/2000/svg">
<path d="M9.46959 12.3463L20.9895 23.9999H15.3464L4.82819 13.3815V23.9999H0.520691V0.625977H4.82819V11.8455L15.0793 0.625977H20.4553L9.46959 12.3463ZM38.897 6.2691V0.625977H43.2045V6.2691C43.2045 11.8121 40.3328 15.4851 35.2907 16.2531V23.9999H30.9832V16.2531C25.9412 15.4517 23.0361 11.8121 23.0361 6.2691V0.625977H27.377V6.2691C27.377 10.3762 29.4138 12.6802 33.1537 12.6802C36.8267 12.6802 38.897 10.3762 38.897 6.2691ZM64.997 23.9999H47.9337V0.625977H52.2078V20.1933H64.997V23.9999ZM72.459 23.9999H68.151V0.625977H72.459V23.9999ZM97.968 0.625977V2.62946C97.968 6.7366 96.232 9.9088 93.427 11.6785C96.232 13.4482 97.968 16.6204 97.968 20.7275V23.9665H93.561V20.6942C93.561 16.4868 91.123 13.5818 87.584 13.5818C84.111 13.5818 81.64 16.4868 81.64 20.6942V23.9665H77.199V20.7275C77.199 16.6204 78.935 13.4482 81.74 11.6785C78.935 9.9088 77.199 6.7366 77.199 2.62946V0.625977H81.64V2.66285C81.64 6.8701 84.111 9.7418 87.584 9.7418C91.157 9.7418 93.561 6.8701 93.561 2.66285V0.625977H97.968Z" fill="#56DDB4"/>
</svg>
